<?xml version="1.0" encoding="UTF-8"?>
<svg width="50px" height="50px" viewBox="0 0 50 50" version="1.1" xmlns="http://www.w3.org/2000/svg" xmlns:xlink="http://www.w3.org/1999/xlink">
    <!-- Generator: Sketch 62 (91390) - https://sketch.com -->
    <title>Group 6</title>
    <desc>Created with Sketch.</desc>
    <g id="Symbols" stroke="none" stroke-width="1" fill="none" fill-rule="evenodd">
        <g id="instagram" transform="translate(1.000000, 1.000000)">
            <g id="Group-6">
                <path d="M24,48 C37.234,48 48,37.233 48,24 C48,10.767 37.234,0 24,0 C10.766,0 0,10.767 0,24 C0,37.233 10.766,48 24,48 Z" id="Stroke-6" stroke="#E02020" stroke-width="2"></path>
                <path d="M29.164,11.2249 L18.836,11.2249 C14.639,11.2249 11.224,14.6399 11.224,18.8369 L11.224,29.1649 C11.224,33.3619 14.639,36.7769 18.836,36.7769 L29.164,36.7769 C33.361,36.7769 36.776,33.3619 36.776,29.1649 L36.776,18.8369 C36.776,14.6399 33.361,11.2249 29.164,11.2249 L29.164,11.2249 Z M34.205,29.1649 C34.205,31.9489 31.948,34.2059 29.164,34.2059 L18.836,34.2059 C16.052,34.2059 13.795,31.9489 13.795,29.1649 L13.795,18.8369 C13.795,16.0529 16.052,13.7949 18.836,13.7949 L29.164,13.7949 C31.948,13.7949 34.205,16.0529 34.205,18.8369 L34.205,29.1649 Z" id="Fill-10" fill="#E02020"></path>
                <path d="M29.164,11.2249 L18.836,11.2249 C14.639,11.2249 11.224,14.6399 11.224,18.8369 L11.224,29.1649 C11.224,33.3619 14.639,36.7769 18.836,36.7769 L29.164,36.7769 C33.361,36.7769 36.776,33.3619 36.776,29.1649 L36.776,18.8369 C36.776,14.6399 33.361,11.2249 29.164,11.2249 L29.164,11.2249 Z M34.205,29.1649 C34.205,31.9489 31.948,34.2059 29.164,34.2059 L18.836,34.2059 C16.052,34.2059 13.795,31.9489 13.795,29.1649 L13.795,18.8369 C13.795,16.0529 16.052,13.7949 18.836,13.7949 L29.164,13.7949 C31.948,13.7949 34.205,16.0529 34.205,18.8369 L34.205,29.1649 Z" id="Fill-11" fill="#E02020"></path>
                <path d="M24,17.3921 C20.356,17.3921 17.391,20.3571 17.391,24.0011 C17.391,27.6451 20.356,30.6091 24,30.6091 C27.644,30.6091 30.609,27.6451 30.609,24.0011 C30.609,20.3571 27.644,17.3921 24,17.3921 M24,28.0391 C21.77,28.0391 19.962,26.2311 19.962,24.0011 C19.962,21.7701 21.77,19.9631 24,19.9631 C26.23,19.9631 28.038,21.7701 28.038,24.0011 C28.038,26.2311 26.23,28.0391 24,28.0391" id="Fill-12" fill="#E02020"></path>
                <path d="M24,17.3921 C20.356,17.3921 17.391,20.3571 17.391,24.0011 C17.391,27.6451 20.356,30.6091 24,30.6091 C27.644,30.6091 30.609,27.6451 30.609,24.0011 C30.609,20.3571 27.644,17.3921 24,17.3921 M24,28.0391 C21.77,28.0391 19.962,26.2311 19.962,24.0011 C19.962,21.7701 21.77,19.9631 24,19.9631 C26.23,19.9631 28.038,21.7701 28.038,24.0011 C28.038,26.2311 26.23,28.0391 24,28.0391" id="Fill-13" fill="#E02020"></path>
                <path d="M32.2048,17.4419 C32.2048,18.3159 31.4958,19.0259 30.6208,19.0259 C29.7468,19.0259 29.0378,18.3159 29.0378,17.4419 C29.0378,16.5669 29.7468,15.8579 30.6208,15.8579 C31.4958,15.8579 32.2048,16.5669 32.2048,17.4419" id="Fill-14" fill="#E02020"></path>
                <path d="M32.2048,17.4419 C32.2048,18.3159 31.4958,19.0259 30.6208,19.0259 C29.7468,19.0259 29.0378,18.3159 29.0378,17.4419 C29.0378,16.5669 29.7468,15.8579 30.6208,15.8579 C31.4958,15.8579 32.2048,16.5669 32.2048,17.4419" id="Fill-15" fill="#E02020"></path>
            </g>
        </g>
    </g>
</svg>