<?xml version="1.0" encoding="UTF-8"?>
<svg width="50px" height="50px" viewBox="0 0 50 50" version="1.1" xmlns="http://www.w3.org/2000/svg" xmlns:xlink="http://www.w3.org/1999/xlink">
    <!-- Generator: Sketch 62 (91390) - https://sketch.com -->
    <title>Group 5</title>
    <desc>Created with Sketch.</desc>
    <g id="Symbols" stroke="none" stroke-width="1" fill="none" fill-rule="evenodd">
        <g id="linkedin" transform="translate(1.000000, 1.000000)">
            <g id="Group-5">
                <path d="M24,48 C37.234,48 48,37.233 48,24 C48,10.767 37.234,0 24,0 C10.766,0 1.42108547e-14,10.767 1.42108547e-14,24 C1.42108547e-14,37.233 10.766,48 24,48 Z" id="Stroke-1" stroke="#E02020" stroke-width="2"></path>
                <path d="M14.0335,32.7302 L18.8815,32.7302 L18.8815,18.2452 L14.0335,18.2452 L14.0335,32.7302 Z M16.4595,16.2652 L16.4255,16.2652 C14.8005,16.2652 13.7475,15.1532 13.7475,13.7632 C13.7475,12.3432 14.8315,11.2612 16.4885,11.2612 C18.1475,11.2612 19.1675,12.3432 19.1985,13.7632 C19.1985,15.1552 18.1475,16.2652 16.4595,16.2652 L16.4595,16.2652 Z M36.3555,32.7302 L31.5095,32.7302 L31.5095,24.9792 C31.5095,23.0312 30.8065,21.7032 29.0555,21.7032 C27.7135,21.7032 26.9185,22.5992 26.5685,23.4652 C26.4395,23.7742 26.4085,24.2062 26.4085,24.6372 L26.4085,32.7302 L21.5625,32.7302 C21.5625,32.7302 21.6265,19.6022 21.5625,18.2452 L26.4085,18.2452 L26.4085,20.2982 C27.0525,19.3112 28.2005,17.9032 30.7755,17.9032 C33.9645,17.9032 36.3555,19.9732 36.3555,24.4242 L36.3555,32.7302 Z" id="Fill-3" fill="#E02020"></path>
            </g>
        </g>
    </g>
</svg>