<?xml version="1.0" encoding="UTF-8"?>
<svg width="50px" height="50px" viewBox="0 0 50 50" version="1.1" xmlns="http://www.w3.org/2000/svg" xmlns:xlink="http://www.w3.org/1999/xlink">
    <!-- Generator: Sketch 62 (91390) - https://sketch.com -->
    <title>Group 4</title>
    <desc>Created with Sketch.</desc>
    <g id="Symbols" stroke="none" stroke-width="1" fill="none" fill-rule="evenodd">
        <g id="twitter" transform="translate(1.000000, 1.000000)">
            <g id="Group-4">
                <path d="M24,48 C37.234,48 48,37.233 48,24 C48,10.767 37.234,0 24,0 C10.766,0 0,10.767 0,24 C0,37.233 10.766,48 24,48 Z" id="Stroke-5" stroke="#E02020" stroke-width="2"></path>
                <path d="M33.7931,18.9796 C33.8011,19.1946 33.8051,19.4146 33.8051,19.6356 C33.8051,26.3086 28.7261,34.0026 19.4341,34.0026 C16.5811,34.0026 13.9261,33.1706 11.6911,31.7336 C12.0881,31.7806 12.4891,31.8066 12.8951,31.8066 C15.2641,31.8066 17.4401,30.9996 19.1701,29.6436 C16.9601,29.6006 15.0961,28.1426 14.4531,26.1346 C14.7591,26.1956 15.0741,26.2256 15.4021,26.2256 C15.8601,26.2256 16.3081,26.1656 16.7311,26.0486 C14.4221,25.5866 12.6791,23.5466 12.6791,21.0986 C12.6791,21.0766 12.6791,21.0556 12.6831,21.0336 C13.3601,21.4136 14.1431,21.6376 14.9711,21.6636 C13.6161,20.7616 12.7221,19.2126 12.7221,17.4606 C12.7221,16.5366 12.9731,15.6696 13.4051,14.9226 C15.8941,17.9786 19.6201,19.9896 23.8141,20.2006 C23.7271,19.8296 23.6841,19.4456 23.6841,19.0486 C23.6841,16.2606 25.9461,13.9986 28.7351,13.9986 C30.1891,13.9986 31.5001,14.6116 32.4201,15.5906 C33.5721,15.3666 34.6561,14.9476 35.6321,14.3656 C35.2511,15.5476 34.4531,16.5366 33.4081,17.1616 C34.4321,17.0416 35.4071,16.7696 36.3091,16.3686 C35.6361,17.3786 34.7761,18.2666 33.7931,18.9796" id="Fill-8" fill="#E02020"></path>
            </g>
        </g>
    </g>
</svg>