<?xml version="1.0" encoding="UTF-8"?>
<svg width="542px" height="269px" viewBox="0 0 542 269" version="1.1" xmlns="http://www.w3.org/2000/svg" xmlns:xlink="http://www.w3.org/1999/xlink">
    <!-- Generator: Sketch 62 (91390) - https://sketch.com -->
    <title>Group 144</title>
    <desc>Created with Sketch.</desc>
    <g id="Symbols" stroke="none" stroke-width="1" fill="none" fill-rule="evenodd">
        <g id="Group-144">
            <g id="Group-143" transform="translate(0.000000, 95.000000)" fill-rule="nonzero">
                <path d="M4.369,13.068 C5.30966667,13.068 6.16816667,12.9433333 6.9445,12.694 C7.72083333,12.4446667 8.3895,12.0678333 8.9505,11.5635 C9.5115,11.0591667 9.94783333,10.4358333 10.2595,9.6935 C10.5711667,8.95116667 10.727,8.087 10.727,7.101 C10.727,6.10366667 10.591,5.25083333 10.319,4.5425 C10.047,3.83416667 9.65883333,3.25333333 9.1545,2.8 C8.65016667,2.34666667 8.03816667,2.01233333 7.3185,1.797 C6.59883333,1.58166667 5.78566667,1.474 4.879,1.474 C4.21033333,1.474 3.56433333,1.4825 2.941,1.4995 C2.31766667,1.5165 1.77933333,1.53066667 1.326,1.542 L1.326,1.542 L1.326,13 C1.77933333,13.0113333 2.2525,13.0255 2.7455,13.0425 C3.2385,13.0595 3.77966667,13.068 4.369,13.068 Z M4.556,11.487 C4.32933333,11.487 4.09133333,11.4785 3.842,11.4615 C3.59266667,11.4445 3.37166667,11.4246667 3.179,11.402 L3.179,11.402 L3.179,3.055 C3.383,3.03233333 3.62383333,3.01816667 3.9015,3.0125 C4.17916667,3.00683333 4.45966667,3.004 4.743,3.004 C6.14833333,3.004 7.16833333,3.3695 7.803,4.1005 C8.43766667,4.8315 8.755,5.877 8.755,7.237 C8.755,7.97366667 8.653,8.60833333 8.449,9.141 C8.245,9.67366667 7.956,10.1156667 7.582,10.467 C7.208,10.8183333 6.76316667,11.0761667 6.2475,11.2405 C5.73183333,11.4048333 5.168,11.487 4.556,11.487 Z M16.133,13.17 C16.6656667,13.17 17.187,13.1246667 17.697,13.034 C18.207,12.9433333 18.683,12.8073333 19.125,12.626 L19.125,12.626 L18.887,11.198 C18.5016667,11.368 18.1021667,11.4955 17.6885,11.5805 C17.2748333,11.6655 16.864,11.708 16.456,11.708 C15.606,11.708 14.9713333,11.4841667 14.552,11.0365 C14.1326667,10.5888333 13.9343333,9.88333333 13.957,8.92 L13.957,8.92 L19.346,8.92 C19.38,8.55733333 19.397,8.26266667 19.397,8.036 C19.397,7.53733333 19.3318333,7.06416667 19.2015,6.6165 C19.0711667,6.16883333 18.8643333,5.78066667 18.581,5.452 C18.2976667,5.12333333 17.9378333,4.86266667 17.5015,4.67 C17.0651667,4.47733333 16.5466667,4.381 15.946,4.381 C15.334,4.381 14.7871667,4.49433333 14.3055,4.721 C13.8238333,4.94766667 13.4186667,5.25933333 13.09,5.656 C12.7613333,6.05266667 12.512,6.523 12.342,7.067 C12.172,7.611 12.087,8.20033333 12.087,8.835 C12.087,10.331 12.4355,11.4275 13.1325,12.1245 C13.8295,12.8215 14.8296667,13.17 16.133,13.17 Z M17.578,7.662 L13.991,7.662 C14.0703333,7.06133333 14.2771667,6.58816667 14.6115,6.2425 C14.9458333,5.89683333 15.368,5.724 15.878,5.724 C16.422,5.724 16.847,5.894 17.153,6.234 C17.459,6.574 17.6006667,7.05 17.578,7.662 L17.578,7.662 Z M29.495,13 L31.433,5.877 C31.6256667,5.15166667 31.7616667,4.44333333 31.841,3.752 L31.841,3.752 L31.858,3.752 C31.9146667,4.11466667 31.977,4.47733333 32.045,4.84 C32.113,5.20266667 32.198,5.55966667 32.3,5.911 L32.3,5.911 L34.255,13 L36.533,13 L39.508,1.525 L37.655,1.525 L35.87,8.699 C35.7793333,9.01633333 35.7028333,9.33933333 35.6405,9.668 C35.5781667,9.99666667 35.5186667,10.3423333 35.462,10.705 L35.462,10.705 L35.445,10.705 C35.3883333,10.3423333 35.3203333,9.97683333 35.241,9.6085 C35.1616667,9.24016667 35.0766667,8.903 34.986,8.597 L34.986,8.597 L32.98,1.525 L30.957,1.525 L29.002,8.58 C28.9,8.93133333 28.8121667,9.28833333 28.7385,9.651 C28.6648333,10.0136667 28.5996667,10.382 28.543,10.756 L28.543,10.756 L28.526,10.756 C28.4693333,10.3706667 28.407,9.99383333 28.339,9.6255 C28.271,9.25716667 28.186,8.88033333 28.084,8.495 L28.084,8.495 L26.316,1.525 L24.344,1.525 L27.319,13 L29.495,13 Z M42.738,3.055 C43.0666667,3.055 43.3443333,2.9445 43.571,2.7235 C43.7976667,2.5025 43.911,2.23333333 43.911,1.916 C43.911,1.59866667 43.7976667,1.3295 43.571,1.1085 C43.3443333,0.8875 43.0666667,0.777 42.738,0.777 C42.4206667,0.777 42.1486667,0.8875 41.922,1.1085 C41.6953333,1.3295 41.582,1.59866667 41.582,1.916 C41.582,2.24466667 41.6953333,2.51666667 41.922,2.732 C42.1486667,2.94733333 42.4206667,3.055 42.738,3.055 Z M43.639,13 L43.639,4.551 C43.0836667,4.52833333 42.517,4.52833333 41.939,4.551 C41.361,4.57366667 40.834,4.61333333 40.358,4.67 L40.358,4.67 L40.358,5.792 C40.6073333,5.81466667 40.8651667,5.84016667 41.1315,5.8685 C41.3978333,5.89683333 41.633,5.928 41.837,5.962 L41.837,5.962 L41.837,13 L43.639,13 Z M48.994,13.153 C49.2773333,13.153 49.5776667,13.1331667 49.895,13.0935 C50.2123333,13.0538333 50.5013333,13.0056667 50.762,12.949 L50.762,12.949 L50.609,11.487 C50.4503333,11.521 50.286,11.5493333 50.116,11.572 C49.946,11.5946667 49.7646667,11.606 49.572,11.606 C49.1526667,11.606 48.8636667,11.4955 48.705,11.2745 C48.5463333,11.0535 48.467,10.6313333 48.467,10.008 L48.467,10.008 L48.467,5.962 L50.677,5.962 L50.677,4.551 L48.467,4.551 L48.467,1.372 L46.648,1.865 L46.648,4.551 L45.033,4.551 L45.033,5.962 L46.648,5.962 L46.648,10.569 C46.648,11.045 46.6848333,11.4473333 46.7585,11.776 C46.8321667,12.1046667 46.9596667,12.371 47.141,12.575 C47.3223333,12.779 47.5631667,12.9263333 47.8635,13.017 C48.1638333,13.1076667 48.5406667,13.153 48.994,13.153 Z M55.335,13.153 C55.6183333,13.153 55.9186667,13.1331667 56.236,13.0935 C56.5533333,13.0538333 56.8423333,13.0056667 57.103,12.949 L57.103,12.949 L56.95,11.487 C56.7913333,11.521 56.627,11.5493333 56.457,11.572 C56.287,11.5946667 56.1056667,11.606 55.913,11.606 C55.4936667,11.606 55.2046667,11.4955 55.046,11.2745 C54.8873333,11.0535 54.808,10.6313333 54.808,10.008 L54.808,10.008 L54.808,5.962 L57.018,5.962 L57.018,4.551 L54.808,4.551 L54.808,1.372 L52.989,1.865 L52.989,4.551 L51.374,4.551 L51.374,5.962 L52.989,5.962 L52.989,10.569 C52.989,11.045 53.0258333,11.4473333 53.0995,11.776 C53.1731667,12.1046667 53.3006667,12.371 53.482,12.575 C53.6633333,12.779 53.9041667,12.9263333 54.2045,13.017 C54.5048333,13.1076667 54.8816667,13.153 55.335,13.153 Z M62.339,13.17 C62.8716667,13.17 63.393,13.1246667 63.903,13.034 C64.413,12.9433333 64.889,12.8073333 65.331,12.626 L65.331,12.626 L65.093,11.198 C64.7076667,11.368 64.3081667,11.4955 63.8945,11.5805 C63.4808333,11.6655 63.07,11.708 62.662,11.708 C61.812,11.708 61.1773333,11.4841667 60.758,11.0365 C60.3386667,10.5888333 60.1403333,9.88333333 60.163,8.92 L60.163,8.92 L65.552,8.92 C65.586,8.55733333 65.603,8.26266667 65.603,8.036 C65.603,7.53733333 65.5378333,7.06416667 65.4075,6.6165 C65.2771667,6.16883333 65.0703333,5.78066667 64.787,5.452 C64.5036667,5.12333333 64.1438333,4.86266667 63.7075,4.67 C63.2711667,4.47733333 62.7526667,4.381 62.152,4.381 C61.54,4.381 60.9931667,4.49433333 60.5115,4.721 C60.0298333,4.94766667 59.6246667,5.25933333 59.296,5.656 C58.9673333,6.05266667 58.718,6.523 58.548,7.067 C58.378,7.611 58.293,8.20033333 58.293,8.835 C58.293,10.331 58.6415,11.4275 59.3385,12.1245 C60.0355,12.8215 61.0356667,13.17 62.339,13.17 Z M63.784,7.662 L60.197,7.662 C60.2763333,7.06133333 60.4831667,6.58816667 60.8175,6.2425 C61.1518333,5.89683333 61.574,5.724 62.084,5.724 C62.628,5.724 63.053,5.894 63.359,6.234 C63.665,6.574 63.8066667,7.05 63.784,7.662 L63.784,7.662 Z M74.409,13.068 C75.3496667,13.068 76.2081667,12.9433333 76.9845,12.694 C77.7608333,12.4446667 78.4295,12.0678333 78.9905,11.5635 C79.5515,11.0591667 79.9878333,10.4358333 80.2995,9.6935 C80.6111667,8.95116667 80.767,8.087 80.767,7.101 C80.767,6.10366667 80.631,5.25083333 80.359,4.5425 C80.087,3.83416667 79.6988333,3.25333333 79.1945,2.8 C78.6901667,2.34666667 78.0781667,2.01233333 77.3585,1.797 C76.6388333,1.58166667 75.8256667,1.474 74.919,1.474 C74.2503333,1.474 73.6043333,1.4825 72.981,1.4995 C72.3576667,1.5165 71.8193333,1.53066667 71.366,1.542 L71.366,1.542 L71.366,13 C71.8193333,13.0113333 72.2925,13.0255 72.7855,13.0425 C73.2785,13.0595 73.8196667,13.068 74.409,13.068 Z M74.596,11.487 C74.3693333,11.487 74.1313333,11.4785 73.882,11.4615 C73.6326667,11.4445 73.4116667,11.4246667 73.219,11.402 L73.219,11.402 L73.219,3.055 C73.423,3.03233333 73.6638333,3.01816667 73.9415,3.0125 C74.2191667,3.00683333 74.4996667,3.004 74.783,3.004 C76.1883333,3.004 77.2083333,3.3695 77.843,4.1005 C78.4776667,4.8315 78.795,5.877 78.795,7.237 C78.795,7.97366667 78.693,8.60833333 78.489,9.141 C78.285,9.67366667 77.996,10.1156667 77.622,10.467 C77.248,10.8183333 76.8031667,11.0761667 76.2875,11.2405 C75.7718333,11.4048333 75.208,11.487 74.596,11.487 Z M84.575,13.17 C85.255,13.17 85.8415,13.0056667 86.3345,12.677 C86.8275,12.3483333 87.176,11.929 87.38,11.419 L87.38,11.419 L87.397,11.436 C87.363,11.6626667 87.3403333,11.912 87.329,12.184 C87.3176667,12.456 87.312,12.728 87.312,13 C87.8106667,13.0226667 88.3461667,13.0226667 88.9185,13 C89.4908333,12.9773333 90.015,12.9376667 90.491,12.881 L90.491,12.881 L90.491,11.759 C90.2416667,11.7363333 89.9838333,11.7108333 89.7175,11.6825 C89.4511667,11.6541667 89.216,11.623 89.012,11.589 L89.012,11.589 L89.012,7.237 C89.012,6.80633333 88.961,6.41533333 88.859,6.064 C88.757,5.71266667 88.5813333,5.41233333 88.332,5.163 C88.0826667,4.91366667 87.7426667,4.721 87.312,4.585 C86.8813333,4.449 86.343,4.381 85.697,4.381 C85.1643333,4.381 84.6373333,4.432 84.116,4.534 C83.5946667,4.636 83.1243333,4.76633333 82.705,4.925 L82.705,4.925 L82.96,6.421 C83.3,6.23966667 83.6966667,6.09233333 84.15,5.979 C84.6033333,5.86566667 85.0283333,5.809 85.425,5.809 C86.0936667,5.809 86.5555,5.94216667 86.8105,6.2085 C87.0655,6.47483333 87.193,6.87433333 87.193,7.407 L87.193,7.407 L87.193,7.883 C86.4336667,7.883 85.748,7.951 85.136,8.087 C84.524,8.223 83.9998333,8.4185 83.5635,8.6735 C83.1271667,8.9285 82.7928333,9.243 82.5605,9.617 C82.3281667,9.991 82.212,10.416 82.212,10.892 C82.212,11.5833333 82.4245,12.1358333 82.8495,12.5495 C83.2745,12.9631667 83.8496667,13.17 84.575,13.17 Z M85.119,11.742 C84.7563333,11.742 84.473,11.6343333 84.269,11.419 C84.065,11.2036667 83.963,10.9316667 83.963,10.603 C83.963,10.4103333 84.0111667,10.2233333 84.1075,10.042 C84.2038333,9.86066667 84.3766667,9.702 84.626,9.566 C84.8753333,9.43 85.2068333,9.3195 85.6205,9.2345 C86.0341667,9.1495 86.5583333,9.107 87.193,9.107 L87.193,9.107 L87.193,9.345 C87.193,9.651 87.142,9.94566667 87.04,10.229 C86.938,10.5123333 86.7963333,10.7673333 86.615,10.994 C86.4336667,11.2206667 86.2155,11.402 85.9605,11.538 C85.7055,11.674 85.425,11.742 85.119,11.742 Z M94.367,13 L94.367,8.971 C94.367,8.529 94.4265,8.11816667 94.5455,7.7385 C94.6645,7.35883333 94.8231667,7.033 95.0215,6.761 C95.2198333,6.489 95.4521667,6.2765 95.7185,6.1235 C95.9848333,5.9705 96.2596667,5.894 96.543,5.894 C96.8036667,5.894 97.0105,5.93933333 97.1635,6.03 C97.3165,6.12066667 97.4383333,6.2425 97.529,6.3955 C97.6196667,6.5485 97.6791667,6.72983333 97.7075,6.9395 C97.7358333,7.14916667 97.75,7.373 97.75,7.611 L97.75,7.611 L97.75,13 L99.552,13 L99.552,8.971 C99.552,8.50633333 99.6143333,8.08416667 99.739,7.7045 C99.8636667,7.32483333 100.028,7.00183333 100.232,6.7355 C100.436,6.46916667 100.668333,6.26233333 100.929,6.115 C101.189667,5.96766667 101.456,5.894 101.728,5.894 C102.215333,5.894 102.538333,6.04983333 102.697,6.3615 C102.855667,6.67316667 102.935,7.08966667 102.935,7.611 L102.935,7.611 L102.935,13 L104.754,13 L104.754,7.169 C104.754,6.20566667 104.538667,5.50016667 104.108,5.0525 C103.677333,4.60483333 103.054,4.381 102.238,4.381 C101.852667,4.381 101.504167,4.43766667 101.1925,4.551 C100.880833,4.66433333 100.608833,4.81166667 100.3765,4.993 C100.144167,5.17433333 99.9458333,5.36983333 99.7815,5.5795 C99.6171667,5.78916667 99.4896667,5.996 99.399,6.2 C99.365,6.00733333 99.3026667,5.80616667 99.212,5.5965 C99.1213333,5.38683333 98.9853333,5.19133333 98.804,5.01 C98.6226667,4.82866667 98.3903333,4.6785 98.107,4.5595 C97.8236667,4.4405 97.478,4.381 97.07,4.381 C96.4126667,4.381 95.8346667,4.54816667 95.336,4.8825 C94.8373333,5.21683333 94.4576667,5.66733333 94.197,6.234 L94.197,6.234 L94.18,6.217 C94.2253333,5.95633333 94.2565,5.67016667 94.2735,5.3585 C94.2905,5.04683333 94.299,4.77766667 94.299,4.551 C93.789,4.52833333 93.245,4.52833333 92.667,4.551 C92.089,4.57366667 91.562,4.61333333 91.086,4.67 L91.086,4.67 L91.086,5.792 C91.3353333,5.81466667 91.5931667,5.84016667 91.8595,5.8685 C92.1258333,5.89683333 92.361,5.928 92.565,5.962 L92.565,5.962 L92.565,13 L94.367,13 Z M110.772,13.17 C111.304667,13.17 111.826,13.1246667 112.336,13.034 C112.846,12.9433333 113.322,12.8073333 113.764,12.626 L113.764,12.626 L113.526,11.198 C113.140667,11.368 112.741167,11.4955 112.3275,11.5805 C111.913833,11.6655 111.503,11.708 111.095,11.708 C110.245,11.708 109.610333,11.4841667 109.191,11.0365 C108.771667,10.5888333 108.573333,9.88333333 108.596,8.92 L108.596,8.92 L113.985,8.92 C114.019,8.55733333 114.036,8.26266667 114.036,8.036 C114.036,7.53733333 113.970833,7.06416667 113.8405,6.6165 C113.710167,6.16883333 113.503333,5.78066667 113.22,5.452 C112.936667,5.12333333 112.576833,4.86266667 112.1405,4.67 C111.704167,4.47733333 111.185667,4.381 110.585,4.381 C109.973,4.381 109.426167,4.49433333 108.9445,4.721 C108.462833,4.94766667 108.057667,5.25933333 107.729,5.656 C107.400333,6.05266667 107.151,6.523 106.981,7.067 C106.811,7.611 106.726,8.20033333 106.726,8.835 C106.726,10.331 107.0745,11.4275 107.7715,12.1245 C108.4685,12.8215 109.468667,13.17 110.772,13.17 Z M112.217,7.662 L108.63,7.662 C108.709333,7.06133333 108.916167,6.58816667 109.2505,6.2425 C109.584833,5.89683333 110.007,5.724 110.517,5.724 C111.061,5.724 111.486,5.894 111.792,6.234 C112.098,6.574 112.239667,7.05 112.217,7.662 L112.217,7.662 Z" id="DeWitteDame" fill="#FAFAFA"></path>
                <path d="M27.06,71 L27.06,62.9 L31.8,62.9 L31.8,54.68 L27.06,54.68 L27.06,32 L14.58,32 L0.9,55.16 L1.74,62.9 L18.06,62.9 L18.06,71 L27.06,71 Z M10.02,54.8 L18.18,41.18 L18.24,41.18 L18.24,54.68 L18.24,54.68 L14.31,54.68 C13.49,54.68 12.7,54.69 11.94,54.71 C11.18,54.73 10.54,54.76 10.02,54.8 L10.02,54.8 Z M49.08,71.78 C51.08,71.78 52.98,71.53 54.78,71.03 C56.58,70.53 58.17,69.77 59.55,68.75 C60.93,67.73 62.03,66.47 62.85,64.97 C63.67,63.47 64.08,61.74 64.08,59.78 C64.08,58.58 63.91,57.5 63.57,56.54 C63.23,55.58 62.76,54.71 62.16,53.93 C61.56,53.15 60.86,52.46 60.06,51.86 C59.26,51.26 58.42,50.72 57.54,50.24 C59.14,49.16 60.48,47.9 61.56,46.46 C62.64,45.02 63.18,43.26 63.18,41.18 C63.18,39.74 62.88,38.42 62.28,37.22 C61.68,36.02 60.81,34.97 59.67,34.07 C58.53,33.17 57.15,32.47 55.53,31.97 C53.91,31.47 52.06,31.22 49.98,31.22 C47.94,31.22 46.05,31.49 44.31,32.03 C42.57,32.57 41.07,33.34 39.81,34.34 C38.55,35.34 37.56,36.55 36.84,37.97 C36.12,39.39 35.76,40.98 35.76,42.74 C35.76,44.9 36.27,46.67 37.29,48.05 C38.31,49.43 39.64,50.62 41.28,51.62 C39.48,52.78 37.97,54.11 36.75,55.61 C35.53,57.11 34.92,58.96 34.92,61.16 C34.92,64.44 36.16,67.03 38.64,68.93 C41.12,70.83 44.6,71.78 49.08,71.78 Z M49.98,46.88 C48.38,46.16 47.14,45.43 46.26,44.69 C45.38,43.95 44.94,43.02 44.94,41.9 C44.94,40.98 45.3,40.15 46.02,39.41 C46.74,38.67 47.86,38.3 49.38,38.3 C51.06,38.3 52.25,38.66 52.95,39.38 C53.65,40.1 54,40.96 54,41.96 C54,43 53.62,43.91 52.86,44.69 C52.1,45.47 51.14,46.2 49.98,46.88 Z M49.74,64.46 C47.94,64.46 46.59,64.08 45.69,63.32 C44.79,62.56 44.34,61.6 44.34,60.44 C44.34,59.28 44.77,58.29 45.63,57.47 C46.49,56.65 47.54,55.86 48.78,55.1 C50.42,55.82 51.8,56.58 52.92,57.38 C54.04,58.18 54.6,59.24 54.6,60.56 C54.6,61.72 54.16,62.66 53.28,63.38 C52.4,64.1 51.22,64.46 49.74,64.46 Z" id="48" fill="#FEFEFE"></path>
            </g>
            <g id="Group-123" transform="translate(422.000000, 145.000000)" fill-rule="nonzero">
                <path d="M7.378,13 L7.378,11.419 L3.179,11.419 L3.179,7.849 L7.174,7.849 L7.174,6.336 L3.179,6.336 L3.179,3.072 L7.378,3.072 L7.378,1.525 L1.326,1.525 L1.326,13 L7.378,13 Z M10.931,13 L12.852,9.94 L14.756,13 L17.068,13 L14.144,8.716 L16.932,4.551 L14.909,4.551 L12.988,7.56 L11.101,4.551 L8.908,4.551 L11.764,8.75 L8.738,13 L10.931,13 Z M20.978,17.148 L20.978,13.017 C21.2046667,13.0623333 21.4171667,13.0906667 21.6155,13.102 C21.8138333,13.1133333 22.032,13.119 22.27,13.119 C23.6866667,13.119 24.7746667,12.6996667 25.534,11.861 C26.2933333,11.0223333 26.673,9.855 26.673,8.359 C26.673,7.07833333 26.4038333,6.09516667 25.8655,5.4095 C25.3271667,4.72383333 24.5593333,4.381 23.562,4.381 C22.9046667,4.381 22.3408333,4.53683333 21.8705,4.8485 C21.4001667,5.16016667 21.046,5.588 20.808,6.132 L20.808,6.132 L20.774,6.132 C20.8193333,5.90533333 20.8476667,5.64183333 20.859,5.3415 C20.8703333,5.04116667 20.876,4.77766667 20.876,4.551 C20.366,4.52833333 19.8276667,4.52833333 19.261,4.551 C18.6943333,4.57366667 18.173,4.61333333 17.697,4.67 L17.697,4.67 L17.697,5.792 C17.9463333,5.81466667 18.2041667,5.84016667 18.4705,5.8685 C18.7368333,5.89683333 18.972,5.928 19.176,5.962 L19.176,5.962 L19.176,17.148 L20.978,17.148 Z M22.321,11.691 C21.811,11.691 21.3633333,11.6343333 20.978,11.521 L20.978,11.521 L20.978,8.92 C20.978,8.55733333 21.0233333,8.19466667 21.114,7.832 C21.2046667,7.46933333 21.3406667,7.1435 21.522,6.8545 C21.7033333,6.5655 21.9215,6.33033333 22.1765,6.149 C22.4315,5.96766667 22.729,5.877 23.069,5.877 C23.647,5.877 24.072,6.1065 24.344,6.5655 C24.616,7.0245 24.752,7.679 24.752,8.529 C24.752,9.66233333 24.5281667,10.4726667 24.0805,10.96 C23.6328333,11.4473333 23.0463333,11.691 22.321,11.691 Z M32.028,13.17 C32.5606667,13.17 33.082,13.1246667 33.592,13.034 C34.102,12.9433333 34.578,12.8073333 35.02,12.626 L35.02,12.626 L34.782,11.198 C34.3966667,11.368 33.9971667,11.4955 33.5835,11.5805 C33.1698333,11.6655 32.759,11.708 32.351,11.708 C31.501,11.708 30.8663333,11.4841667 30.447,11.0365 C30.0276667,10.5888333 29.8293333,9.88333333 29.852,8.92 L29.852,8.92 L35.241,8.92 C35.275,8.55733333 35.292,8.26266667 35.292,8.036 C35.292,7.53733333 35.2268333,7.06416667 35.0965,6.6165 C34.9661667,6.16883333 34.7593333,5.78066667 34.476,5.452 C34.1926667,5.12333333 33.8328333,4.86266667 33.3965,4.67 C32.9601667,4.47733333 32.4416667,4.381 31.841,4.381 C31.229,4.381 30.6821667,4.49433333 30.2005,4.721 C29.7188333,4.94766667 29.3136667,5.25933333 28.985,5.656 C28.6563333,6.05266667 28.407,6.523 28.237,7.067 C28.067,7.611 27.982,8.20033333 27.982,8.835 C27.982,10.331 28.3305,11.4275 29.0275,12.1245 C29.7245,12.8215 30.7246667,13.17 32.028,13.17 Z M33.473,7.662 L29.886,7.662 C29.9653333,7.06133333 30.1721667,6.58816667 30.5065,6.2425 C30.8408333,5.89683333 31.263,5.724 31.773,5.724 C32.317,5.724 32.742,5.894 33.048,6.234 C33.354,6.574 33.4956667,7.05 33.473,7.662 L33.473,7.662 Z M39.78,13.17 C40.4373333,13.17 41.004,13.0085 41.48,12.6855 C41.956,12.3625 42.3073333,11.9403333 42.534,11.419 L42.534,11.419 L42.568,11.419 C42.5226667,11.657 42.4915,11.9233333 42.4745,12.218 C42.4575,12.5126667 42.449,12.7733333 42.449,13 C42.959,13.0226667 43.5001667,13.0226667 44.0725,13 C44.6448333,12.9773333 45.169,12.9376667 45.645,12.881 L45.645,12.881 L45.645,11.759 C45.3956667,11.7363333 45.1378333,11.7108333 44.8715,11.6825 C44.6051667,11.6541667 44.37,11.623 44.166,11.589 L44.166,11.589 L44.166,0.59 C43.6106667,0.567333333 43.044,0.567333333 42.466,0.59 C41.888,0.612666667 41.361,0.652333333 40.885,0.709 L40.885,0.709 L40.885,1.831 C41.1343333,1.85366667 41.3921667,1.87916667 41.6585,1.9075 C41.9248333,1.93583333 42.16,1.967 42.364,2.001 L42.364,2.001 L42.364,4.483 C42.1373333,4.46033333 41.9191667,4.44333333 41.7095,4.432 C41.4998333,4.42066667 41.293,4.415 41.089,4.415 C40.409,4.415 39.7941667,4.52833333 39.2445,4.755 C38.6948333,4.98166667 38.2301667,5.30183333 37.8505,5.7155 C37.4708333,6.12916667 37.179,6.63066667 36.975,7.22 C36.771,7.80933333 36.669,8.46666667 36.669,9.192 C36.669,10.4273333 36.9268333,11.3991667 37.4425,12.1075 C37.9581667,12.8158333 38.7373333,13.17 39.78,13.17 Z M40.273,11.674 C39.695,11.674 39.27,11.4445 38.998,10.9855 C38.726,10.5265 38.59,9.872 38.59,9.022 C38.59,7.87733333 38.8138333,7.06416667 39.2615,6.5825 C39.7091667,6.10083333 40.2956667,5.86 41.021,5.86 C41.463,5.86 41.9106667,5.911 42.364,6.013 L42.364,6.013 L42.364,8.631 C42.364,8.99366667 42.3186667,9.35633333 42.228,9.719 C42.1373333,10.0816667 42.0013333,10.4075 41.82,10.6965 C41.6386667,10.9855 41.4205,11.2206667 41.1655,11.402 C40.9105,11.5833333 40.613,11.674 40.273,11.674 Z M48.603,3.055 C48.9316667,3.055 49.2093333,2.9445 49.436,2.7235 C49.6626667,2.5025 49.776,2.23333333 49.776,1.916 C49.776,1.59866667 49.6626667,1.3295 49.436,1.1085 C49.2093333,0.8875 48.9316667,0.777 48.603,0.777 C48.2856667,0.777 48.0136667,0.8875 47.787,1.1085 C47.5603333,1.3295 47.447,1.59866667 47.447,1.916 C47.447,2.24466667 47.5603333,2.51666667 47.787,2.732 C48.0136667,2.94733333 48.2856667,3.055 48.603,3.055 Z M49.504,13 L49.504,4.551 C48.9486667,4.52833333 48.382,4.52833333 47.804,4.551 C47.226,4.57366667 46.699,4.61333333 46.223,4.67 L46.223,4.67 L46.223,5.792 C46.4723333,5.81466667 46.7301667,5.84016667 46.9965,5.8685 C47.2628333,5.89683333 47.498,5.928 47.702,5.962 L47.702,5.962 L47.702,13 L49.504,13 Z M54.859,13.153 C55.1423333,13.153 55.4426667,13.1331667 55.76,13.0935 C56.0773333,13.0538333 56.3663333,13.0056667 56.627,12.949 L56.627,12.949 L56.474,11.487 C56.3153333,11.521 56.151,11.5493333 55.981,11.572 C55.811,11.5946667 55.6296667,11.606 55.437,11.606 C55.0176667,11.606 54.7286667,11.4955 54.57,11.2745 C54.4113333,11.0535 54.332,10.6313333 54.332,10.008 L54.332,10.008 L54.332,5.962 L56.542,5.962 L56.542,4.551 L54.332,4.551 L54.332,1.372 L52.513,1.865 L52.513,4.551 L50.898,4.551 L50.898,5.962 L52.513,5.962 L52.513,10.569 C52.513,11.045 52.5498333,11.4473333 52.6235,11.776 C52.6971667,12.1046667 52.8246667,12.371 53.006,12.575 C53.1873333,12.779 53.4281667,12.9263333 53.7285,13.017 C54.0288333,13.1076667 54.4056667,13.153 54.859,13.153 Z M59.891,3.055 C60.2196667,3.055 60.4973333,2.9445 60.724,2.7235 C60.9506667,2.5025 61.064,2.23333333 61.064,1.916 C61.064,1.59866667 60.9506667,1.3295 60.724,1.1085 C60.4973333,0.8875 60.2196667,0.777 59.891,0.777 C59.5736667,0.777 59.3016667,0.8875 59.075,1.1085 C58.8483333,1.3295 58.735,1.59866667 58.735,1.916 C58.735,2.24466667 58.8483333,2.51666667 59.075,2.732 C59.3016667,2.94733333 59.5736667,3.055 59.891,3.055 Z M60.792,13 L60.792,4.551 C60.2366667,4.52833333 59.67,4.52833333 59.092,4.551 C58.514,4.57366667 57.987,4.61333333 57.511,4.67 L57.511,4.67 L57.511,5.792 C57.7603333,5.81466667 58.0181667,5.84016667 58.2845,5.8685 C58.5508333,5.89683333 58.786,5.928 58.99,5.962 L58.99,5.962 L58.99,13 L60.792,13 Z M66.81,13.17 C67.3426667,13.17 67.864,13.1246667 68.374,13.034 C68.884,12.9433333 69.36,12.8073333 69.802,12.626 L69.802,12.626 L69.564,11.198 C69.1786667,11.368 68.7791667,11.4955 68.3655,11.5805 C67.9518333,11.6655 67.541,11.708 67.133,11.708 C66.283,11.708 65.6483333,11.4841667 65.229,11.0365 C64.8096667,10.5888333 64.6113333,9.88333333 64.634,8.92 L64.634,8.92 L70.023,8.92 C70.057,8.55733333 70.074,8.26266667 70.074,8.036 C70.074,7.53733333 70.0088333,7.06416667 69.8785,6.6165 C69.7481667,6.16883333 69.5413333,5.78066667 69.258,5.452 C68.9746667,5.12333333 68.6148333,4.86266667 68.1785,4.67 C67.7421667,4.47733333 67.2236667,4.381 66.623,4.381 C66.011,4.381 65.4641667,4.49433333 64.9825,4.721 C64.5008333,4.94766667 64.0956667,5.25933333 63.767,5.656 C63.4383333,6.05266667 63.189,6.523 63.019,7.067 C62.849,7.611 62.764,8.20033333 62.764,8.835 C62.764,10.331 63.1125,11.4275 63.8095,12.1245 C64.5065,12.8215 65.5066667,13.17 66.81,13.17 Z M68.255,7.662 L64.668,7.662 C64.7473333,7.06133333 64.9541667,6.58816667 65.2885,6.2425 C65.6228333,5.89683333 66.045,5.724 66.555,5.724 C67.099,5.724 67.524,5.894 67.83,6.234 C68.136,6.574 68.2776667,7.05 68.255,7.662 L68.255,7.662 Z M81.889,13 L81.889,11.419 L77.69,11.419 L77.69,7.849 L81.685,7.849 L81.685,6.336 L77.69,6.336 L77.69,3.072 L81.889,3.072 L81.889,1.525 L75.837,1.525 L75.837,13 L81.889,13 Z M3.553,36.587 L4.93,35.958 C4.216,34.7566667 3.689,33.5071667 3.349,32.2095 C3.009,30.9118333 2.839,29.5376667 2.839,28.087 C2.839,26.693 3.01183333,25.3386667 3.3575,24.024 C3.70316667,22.7093333 4.21033333,21.4683333 4.879,20.301 L4.879,20.301 L3.57,19.672 C2.618,21.168 1.96066667,22.6385 1.598,24.0835 C1.23533333,25.5285 1.054,26.8913333 1.054,28.172 C1.054,28.818 1.09366667,29.4753333 1.173,30.144 C1.25233333,30.8126667 1.3855,31.4955 1.5725,32.1925 C1.7595,32.8895 2.0145,33.6035 2.3375,34.3345 C2.6605,35.0655 3.06566667,35.8163333 3.553,36.587 L3.553,36.587 Z M7.922,33.17 C8.48866667,33.17 8.99583333,33.102 9.4435,32.966 C9.89116667,32.83 10.2708333,32.6401667 10.5825,32.3965 C10.8941667,32.1528333 11.135,31.861 11.305,31.521 C11.475,31.181 11.56,30.8126667 11.56,30.416 C11.56,29.94 11.4665,29.5603333 11.2795,29.277 C11.0925,28.9936667 10.863,28.767 10.591,28.597 C10.319,28.427 10.0186667,28.291 9.69,28.189 C9.36133333,28.087 9.061,27.9821667 8.789,27.8745 C8.517,27.7668333 8.2875,27.6336667 8.1005,27.475 C7.9135,27.3163333 7.82,27.101 7.82,26.829 C7.82,26.5003333 7.939,26.2425 8.177,26.0555 C8.415,25.8685 8.789,25.775 9.299,25.775 C9.85433333,25.775 10.387,25.8543333 10.897,26.013 L10.897,26.013 L10.999,24.551 C10.7496667,24.4943333 10.4861667,24.4518333 10.2085,24.4235 C9.93083333,24.3951667 9.66166667,24.381 9.401,24.381 C8.823,24.381 8.31583333,24.449 7.8795,24.585 C7.44316667,24.721 7.08333333,24.9051667 6.8,25.1375 C6.51666667,25.3698333 6.30416667,25.6446667 6.1625,25.962 C6.02083333,26.2793333 5.95,26.625 5.95,26.999 C5.95,27.4863333 6.04066667,27.8745 6.222,28.1635 C6.40333333,28.4525 6.63283333,28.682 6.9105,28.852 C7.18816667,29.022 7.48566667,29.1551667 7.803,29.2515 C8.12033333,29.3478333 8.41783333,29.447 8.6955,29.549 C8.97316667,29.651 9.20266667,29.7785 9.384,29.9315 C9.56533333,30.0845 9.656,30.3083333 9.656,30.603 C9.656,30.943 9.50583333,31.2121667 9.2055,31.4105 C8.90516667,31.6088333 8.517,31.708 8.041,31.708 C7.71233333,31.708 7.3865,31.6796667 7.0635,31.623 C6.7405,31.5663333 6.44866667,31.487 6.188,31.385 L6.188,31.385 L6.052,32.932 C6.31266667,33.0113333 6.60733333,33.0708333 6.936,33.1105 C7.26466667,33.1501667 7.59333333,33.17 7.922,33.17 Z M16.354,33.153 C16.6373333,33.153 16.9376667,33.1331667 17.255,33.0935 C17.5723333,33.0538333 17.8613333,33.0056667 18.122,32.949 L18.122,32.949 L17.969,31.487 C17.8103333,31.521 17.646,31.5493333 17.476,31.572 C17.306,31.5946667 17.1246667,31.606 16.932,31.606 C16.5126667,31.606 16.2236667,31.4955 16.065,31.2745 C15.9063333,31.0535 15.827,30.6313333 15.827,30.008 L15.827,30.008 L15.827,25.962 L18.037,25.962 L18.037,24.551 L15.827,24.551 L15.827,21.372 L14.008,21.865 L14.008,24.551 L12.393,24.551 L12.393,25.962 L14.008,25.962 L14.008,30.569 C14.008,31.045 14.0448333,31.4473333 14.1185,31.776 C14.1921667,32.1046667 14.3196667,32.371 14.501,32.575 C14.6823333,32.779 14.9231667,32.9263333 15.2235,33.017 C15.5238333,33.1076667 15.9006667,33.153 16.354,33.153 Z M21.76,33.17 C22.44,33.17 23.0265,33.0056667 23.5195,32.677 C24.0125,32.3483333 24.361,31.929 24.565,31.419 L24.565,31.419 L24.582,31.436 C24.548,31.6626667 24.5253333,31.912 24.514,32.184 C24.5026667,32.456 24.497,32.728 24.497,33 C24.9956667,33.0226667 25.5311667,33.0226667 26.1035,33 C26.6758333,32.9773333 27.2,32.9376667 27.676,32.881 L27.676,32.881 L27.676,31.759 C27.4266667,31.7363333 27.1688333,31.7108333 26.9025,31.6825 C26.6361667,31.6541667 26.401,31.623 26.197,31.589 L26.197,31.589 L26.197,27.237 C26.197,26.8063333 26.146,26.4153333 26.044,26.064 C25.942,25.7126667 25.7663333,25.4123333 25.517,25.163 C25.2676667,24.9136667 24.9276667,24.721 24.497,24.585 C24.0663333,24.449 23.528,24.381 22.882,24.381 C22.3493333,24.381 21.8223333,24.432 21.301,24.534 C20.7796667,24.636 20.3093333,24.7663333 19.89,24.925 L19.89,24.925 L20.145,26.421 C20.485,26.2396667 20.8816667,26.0923333 21.335,25.979 C21.7883333,25.8656667 22.2133333,25.809 22.61,25.809 C23.2786667,25.809 23.7405,25.9421667 23.9955,26.2085 C24.2505,26.4748333 24.378,26.8743333 24.378,27.407 L24.378,27.407 L24.378,27.883 C23.6186667,27.883 22.933,27.951 22.321,28.087 C21.709,28.223 21.1848333,28.4185 20.7485,28.6735 C20.3121667,28.9285 19.9778333,29.243 19.7455,29.617 C19.5131667,29.991 19.397,30.416 19.397,30.892 C19.397,31.5833333 19.6095,32.1358333 20.0345,32.5495 C20.4595,32.9631667 21.0346667,33.17 21.76,33.17 Z M22.304,31.742 C21.9413333,31.742 21.658,31.6343333 21.454,31.419 C21.25,31.2036667 21.148,30.9316667 21.148,30.603 C21.148,30.4103333 21.1961667,30.2233333 21.2925,30.042 C21.3888333,29.8606667 21.5616667,29.702 21.811,29.566 C22.0603333,29.43 22.3918333,29.3195 22.8055,29.2345 C23.2191667,29.1495 23.7433333,29.107 24.378,29.107 L24.378,29.107 L24.378,29.345 C24.378,29.651 24.327,29.9456667 24.225,30.229 C24.123,30.5123333 23.9813333,30.7673333 23.8,30.994 C23.6186667,31.2206667 23.4005,31.402 23.1455,31.538 C22.8905,31.674 22.61,31.742 22.304,31.742 Z M31.552,33 L31.552,29.566 C31.552,28.2966667 31.7616667,27.373 32.181,26.795 C32.6003333,26.217 33.252,26.013 34.136,26.183 L34.136,26.183 L34.221,24.398 C33.8016667,24.3526667 33.4333333,24.381 33.116,24.483 C32.7986667,24.585 32.5266667,24.7323333 32.3,24.925 C32.0733333,25.1176667 31.8806667,25.3443333 31.722,25.605 C31.5633333,25.8656667 31.4386667,26.1376667 31.348,26.421 L31.348,26.421 L31.314,26.421 C31.3706667,26.0923333 31.4131667,25.758 31.4415,25.418 C31.4698333,25.078 31.484,24.789 31.484,24.551 C30.9626667,24.5283333 30.4158333,24.5283333 29.8435,24.551 C29.2711667,24.5736667 28.747,24.6133333 28.271,24.67 L28.271,24.67 L28.271,25.792 C28.5203333,25.8146667 28.7781667,25.8401667 29.0445,25.8685 C29.3108333,25.8968333 29.546,25.928 29.75,25.962 L29.75,25.962 L29.75,33 L31.552,33 Z M38.539,33.153 C38.8223333,33.153 39.1226667,33.1331667 39.44,33.0935 C39.7573333,33.0538333 40.0463333,33.0056667 40.307,32.949 L40.307,32.949 L40.154,31.487 C39.9953333,31.521 39.831,31.5493333 39.661,31.572 C39.491,31.5946667 39.3096667,31.606 39.117,31.606 C38.6976667,31.606 38.4086667,31.4955 38.25,31.2745 C38.0913333,31.0535 38.012,30.6313333 38.012,30.008 L38.012,30.008 L38.012,25.962 L40.222,25.962 L40.222,24.551 L38.012,24.551 L38.012,21.372 L36.193,21.865 L36.193,24.551 L34.578,24.551 L34.578,25.962 L36.193,25.962 L36.193,30.569 C36.193,31.045 36.2298333,31.4473333 36.3035,31.776 C36.3771667,32.1046667 36.5046667,32.371 36.686,32.575 C36.8673333,32.779 37.1081667,32.9263333 37.4085,33.017 C37.7088333,33.1076667 38.0856667,33.153 38.539,33.153 Z M49.045,33.17 C49.6683333,33.17 50.2378333,33.0538333 50.7535,32.8215 C51.2691667,32.5891667 51.7111667,32.269 52.0795,31.861 C52.4478333,31.453 52.734,30.9713333 52.938,30.416 C53.142,29.8606667 53.244,29.26 53.244,28.614 C53.244,27.866 53.1476667,27.2256667 52.955,26.693 C52.7623333,26.1603333 52.496,25.724 52.156,25.384 C51.816,25.044 51.4108333,24.7918333 50.9405,24.6275 C50.4701667,24.4631667 49.9516667,24.381 49.385,24.381 C48.739,24.381 48.1581667,24.4971667 47.6425,24.7295 C47.1268333,24.9618333 46.6848333,25.2791667 46.3165,25.6815 C45.9481667,26.0838333 45.6648333,26.5598333 45.4665,27.1095 C45.2681667,27.6591667 45.169,28.2513333 45.169,28.886 C45.169,29.634 45.2596667,30.2771667 45.441,30.8155 C45.6223333,31.3538333 45.883,31.7958333 46.223,32.1415 C46.563,32.4871667 46.971,32.745 47.447,32.915 C47.923,33.085 48.4556667,33.17 49.045,33.17 Z M49.215,31.606 C48.501,31.606 47.9626667,31.3623333 47.6,30.875 C47.2373333,30.3876667 47.056,29.6623333 47.056,28.699 C47.056,28.2116667 47.1183333,27.7923333 47.243,27.441 C47.3676667,27.0896667 47.532,26.8006667 47.736,26.574 C47.94,26.3473333 48.1723333,26.1801667 48.433,26.0725 C48.6936667,25.9648333 48.96,25.911 49.232,25.911 C49.9573333,25.911 50.4956667,26.1546667 50.847,26.642 C51.1983333,27.1293333 51.374,27.8263333 51.374,28.733 C51.374,29.2203333 51.3173333,29.6453333 51.204,30.008 C51.0906667,30.3706667 50.9348333,30.671 50.7365,30.909 C50.5381667,31.147 50.3086667,31.3226667 50.048,31.436 C49.7873333,31.5493333 49.5096667,31.606 49.215,31.606 Z M57.137,33 L57.137,28.716 L60.027,33 L62.339,33 L58.973,28.41 L62.101,24.551 L59.874,24.551 L57.137,28.172 L57.137,20.59 C56.5816667,20.5673333 56.0121667,20.5673333 55.4285,20.59 C54.8448333,20.6126667 54.315,20.6523333 53.839,20.709 L53.839,20.709 L53.839,21.831 C54.0883333,21.8536667 54.3461667,21.8791667 54.6125,21.9075 C54.8788333,21.9358333 55.114,21.967 55.318,22.001 L55.318,22.001 L55.318,33 L57.137,33 Z M66.64,33.153 C66.9233333,33.153 67.2236667,33.1331667 67.541,33.0935 C67.8583333,33.0538333 68.1473333,33.0056667 68.408,32.949 L68.408,32.949 L68.255,31.487 C68.0963333,31.521 67.932,31.5493333 67.762,31.572 C67.592,31.5946667 67.4106667,31.606 67.218,31.606 C66.7986667,31.606 66.5096667,31.4955 66.351,31.2745 C66.1923333,31.0535 66.113,30.6313333 66.113,30.008 L66.113,30.008 L66.113,25.962 L68.323,25.962 L68.323,24.551 L66.113,24.551 L66.113,21.372 L64.294,21.865 L64.294,24.551 L62.679,24.551 L62.679,25.962 L64.294,25.962 L64.294,30.569 C64.294,31.045 64.3308333,31.4473333 64.4045,31.776 C64.4781667,32.1046667 64.6056667,32.371 64.787,32.575 C64.9683333,32.779 65.2091667,32.9263333 65.5095,33.017 C65.8098333,33.1076667 66.1866667,33.153 66.64,33.153 Z M73.44,33.17 C74.0633333,33.17 74.6328333,33.0538333 75.1485,32.8215 C75.6641667,32.5891667 76.1061667,32.269 76.4745,31.861 C76.8428333,31.453 77.129,30.9713333 77.333,30.416 C77.537,29.8606667 77.639,29.26 77.639,28.614 C77.639,27.866 77.5426667,27.2256667 77.35,26.693 C77.1573333,26.1603333 76.891,25.724 76.551,25.384 C76.211,25.044 75.8058333,24.7918333 75.3355,24.6275 C74.8651667,24.4631667 74.3466667,24.381 73.78,24.381 C73.134,24.381 72.5531667,24.4971667 72.0375,24.7295 C71.5218333,24.9618333 71.0798333,25.2791667 70.7115,25.6815 C70.3431667,26.0838333 70.0598333,26.5598333 69.8615,27.1095 C69.6631667,27.6591667 69.564,28.2513333 69.564,28.886 C69.564,29.634 69.6546667,30.2771667 69.836,30.8155 C70.0173333,31.3538333 70.278,31.7958333 70.618,32.1415 C70.958,32.4871667 71.366,32.745 71.842,32.915 C72.318,33.085 72.8506667,33.17 73.44,33.17 Z M73.61,31.606 C72.896,31.606 72.3576667,31.3623333 71.995,30.875 C71.6323333,30.3876667 71.451,29.6623333 71.451,28.699 C71.451,28.2116667 71.5133333,27.7923333 71.638,27.441 C71.7626667,27.0896667 71.927,26.8006667 72.131,26.574 C72.335,26.3473333 72.5673333,26.1801667 72.828,26.0725 C73.0886667,25.9648333 73.355,25.911 73.627,25.911 C74.3523333,25.911 74.8906667,26.1546667 75.242,26.642 C75.5933333,27.1293333 75.769,27.8263333 75.769,28.733 C75.769,29.2203333 75.7123333,29.6453333 75.599,30.008 C75.4856667,30.3706667 75.3298333,30.671 75.1315,30.909 C74.9331667,31.147 74.7036667,31.3226667 74.443,31.436 C74.1823333,31.5493333 73.9046667,31.606 73.61,31.606 Z M82.722,33.136 C83.4246667,33.136 84.0536667,33.0255 84.609,32.8045 C85.1643333,32.5835 85.6346667,32.2633333 86.02,31.844 C86.4053333,31.4246667 86.7,30.9203333 86.904,30.331 C87.108,29.7416667 87.21,29.0843333 87.21,28.359 C87.21,27.0783333 86.9436667,26.0951667 86.411,25.4095 C85.8783333,24.7238333 85.1076667,24.381 84.099,24.381 C83.4756667,24.381 82.9288333,24.534 82.4585,24.84 C81.9881667,25.146 81.6396667,25.5653333 81.413,26.098 L81.413,26.098 L81.396,26.098 C81.4413333,25.8713333 81.4753333,25.6078333 81.498,25.3075 C81.5206667,25.0071667 81.532,24.7323333 81.532,24.483 L81.532,24.483 L81.532,20.59 C80.9766667,20.5673333 80.4071667,20.5673333 79.8235,20.59 C79.2398333,20.6126667 78.71,20.6523333 78.234,20.709 L78.234,20.709 L78.234,21.831 C78.4833333,21.8536667 78.7411667,21.8791667 79.0075,21.9075 C79.2738333,21.9358333 79.509,21.967 79.713,22.001 L79.713,22.001 L79.713,32.779 C80.189,32.9036667 80.6593333,32.9943333 81.124,33.051 C81.5886667,33.1076667 82.1213333,33.136 82.722,33.136 Z M82.875,31.691 C82.331,31.691 81.8833333,31.6343333 81.532,31.521 L81.532,31.521 L81.532,28.903 C81.532,28.5403333 81.5773333,28.1805 81.668,27.8235 C81.7586667,27.4665 81.8918333,27.1463333 82.0675,26.863 C82.2431667,26.5796667 82.4613333,26.3473333 82.722,26.166 C82.9826667,25.9846667 83.283,25.894 83.623,25.894 C84.201,25.894 84.626,26.1206667 84.898,26.574 C85.17,27.0273333 85.306,27.679 85.306,28.529 C85.306,29.0956667 85.2465,29.5801667 85.1275,29.9825 C85.0085,30.3848333 84.8413333,30.7135 84.626,30.9685 C84.4106667,31.2235 84.1556667,31.4076667 83.861,31.521 C83.5663333,31.6343333 83.2376667,31.691 82.875,31.691 Z M92.582,33.17 C93.1146667,33.17 93.636,33.1246667 94.146,33.034 C94.656,32.9433333 95.132,32.8073333 95.574,32.626 L95.574,32.626 L95.336,31.198 C94.9506667,31.368 94.5511667,31.4955 94.1375,31.5805 C93.7238333,31.6655 93.313,31.708 92.905,31.708 C92.055,31.708 91.4203333,31.4841667 91.001,31.0365 C90.5816667,30.5888333 90.3833333,29.8833333 90.406,28.92 L90.406,28.92 L95.795,28.92 C95.829,28.5573333 95.846,28.2626667 95.846,28.036 C95.846,27.5373333 95.7808333,27.0641667 95.6505,26.6165 C95.5201667,26.1688333 95.3133333,25.7806667 95.03,25.452 C94.7466667,25.1233333 94.3868333,24.8626667 93.9505,24.67 C93.5141667,24.4773333 92.9956667,24.381 92.395,24.381 C91.783,24.381 91.2361667,24.4943333 90.7545,24.721 C90.2728333,24.9476667 89.8676667,25.2593333 89.539,25.656 C89.2103333,26.0526667 88.961,26.523 88.791,27.067 C88.621,27.611 88.536,28.2003333 88.536,28.835 C88.536,30.331 88.8845,31.4275 89.5815,32.1245 C90.2785,32.8215 91.2786667,33.17 92.582,33.17 Z M94.027,27.662 L90.44,27.662 C90.5193333,27.0613333 90.7261667,26.5881667 91.0605,26.2425 C91.3948333,25.8968333 91.817,25.724 92.327,25.724 C92.871,25.724 93.296,25.894 93.602,26.234 C93.908,26.574 94.0496667,27.05 94.027,27.662 L94.027,27.662 Z M100.198,33 L100.198,29.566 C100.198,28.2966667 100.407667,27.373 100.827,26.795 C101.246333,26.217 101.898,26.013 102.782,26.183 L102.782,26.183 L102.867,24.398 C102.447667,24.3526667 102.079333,24.381 101.762,24.483 C101.444667,24.585 101.172667,24.7323333 100.946,24.925 C100.719333,25.1176667 100.526667,25.3443333 100.368,25.605 C100.209333,25.8656667 100.084667,26.1376667 99.994,26.421 L99.994,26.421 L99.96,26.421 C100.016667,26.0923333 100.059167,25.758 100.0875,25.418 C100.115833,25.078 100.13,24.789 100.13,24.551 C99.6086667,24.5283333 99.0618333,24.5283333 98.4895,24.551 C97.9171667,24.5736667 97.393,24.6133333 96.917,24.67 L96.917,24.67 L96.917,25.792 C97.1663333,25.8146667 97.4241667,25.8401667 97.6905,25.8685 C97.9568333,25.8968333 98.192,25.928 98.396,25.962 L98.396,25.962 L98.396,33 L100.198,33 Z M8.296,53 L8.296,51.249 L6.749,51.249 C6.035,51.249 5.39466667,51.2518333 4.828,51.2575 C4.26133333,51.2631667 3.791,51.2773333 3.417,51.3 L3.417,51.3 L3.417,51.266 L5.151,49.634 C5.695,49.1126667 6.1455,48.648 6.5025,48.24 C6.8595,47.832 7.14,47.4466667 7.344,47.084 C7.548,46.7213333 7.68966667,46.3728333 7.769,46.0385 C7.84833333,45.7041667 7.888,45.3556667 7.888,44.993 C7.888,44.5736667 7.81433333,44.1713333 7.667,43.786 C7.51966667,43.4006667 7.293,43.0578333 6.987,42.7575 C6.681,42.4571667 6.2985,42.2191667 5.8395,42.0435 C5.3805,41.8678333 4.83933333,41.78 4.216,41.78 C3.59266667,41.78 3.01183333,41.8621667 2.4735,42.0265 C1.93516667,42.1908333 1.45066667,42.3976667 1.02,42.647 L1.02,42.647 L1.428,44.245 C1.71133333,44.0296667 2.0655,43.8398333 2.4905,43.6755 C2.9155,43.5111667 3.37166667,43.429 3.859,43.429 C4.51633333,43.429 5.02066667,43.6075 5.372,43.9645 C5.72333333,44.3215 5.899,44.772 5.899,45.316 C5.899,45.5653333 5.865,45.809 5.797,46.047 C5.729,46.285 5.59016667,46.557 5.3805,46.863 C5.17083333,47.169 4.879,47.5316667 4.505,47.951 C4.131,48.3703333 3.638,48.8803333 3.026,49.481 L3.026,49.481 L0.935,51.521 L0.935,53 L8.296,53 Z M13.923,53.17 C14.4443333,53.17 14.9486667,53.0623333 15.436,52.847 C15.9233333,52.6316667 16.354,52.2916667 16.728,51.827 C17.102,51.3623333 17.4023333,50.7645 17.629,50.0335 C17.8556667,49.3025 17.969,48.4156667 17.969,47.373 C17.969,46.319 17.8783333,45.4321667 17.697,44.7125 C17.5156667,43.9928333 17.2578333,43.4176667 16.9235,42.987 C16.5891667,42.5563333 16.184,42.2475 15.708,42.0605 C15.232,41.8735 14.705,41.78 14.127,41.78 C13.5376667,41.78 12.9936667,41.8933333 12.495,42.12 C11.9963333,42.3466667 11.5656667,42.6923333 11.203,43.157 C10.8403333,43.6216667 10.5598333,44.2081667 10.3615,44.9165 C10.1631667,45.6248333 10.064,46.4606667 10.064,47.424 C10.064,48.512 10.149,49.4215 10.319,50.1525 C10.489,50.8835 10.7411667,51.4728333 11.0755,51.9205 C11.4098333,52.3681667 11.815,52.6883333 12.291,52.881 C12.767,53.0736667 13.311,53.17 13.923,53.17 Z M14.008,51.623 C13.6453333,51.623 13.3365,51.5465 13.0815,51.3935 C12.8265,51.2405 12.6196667,50.994 12.461,50.654 C12.3023333,50.314 12.189,49.872 12.121,49.328 C12.053,48.784 12.019,48.121 12.019,47.339 C12.019,46.5683333 12.07,45.928 12.172,45.418 C12.274,44.908 12.4128333,44.4943333 12.5885,44.177 C12.7641667,43.8596667 12.9738333,43.6358333 13.2175,43.5055 C13.4611667,43.3751667 13.7246667,43.31 14.008,43.31 C14.348,43.31 14.6426667,43.3751667 14.892,43.5055 C15.1413333,43.6358333 15.351,43.8596667 15.521,44.177 C15.691,44.4943333 15.8156667,44.9193333 15.895,45.452 C15.9743333,45.9846667 16.014,46.6533333 16.014,47.458 C16.014,48.9313333 15.8383333,49.9938333 15.487,50.6455 C15.1356667,51.2971667 14.6426667,51.623 14.008,51.623 Z M27.183,53 L27.183,51.368 L24.667,51.368 L24.667,41.95 L23.239,41.95 L19.873,43.123 L20.179,44.84 L22.78,43.82 L22.78,51.368 L19.907,51.368 L19.907,53 L27.183,53 Z M30.838,53.153 C31.6766667,53.153 32.4473333,53.0255 33.15,52.7705 C33.8526667,52.5155 34.4561667,52.1188333 34.9605,51.5805 C35.4648333,51.0421667 35.8558333,50.3536667 36.1335,49.515 C36.4111667,48.6763333 36.55,47.6733333 36.55,46.506 C36.55,45.69 36.4593333,44.9845 36.278,44.3895 C36.0966667,43.7945 35.836,43.3043333 35.496,42.919 C35.156,42.5336667 34.7451667,42.2475 34.2635,42.0605 C33.7818333,41.8735 33.2406667,41.78 32.64,41.78 C32.0733333,41.78 31.5491667,41.8706667 31.0675,42.052 C30.5858333,42.2333333 30.1721667,42.4911667 29.8265,42.8255 C29.4808333,43.1598333 29.2116667,43.565 29.019,44.041 C28.8263333,44.517 28.73,45.0553333 28.73,45.656 C28.73,46.132 28.8036667,46.5711667 28.951,46.9735 C29.0983333,47.3758333 29.3165,47.7243333 29.6055,48.019 C29.8945,48.3136667 30.2515,48.546 30.6765,48.716 C31.1015,48.886 31.5916667,48.971 32.147,48.971 C32.7023333,48.971 33.1953333,48.8718333 33.626,48.6735 C34.0566667,48.4751667 34.4023333,48.2003333 34.663,47.849 L34.663,47.849 L34.68,47.849 C34.6573333,47.985 34.6318333,48.1068333 34.6035,48.2145 C34.5751667,48.3221667 34.5496667,48.4496667 34.527,48.597 C34.3343333,49.5943333 33.9518333,50.3451667 33.3795,50.8495 C32.8071667,51.3538333 32.011,51.606 30.991,51.606 C30.4583333,51.606 29.9256667,51.5436667 29.393,51.419 L29.393,51.419 L29.393,53.034 C29.631,53.0906667 29.8746667,53.1246667 30.124,53.136 C30.3733333,53.1473333 30.6113333,53.153 30.838,53.153 Z M32.521,47.458 C31.8976667,47.458 31.416,47.2738333 31.076,46.9055 C30.736,46.5371667 30.566,46.03 30.566,45.384 C30.566,44.7833333 30.736,44.279 31.076,43.871 C31.416,43.463 31.892,43.259 32.504,43.259 C33.184,43.259 33.6996667,43.4715 34.051,43.8965 C34.4023333,44.3215 34.578,44.8626667 34.578,45.52 C34.578,45.7806667 34.5326667,46.0271667 34.442,46.2595 C34.3513333,46.4918333 34.2181667,46.6986667 34.0425,46.88 C33.8668333,47.0613333 33.6515,47.203 33.3965,47.305 C33.1415,47.407 32.8496667,47.458 32.521,47.458 Z M39.066,56.587 C40.018,55.091 40.6753333,53.6233333 41.038,52.184 C41.4006667,50.7446667 41.582,49.3846667 41.582,48.104 C41.582,47.458 41.5451667,46.7978333 41.4715,46.1235 C41.3978333,45.4491667 41.2675,44.7635 41.0805,44.0665 C40.8935,43.3695 40.6413333,42.6555 40.324,41.9245 C40.0066667,41.1935 39.6043333,40.4426667 39.117,39.672 L39.117,39.672 L37.74,40.318 C39.1226667,42.6866667 39.814,45.3103333 39.814,48.189 C39.814,49.583 39.6411667,50.9373333 39.2955,52.252 C38.9498333,53.5666667 38.437,54.8076667 37.757,55.975 L37.757,55.975 L39.066,56.587 Z" id="ExpeditieE(startoktober2019)" fill="#FAFAFA"></path>
                <path d="M10.32,113.6 C13.52,113.6 16.4,113.11 18.96,112.13 C21.52,111.15 23.7,109.7 25.5,107.78 C27.3,105.86 28.68,103.47 29.64,100.61 C30.6,97.75 31.08,94.44 31.08,90.68 C31.08,84.76 29.75,80.37 27.09,77.51 C24.43,74.65 20.84,73.22 16.32,73.22 C14.16,73.22 12.18,73.54 10.38,74.18 C8.58,74.82 7.03,75.76 5.73,77 C4.43,78.24 3.42,79.73 2.7,81.47 C1.98,83.21 1.62,85.2 1.62,87.44 C1.62,89.04 1.89,90.55 2.43,91.97 C2.97,93.39 3.76,94.63 4.8,95.69 C5.84,96.75 7.12,97.58 8.64,98.18 C10.16,98.78 11.92,99.08 13.92,99.08 C15.6,99.08 17.08,98.84 18.36,98.36 C19.64,97.88 20.74,97.22 21.66,96.38 L21.66,96.38 L21.72,96.38 C21.6,96.82 21.49,97.18 21.39,97.46 C21.29,97.74 21.2,98.06 21.12,98.42 C20.36,100.9 19.16,102.77 17.52,104.03 C15.88,105.29 13.62,105.92 10.74,105.92 C9.7,105.92 8.65,105.87 7.59,105.77 C6.53,105.67 5.46,105.48 4.38,105.2 L4.38,105.2 L4.38,113.18 C5.38,113.38 6.4,113.5 7.44,113.54 C8.48,113.58 9.44,113.6 10.32,113.6 Z M16.02,91.58 C14.3,91.58 12.99,91.12 12.09,90.2 C11.19,89.28 10.74,87.94 10.74,86.18 C10.74,84.66 11.18,83.36 12.06,82.28 C12.94,81.2 14.16,80.66 15.72,80.66 C17.6,80.66 18.99,81.21 19.89,82.31 C20.79,83.41 21.24,84.82 21.24,86.54 C21.24,87.94 20.79,89.13 19.89,90.11 C18.99,91.09 17.7,91.58 16.02,91.58 Z" id="9" fill="#FEFEFE"></path>
            </g>
            <g id="Group-122" transform="translate(422.000000, 3.000000)" fill-rule="nonzero">
                <path d="M3.757,13.17 C4.41433333,13.17 4.981,13.0085 5.457,12.6855 C5.933,12.3625 6.28433333,11.9403333 6.511,11.419 L6.511,11.419 L6.545,11.419 C6.49966667,11.657 6.4685,11.9233333 6.4515,12.218 C6.4345,12.5126667 6.426,12.7733333 6.426,13 C6.936,13.0226667 7.47716667,13.0226667 8.0495,13 C8.62183333,12.9773333 9.146,12.9376667 9.622,12.881 L9.622,12.881 L9.622,11.759 C9.37266667,11.7363333 9.11483333,11.7108333 8.8485,11.6825 C8.58216667,11.6541667 8.347,11.623 8.143,11.589 L8.143,11.589 L8.143,0.59 C7.58766667,0.567333333 7.021,0.567333333 6.443,0.59 C5.865,0.612666667 5.338,0.652333333 4.862,0.709 L4.862,0.709 L4.862,1.831 C5.11133333,1.85366667 5.36916667,1.87916667 5.6355,1.9075 C5.90183333,1.93583333 6.137,1.967 6.341,2.001 L6.341,2.001 L6.341,4.483 C6.11433333,4.46033333 5.89616667,4.44333333 5.6865,4.432 C5.47683333,4.42066667 5.27,4.415 5.066,4.415 C4.386,4.415 3.77116667,4.52833333 3.2215,4.755 C2.67183333,4.98166667 2.20716667,5.30183333 1.8275,5.7155 C1.44783333,6.12916667 1.156,6.63066667 0.952,7.22 C0.748,7.80933333 0.646,8.46666667 0.646,9.192 C0.646,10.4273333 0.903833333,11.3991667 1.4195,12.1075 C1.93516667,12.8158333 2.71433333,13.17 3.757,13.17 Z M4.25,11.674 C3.672,11.674 3.247,11.4445 2.975,10.9855 C2.703,10.5265 2.567,9.872 2.567,9.022 C2.567,7.87733333 2.79083333,7.06416667 3.2385,6.5825 C3.68616667,6.10083333 4.27266667,5.86 4.998,5.86 C5.44,5.86 5.88766667,5.911 6.341,6.013 L6.341,6.013 L6.341,8.631 C6.341,8.99366667 6.29566667,9.35633333 6.205,9.719 C6.11433333,10.0816667 5.97833333,10.4075 5.797,10.6965 C5.61566667,10.9855 5.3975,11.2206667 5.1425,11.402 C4.8875,11.5833333 4.59,11.674 4.25,11.674 Z M14.552,13.17 C15.0846667,13.17 15.606,13.1246667 16.116,13.034 C16.626,12.9433333 17.102,12.8073333 17.544,12.626 L17.544,12.626 L17.306,11.198 C16.9206667,11.368 16.5211667,11.4955 16.1075,11.5805 C15.6938333,11.6655 15.283,11.708 14.875,11.708 C14.025,11.708 13.3903333,11.4841667 12.971,11.0365 C12.5516667,10.5888333 12.3533333,9.88333333 12.376,8.92 L12.376,8.92 L17.765,8.92 C17.799,8.55733333 17.816,8.26266667 17.816,8.036 C17.816,7.53733333 17.7508333,7.06416667 17.6205,6.6165 C17.4901667,6.16883333 17.2833333,5.78066667 17,5.452 C16.7166667,5.12333333 16.3568333,4.86266667 15.9205,4.67 C15.4841667,4.47733333 14.9656667,4.381 14.365,4.381 C13.753,4.381 13.2061667,4.49433333 12.7245,4.721 C12.2428333,4.94766667 11.8376667,5.25933333 11.509,5.656 C11.1803333,6.05266667 10.931,6.523 10.761,7.067 C10.591,7.611 10.506,8.20033333 10.506,8.835 C10.506,10.331 10.8545,11.4275 11.5515,12.1245 C12.2485,12.8215 13.2486667,13.17 14.552,13.17 Z M15.997,7.662 L12.41,7.662 C12.4893333,7.06133333 12.6961667,6.58816667 13.0305,6.2425 C13.3648333,5.89683333 13.787,5.724 14.297,5.724 C14.841,5.724 15.266,5.894 15.572,6.234 C15.878,6.574 16.0196667,7.05 15.997,7.662 L15.997,7.662 Z M26.724,13.051 C27.608,13.051 28.339,12.9376667 28.917,12.711 C29.495,12.4843333 29.954,12.1981667 30.294,11.8525 C30.634,11.5068333 30.8748333,11.1271667 31.0165,10.7135 C31.1581667,10.2998333 31.229,9.906 31.229,9.532 C31.229,9.23733333 31.1836667,8.94833333 31.093,8.665 C31.0023333,8.38166667 30.8663333,8.121 30.685,7.883 C30.5036667,7.645 30.2741667,7.441 29.9965,7.271 C29.7188333,7.101 29.393,6.982 29.019,6.914 L29.019,6.914 L29.019,6.88 C29.6196667,6.65333333 30.0815,6.30766667 30.4045,5.843 C30.7275,5.37833333 30.889,4.85133333 30.889,4.262 C30.889,3.378 30.5745,2.69233333 29.9455,2.205 C29.3165,1.71766667 28.3843333,1.474 27.149,1.474 C26.4463333,1.474 25.789,1.47966667 25.177,1.491 C24.565,1.50233333 24.0323333,1.51366667 23.579,1.525 L23.579,1.525 L23.579,13 C24.225,13.0113333 24.8228333,13.0226667 25.3725,13.034 C25.9221667,13.0453333 26.3726667,13.051 26.724,13.051 Z M26.418,6.404 L25.8995,6.404 C25.7465,6.404 25.5906667,6.39833333 25.432,6.387 L25.432,6.387 L25.432,2.987 C25.6586667,2.97566667 25.8853333,2.96716667 26.112,2.9615 C26.3386667,2.95583333 26.5766667,2.953 26.826,2.953 C27.6306667,2.953 28.1831667,3.10316667 28.4835,3.4035 C28.7838333,3.70383333 28.934,4.08633333 28.934,4.551 C28.934,5.129 28.73,5.58233333 28.322,5.911 C27.914,6.23966667 27.2793333,6.404 26.418,6.404 L26.418,6.404 Z M26.792,11.538 C26.4973333,11.538 26.2338333,11.5295 26.0015,11.5125 C25.7691667,11.4955 25.5793333,11.4756667 25.432,11.453 L25.432,11.453 L25.432,7.798 C25.5566667,7.78666667 25.738,7.781 25.976,7.781 L25.976,7.781 L26.469,7.781 C26.877,7.781 27.251,7.81216667 27.591,7.8745 C27.931,7.93683333 28.2228333,8.03883333 28.4665,8.1805 C28.7101667,8.32216667 28.9028333,8.50633333 29.0445,8.733 C29.1861667,8.95966667 29.257,9.23733333 29.257,9.566 C29.257,10.144 29.0586667,10.6171667 28.662,10.9855 C28.2653333,11.3538333 27.642,11.538 26.792,11.538 Z M34.731,3.055 C35.0596667,3.055 35.3373333,2.9445 35.564,2.7235 C35.7906667,2.5025 35.904,2.23333333 35.904,1.916 C35.904,1.59866667 35.7906667,1.3295 35.564,1.1085 C35.3373333,0.8875 35.0596667,0.777 34.731,0.777 C34.4136667,0.777 34.1416667,0.8875 33.915,1.1085 C33.6883333,1.3295 33.575,1.59866667 33.575,1.916 C33.575,2.24466667 33.6883333,2.51666667 33.915,2.732 C34.1416667,2.94733333 34.4136667,3.055 34.731,3.055 Z M35.632,13 L35.632,4.551 C35.0766667,4.52833333 34.51,4.52833333 33.932,4.551 C33.354,4.57366667 32.827,4.61333333 32.351,4.67 L32.351,4.67 L32.351,5.792 C32.6003333,5.81466667 32.8581667,5.84016667 33.1245,5.8685 C33.3908333,5.89683333 33.626,5.928 33.83,5.962 L33.83,5.962 L33.83,13 L35.632,13 Z M41.395,13.136 C42.0976667,13.136 42.7266667,13.0255 43.282,12.8045 C43.8373333,12.5835 44.3076667,12.2633333 44.693,11.844 C45.0783333,11.4246667 45.373,10.9203333 45.577,10.331 C45.781,9.74166667 45.883,9.08433333 45.883,8.359 C45.883,7.07833333 45.6166667,6.09516667 45.084,5.4095 C44.5513333,4.72383333 43.7806667,4.381 42.772,4.381 C42.1486667,4.381 41.6018333,4.534 41.1315,4.84 C40.6611667,5.146 40.3126667,5.56533333 40.086,6.098 L40.086,6.098 L40.069,6.098 C40.1143333,5.87133333 40.1483333,5.60783333 40.171,5.3075 C40.1936667,5.00716667 40.205,4.73233333 40.205,4.483 L40.205,4.483 L40.205,0.59 C39.6496667,0.567333333 39.0801667,0.567333333 38.4965,0.59 C37.9128333,0.612666667 37.383,0.652333333 36.907,0.709 L36.907,0.709 L36.907,1.831 C37.1563333,1.85366667 37.4141667,1.87916667 37.6805,1.9075 C37.9468333,1.93583333 38.182,1.967 38.386,2.001 L38.386,2.001 L38.386,12.779 C38.862,12.9036667 39.3323333,12.9943333 39.797,13.051 C40.2616667,13.1076667 40.7943333,13.136 41.395,13.136 Z M41.548,11.691 C41.004,11.691 40.5563333,11.6343333 40.205,11.521 L40.205,11.521 L40.205,8.903 C40.205,8.54033333 40.2503333,8.1805 40.341,7.8235 C40.4316667,7.4665 40.5648333,7.14633333 40.7405,6.863 C40.9161667,6.57966667 41.1343333,6.34733333 41.395,6.166 C41.6556667,5.98466667 41.956,5.894 42.296,5.894 C42.874,5.894 43.299,6.12066667 43.571,6.574 C43.843,7.02733333 43.979,7.679 43.979,8.529 C43.979,9.09566667 43.9195,9.58016667 43.8005,9.9825 C43.6815,10.3848333 43.5143333,10.7135 43.299,10.9685 C43.0836667,11.2235 42.8286667,11.4076667 42.534,11.521 C42.2393333,11.6343333 41.9106667,11.691 41.548,11.691 Z M49.81,13 L49.81,0.59 C49.2546667,0.567333333 48.6851667,0.567333333 48.1015,0.59 C47.5178333,0.612666667 46.988,0.652333333 46.512,0.709 L46.512,0.709 L46.512,1.831 C46.7613333,1.85366667 47.0191667,1.87916667 47.2855,1.9075 C47.5518333,1.93583333 47.787,1.967 47.991,2.001 L47.991,2.001 L47.991,13 L49.81,13 Z M53.856,3.055 C54.1846667,3.055 54.4623333,2.9445 54.689,2.7235 C54.9156667,2.5025 55.029,2.23333333 55.029,1.916 C55.029,1.59866667 54.9156667,1.3295 54.689,1.1085 C54.4623333,0.8875 54.1846667,0.777 53.856,0.777 C53.5386667,0.777 53.2666667,0.8875 53.04,1.1085 C52.8133333,1.3295 52.7,1.59866667 52.7,1.916 C52.7,2.24466667 52.8133333,2.51666667 53.04,2.732 C53.2666667,2.94733333 53.5386667,3.055 53.856,3.055 Z M54.757,13 L54.757,4.551 C54.2016667,4.52833333 53.635,4.52833333 53.057,4.551 C52.479,4.57366667 51.952,4.61333333 51.476,4.67 L51.476,4.67 L51.476,5.792 C51.7253333,5.81466667 51.9831667,5.84016667 52.2495,5.8685 C52.5158333,5.89683333 52.751,5.928 52.955,5.962 L52.955,5.962 L52.955,13 L54.757,13 Z M60.571,13.17 C61.1943333,13.17 61.7638333,13.0538333 62.2795,12.8215 C62.7951667,12.5891667 63.2371667,12.269 63.6055,11.861 C63.9738333,11.453 64.26,10.9713333 64.464,10.416 C64.668,9.86066667 64.77,9.26 64.77,8.614 C64.77,7.866 64.6736667,7.22566667 64.481,6.693 C64.2883333,6.16033333 64.022,5.724 63.682,5.384 C63.342,5.044 62.9368333,4.79183333 62.4665,4.6275 C61.9961667,4.46316667 61.4776667,4.381 60.911,4.381 C60.265,4.381 59.6841667,4.49716667 59.1685,4.7295 C58.6528333,4.96183333 58.2108333,5.27916667 57.8425,5.6815 C57.4741667,6.08383333 57.1908333,6.55983333 56.9925,7.1095 C56.7941667,7.65916667 56.695,8.25133333 56.695,8.886 C56.695,9.634 56.7856667,10.2771667 56.967,10.8155 C57.1483333,11.3538333 57.409,11.7958333 57.749,12.1415 C58.089,12.4871667 58.497,12.745 58.973,12.915 C59.449,13.085 59.9816667,13.17 60.571,13.17 Z M60.741,11.606 C60.027,11.606 59.4886667,11.3623333 59.126,10.875 C58.7633333,10.3876667 58.582,9.66233333 58.582,8.699 C58.582,8.21166667 58.6443333,7.79233333 58.769,7.441 C58.8936667,7.08966667 59.058,6.80066667 59.262,6.574 C59.466,6.34733333 59.6983333,6.18016667 59.959,6.0725 C60.2196667,5.96483333 60.486,5.911 60.758,5.911 C61.4833333,5.911 62.0216667,6.15466667 62.373,6.642 C62.7243333,7.12933333 62.9,7.82633333 62.9,8.733 C62.9,9.22033333 62.8433333,9.64533333 62.73,10.008 C62.6166667,10.3706667 62.4608333,10.671 62.2625,10.909 C62.0641667,11.147 61.8346667,11.3226667 61.574,11.436 C61.3133333,11.5493333 61.0356667,11.606 60.741,11.606 Z M69.445,13.153 C69.7283333,13.153 70.0286667,13.1331667 70.346,13.0935 C70.6633333,13.0538333 70.9523333,13.0056667 71.213,12.949 L71.213,12.949 L71.06,11.487 C70.9013333,11.521 70.737,11.5493333 70.567,11.572 C70.397,11.5946667 70.2156667,11.606 70.023,11.606 C69.6036667,11.606 69.3146667,11.4955 69.156,11.2745 C68.9973333,11.0535 68.918,10.6313333 68.918,10.008 L68.918,10.008 L68.918,5.962 L71.128,5.962 L71.128,4.551 L68.918,4.551 L68.918,1.372 L67.099,1.865 L67.099,4.551 L65.484,4.551 L65.484,5.962 L67.099,5.962 L67.099,10.569 C67.099,11.045 67.1358333,11.4473333 67.2095,11.776 C67.2831667,12.1046667 67.4106667,12.371 67.592,12.575 C67.7733333,12.779 68.0141667,12.9263333 68.3145,13.017 C68.6148333,13.1076667 68.9916667,13.153 69.445,13.153 Z M75.004,13 L75.004,8.937 C75.004,8.50633333 75.0606667,8.10683333 75.174,7.7385 C75.2873333,7.37016667 75.4403333,7.05 75.633,6.778 C75.8256667,6.506 76.058,6.29066667 76.33,6.132 C76.602,5.97333333 76.8966667,5.894 77.214,5.894 C77.7013333,5.894 78.0328333,6.04133333 78.2085,6.336 C78.3841667,6.63066667 78.472,7.04433333 78.472,7.577 L78.472,7.577 L78.472,13 L80.291,13 L80.291,7.084 C80.291,6.71 80.2485,6.3615 80.1635,6.0385 C80.0785,5.7155 79.9396667,5.42933333 79.747,5.18 C79.5543333,4.93066667 79.2936667,4.73516667 78.965,4.5935 C78.6363333,4.45183333 78.234,4.381 77.758,4.381 C77.0666667,4.381 76.4773333,4.53966667 75.99,4.857 C75.5026667,5.17433333 75.1343333,5.605 74.885,6.149 L74.885,6.149 L74.851,6.132 C74.9076667,5.894 74.9473333,5.61633333 74.97,5.299 C74.9926667,4.98166667 75.004,4.69266667 75.004,4.432 L75.004,4.432 L75.004,0.59 C74.4486667,0.567333333 73.8791667,0.567333333 73.2955,0.59 C72.7118333,0.612666667 72.182,0.652333333 71.706,0.709 L71.706,0.709 L71.706,1.831 C71.9553333,1.85366667 72.2131667,1.87916667 72.4795,1.9075 C72.7458333,1.93583333 72.981,1.967 73.185,2.001 L73.185,2.001 L73.185,13 L75.004,13 Z M86.309,13.17 C86.8416667,13.17 87.363,13.1246667 87.873,13.034 C88.383,12.9433333 88.859,12.8073333 89.301,12.626 L89.301,12.626 L89.063,11.198 C88.6776667,11.368 88.2781667,11.4955 87.8645,11.5805 C87.4508333,11.6655 87.04,11.708 86.632,11.708 C85.782,11.708 85.1473333,11.4841667 84.728,11.0365 C84.3086667,10.5888333 84.1103333,9.88333333 84.133,8.92 L84.133,8.92 L89.522,8.92 C89.556,8.55733333 89.573,8.26266667 89.573,8.036 C89.573,7.53733333 89.5078333,7.06416667 89.3775,6.6165 C89.2471667,6.16883333 89.0403333,5.78066667 88.757,5.452 C88.4736667,5.12333333 88.1138333,4.86266667 87.6775,4.67 C87.2411667,4.47733333 86.7226667,4.381 86.122,4.381 C85.51,4.381 84.9631667,4.49433333 84.4815,4.721 C83.9998333,4.94766667 83.5946667,5.25933333 83.266,5.656 C82.9373333,6.05266667 82.688,6.523 82.518,7.067 C82.348,7.611 82.263,8.20033333 82.263,8.835 C82.263,10.331 82.6115,11.4275 83.3085,12.1245 C84.0055,12.8215 85.0056667,13.17 86.309,13.17 Z M87.754,7.662 L84.167,7.662 C84.2463333,7.06133333 84.4531667,6.58816667 84.7875,6.2425 C85.1218333,5.89683333 85.544,5.724 86.054,5.724 C86.598,5.724 87.023,5.894 87.329,6.234 C87.635,6.574 87.7766667,7.05 87.754,7.662 L87.754,7.662 Z M94.996,13.17 C95.5286667,13.17 96.05,13.1246667 96.56,13.034 C97.07,12.9433333 97.546,12.8073333 97.988,12.626 L97.988,12.626 L97.75,11.198 C97.3646667,11.368 96.9651667,11.4955 96.5515,11.5805 C96.1378333,11.6655 95.727,11.708 95.319,11.708 C94.469,11.708 93.8343333,11.4841667 93.415,11.0365 C92.9956667,10.5888333 92.7973333,9.88333333 92.82,8.92 L92.82,8.92 L98.209,8.92 C98.243,8.55733333 98.26,8.26266667 98.26,8.036 C98.26,7.53733333 98.1948333,7.06416667 98.0645,6.6165 C97.9341667,6.16883333 97.7273333,5.78066667 97.444,5.452 C97.1606667,5.12333333 96.8008333,4.86266667 96.3645,4.67 C95.9281667,4.47733333 95.4096667,4.381 94.809,4.381 C94.197,4.381 93.6501667,4.49433333 93.1685,4.721 C92.6868333,4.94766667 92.2816667,5.25933333 91.953,5.656 C91.6243333,6.05266667 91.375,6.523 91.205,7.067 C91.035,7.611 90.95,8.20033333 90.95,8.835 C90.95,10.331 91.2985,11.4275 91.9955,12.1245 C92.6925,12.8215 93.6926667,13.17 94.996,13.17 Z M96.441,7.662 L92.854,7.662 C92.9333333,7.06133333 93.1401667,6.58816667 93.4745,6.2425 C93.8088333,5.89683333 94.231,5.724 94.741,5.724 C95.285,5.724 95.71,5.894 96.016,6.234 C96.322,6.574 96.4636667,7.05 96.441,7.662 L96.441,7.662 Z M102.238,13 L102.238,8.716 L105.128,13 L107.44,13 L104.074,8.41 L107.202,4.551 L104.975,4.551 L102.238,8.172 L102.238,0.59 C101.682667,0.567333333 101.113167,0.567333333 100.5295,0.59 C99.9458333,0.612666667 99.416,0.652333333 98.94,0.709 L98.94,0.709 L98.94,1.831 C99.1893333,1.85366667 99.4471667,1.87916667 99.7135,1.9075 C99.9798333,1.93583333 100.215,1.967 100.419,2.001 L100.419,2.001 L100.419,13 L102.238,13 Z M5.661,33 L7.599,25.877 C7.79166667,25.1516667 7.92766667,24.4433333 8.007,23.752 L8.007,23.752 L8.024,23.752 C8.08066667,24.1146667 8.143,24.4773333 8.211,24.84 C8.279,25.2026667 8.364,25.5596667 8.466,25.911 L8.466,25.911 L10.421,33 L12.699,33 L15.674,21.525 L13.821,21.525 L12.036,28.699 C11.9453333,29.0163333 11.8688333,29.3393333 11.8065,29.668 C11.7441667,29.9966667 11.6846667,30.3423333 11.628,30.705 L11.628,30.705 L11.611,30.705 C11.5543333,30.3423333 11.4863333,29.9768333 11.407,29.6085 C11.3276667,29.2401667 11.2426667,28.903 11.152,28.597 L11.152,28.597 L9.146,21.525 L7.123,21.525 L5.168,28.58 C5.066,28.9313333 4.97816667,29.2883333 4.9045,29.651 C4.83083333,30.0136667 4.76566667,30.382 4.709,30.756 L4.709,30.756 L4.692,30.756 C4.63533333,30.3706667 4.573,29.9938333 4.505,29.6255 C4.437,29.2571667 4.352,28.8803333 4.25,28.495 L4.25,28.495 L2.482,21.525 L0.51,21.525 L3.485,33 L5.661,33 Z M19.278,33.17 C19.958,33.17 20.5445,33.0056667 21.0375,32.677 C21.5305,32.3483333 21.879,31.929 22.083,31.419 L22.083,31.419 L22.1,31.436 C22.066,31.6626667 22.0433333,31.912 22.032,32.184 C22.0206667,32.456 22.015,32.728 22.015,33 C22.5136667,33.0226667 23.0491667,33.0226667 23.6215,33 C24.1938333,32.9773333 24.718,32.9376667 25.194,32.881 L25.194,32.881 L25.194,31.759 C24.9446667,31.7363333 24.6868333,31.7108333 24.4205,31.6825 C24.1541667,31.6541667 23.919,31.623 23.715,31.589 L23.715,31.589 L23.715,27.237 C23.715,26.8063333 23.664,26.4153333 23.562,26.064 C23.46,25.7126667 23.2843333,25.4123333 23.035,25.163 C22.7856667,24.9136667 22.4456667,24.721 22.015,24.585 C21.5843333,24.449 21.046,24.381 20.4,24.381 C19.8673333,24.381 19.3403333,24.432 18.819,24.534 C18.2976667,24.636 17.8273333,24.7663333 17.408,24.925 L17.408,24.925 L17.663,26.421 C18.003,26.2396667 18.3996667,26.0923333 18.853,25.979 C19.3063333,25.8656667 19.7313333,25.809 20.128,25.809 C20.7966667,25.809 21.2585,25.9421667 21.5135,26.2085 C21.7685,26.4748333 21.896,26.8743333 21.896,27.407 L21.896,27.407 L21.896,27.883 C21.1366667,27.883 20.451,27.951 19.839,28.087 C19.227,28.223 18.7028333,28.4185 18.2665,28.6735 C17.8301667,28.9285 17.4958333,29.243 17.2635,29.617 C17.0311667,29.991 16.915,30.416 16.915,30.892 C16.915,31.5833333 17.1275,32.1358333 17.5525,32.5495 C17.9775,32.9631667 18.5526667,33.17 19.278,33.17 Z M19.822,31.742 C19.4593333,31.742 19.176,31.6343333 18.972,31.419 C18.768,31.2036667 18.666,30.9316667 18.666,30.603 C18.666,30.4103333 18.7141667,30.2233333 18.8105,30.042 C18.9068333,29.8606667 19.0796667,29.702 19.329,29.566 C19.5783333,29.43 19.9098333,29.3195 20.3235,29.2345 C20.7371667,29.1495 21.2613333,29.107 21.896,29.107 L21.896,29.107 L21.896,29.345 C21.896,29.651 21.845,29.9456667 21.743,30.229 C21.641,30.5123333 21.4993333,30.7673333 21.318,30.994 C21.1366667,31.2206667 20.9185,31.402 20.6635,31.538 C20.4085,31.674 20.128,31.742 19.822,31.742 Z M28.543,33.17 C29.223,33.17 29.8095,33.0056667 30.3025,32.677 C30.7955,32.3483333 31.144,31.929 31.348,31.419 L31.348,31.419 L31.365,31.436 C31.331,31.6626667 31.3083333,31.912 31.297,32.184 C31.2856667,32.456 31.28,32.728 31.28,33 C31.7786667,33.0226667 32.3141667,33.0226667 32.8865,33 C33.4588333,32.9773333 33.983,32.9376667 34.459,32.881 L34.459,32.881 L34.459,31.759 C34.2096667,31.7363333 33.9518333,31.7108333 33.6855,31.6825 C33.4191667,31.6541667 33.184,31.623 32.98,31.589 L32.98,31.589 L32.98,27.237 C32.98,26.8063333 32.929,26.4153333 32.827,26.064 C32.725,25.7126667 32.5493333,25.4123333 32.3,25.163 C32.0506667,24.9136667 31.7106667,24.721 31.28,24.585 C30.8493333,24.449 30.311,24.381 29.665,24.381 C29.1323333,24.381 28.6053333,24.432 28.084,24.534 C27.5626667,24.636 27.0923333,24.7663333 26.673,24.925 L26.673,24.925 L26.928,26.421 C27.268,26.2396667 27.6646667,26.0923333 28.118,25.979 C28.5713333,25.8656667 28.9963333,25.809 29.393,25.809 C30.0616667,25.809 30.5235,25.9421667 30.7785,26.2085 C31.0335,26.4748333 31.161,26.8743333 31.161,27.407 L31.161,27.407 L31.161,27.883 C30.4016667,27.883 29.716,27.951 29.104,28.087 C28.492,28.223 27.9678333,28.4185 27.5315,28.6735 C27.0951667,28.9285 26.7608333,29.243 26.5285,29.617 C26.2961667,29.991 26.18,30.416 26.18,30.892 C26.18,31.5833333 26.3925,32.1358333 26.8175,32.5495 C27.2425,32.9631667 27.8176667,33.17 28.543,33.17 Z M29.087,31.742 C28.7243333,31.742 28.441,31.6343333 28.237,31.419 C28.033,31.2036667 27.931,30.9316667 27.931,30.603 C27.931,30.4103333 27.9791667,30.2233333 28.0755,30.042 C28.1718333,29.8606667 28.3446667,29.702 28.594,29.566 C28.8433333,29.43 29.1748333,29.3195 29.5885,29.2345 C30.0021667,29.1495 30.5263333,29.107 31.161,29.107 L31.161,29.107 L31.161,29.345 C31.161,29.651 31.11,29.9456667 31.008,30.229 C30.906,30.5123333 30.7643333,30.7673333 30.583,30.994 C30.4016667,31.2206667 30.1835,31.402 29.9285,31.538 C29.6735,31.674 29.393,31.742 29.087,31.742 Z M37.961,33 L37.961,20.59 C37.4056667,20.5673333 36.8361667,20.5673333 36.2525,20.59 C35.6688333,20.6126667 35.139,20.6523333 34.663,20.709 L34.663,20.709 L34.663,21.831 C34.9123333,21.8536667 35.1701667,21.8791667 35.4365,21.9075 C35.7028333,21.9358333 35.938,21.967 36.142,22.001 L36.142,22.001 L36.142,33 L37.961,33 Z M42.908,33 L42.908,29.566 C42.908,28.2966667 43.1176667,27.373 43.537,26.795 C43.9563333,26.217 44.608,26.013 45.492,26.183 L45.492,26.183 L45.577,24.398 C45.1576667,24.3526667 44.7893333,24.381 44.472,24.483 C44.1546667,24.585 43.8826667,24.7323333 43.656,24.925 C43.4293333,25.1176667 43.2366667,25.3443333 43.078,25.605 C42.9193333,25.8656667 42.7946667,26.1376667 42.704,26.421 L42.704,26.421 L42.67,26.421 C42.7266667,26.0923333 42.7691667,25.758 42.7975,25.418 C42.8258333,25.078 42.84,24.789 42.84,24.551 C42.3186667,24.5283333 41.7718333,24.5283333 41.1995,24.551 C40.6271667,24.5736667 40.103,24.6133333 39.627,24.67 L39.627,24.67 L39.627,25.792 C39.8763333,25.8146667 40.1341667,25.8401667 40.4005,25.8685 C40.6668333,25.8968333 40.902,25.928 41.106,25.962 L41.106,25.962 L41.106,33 L42.908,33 Z M50.558,33.17 C51.0906667,33.17 51.612,33.1246667 52.122,33.034 C52.632,32.9433333 53.108,32.8073333 53.55,32.626 L53.55,32.626 L53.312,31.198 C52.9266667,31.368 52.5271667,31.4955 52.1135,31.5805 C51.6998333,31.6655 51.289,31.708 50.881,31.708 C50.031,31.708 49.3963333,31.4841667 48.977,31.0365 C48.5576667,30.5888333 48.3593333,29.8833333 48.382,28.92 L48.382,28.92 L53.771,28.92 C53.805,28.5573333 53.822,28.2626667 53.822,28.036 C53.822,27.5373333 53.7568333,27.0641667 53.6265,26.6165 C53.4961667,26.1688333 53.2893333,25.7806667 53.006,25.452 C52.7226667,25.1233333 52.3628333,24.8626667 51.9265,24.67 C51.4901667,24.4773333 50.9716667,24.381 50.371,24.381 C49.759,24.381 49.2121667,24.4943333 48.7305,24.721 C48.2488333,24.9476667 47.8436667,25.2593333 47.515,25.656 C47.1863333,26.0526667 46.937,26.523 46.767,27.067 C46.597,27.611 46.512,28.2003333 46.512,28.835 C46.512,30.331 46.8605,31.4275 47.5575,32.1245 C48.2545,32.8215 49.2546667,33.17 50.558,33.17 Z M52.003,27.662 L48.416,27.662 C48.4953333,27.0613333 48.7021667,26.5881667 49.0365,26.2425 C49.3708333,25.8968333 49.793,25.724 50.303,25.724 C50.847,25.724 51.272,25.894 51.578,26.234 C51.884,26.574 52.0256667,27.05 52.003,27.662 L52.003,27.662 Z" id="deBibliotheekWaalre" fill="#FAFAFA"></path>
                <path d="M30.6,93 L30.6,84.78 L22.5,84.78 L22.5,54 L15.54,54 L3.42,58.02 L4.86,66.72 L12.96,63.54 L12.96,84.78 L3.6,84.78 L3.6,93 L30.6,93 Z M63.6,93 L63.6,84.78 L55.5,84.78 L55.5,54 L48.54,54 L36.42,58.02 L37.86,66.72 L45.96,63.54 L45.96,84.78 L36.6,84.78 L36.6,93 L63.6,93 Z" id="11" fill="#FEFEFE"></path>
            </g>
            <g id="Deelnemers-wekelijks-Taalcafe" transform="translate(168.000000, 31.000000)">
                <g id="Group-11">
                    <path d="M103.4203,103.5077 L169.0903,183.2697 C125.0393,219.5377 59.9273,213.2297 23.6583,169.1777 C-12.6097,125.1267 -6.3007,60.0147 37.7503,23.7457 C74.0043,-6.1023 125.2523,-7.8613 163.4673,19.4317 L103.4203,103.5077 Z" id="Fill-1" fill="#6DD2A1"></path>
                    <path d="M103.4203,103.5077 L169.0903,183.2697 C125.0393,219.5377 59.9273,213.2297 23.6583,169.1777 C-12.6097,125.1267 -6.3007,60.0147 37.7503,23.7457 C74.0043,-6.1023 125.2523,-7.8613 163.4673,19.4317 L103.4203,103.5077 Z" id="Stroke-3" stroke="#14C57E" stroke-width="2.2" stroke-linecap="round" stroke-linejoin="round"></path>
                    <path d="M103.4203,103.5077 L206.5413,109.8767 C204.6803,140.0047 192.3933,164.0827 169.0903,183.2697 L103.4203,103.5077 Z" id="Stroke-5" stroke="#14C57E" stroke-width="2.2" stroke-linecap="round" stroke-linejoin="round"></path>
                    <path d="M103.4203,103.5077 L163.4673,19.4317 C193.5093,40.8887 208.8173,73.0287 206.5413,109.8767 L103.4203,103.5077 Z" id="Fill-7" fill="#8BD6B3"></path>
                    <path d="M103.4203,103.5077 L163.4673,19.4317 C193.5093,40.8887 208.8173,73.0287 206.5413,109.8767 L103.4203,103.5077 Z" id="Stroke-9" stroke="#14C57E" stroke-width="2.2" stroke-linecap="round" stroke-linejoin="round"></path>
                </g>
            </g>
        </g>
    </g>
</svg>