<?xml version="1.0" encoding="UTF-8"?>
<svg width="542px" height="139px" viewBox="0 0 542 139" version="1.1" xmlns="http://www.w3.org/2000/svg" xmlns:xlink="http://www.w3.org/1999/xlink">
    <!-- Generator: Sketch 62 (91390) - https://sketch.com -->
    <title>Page 1</title>
    <desc>Created with Sketch.</desc>
    <g id="Page-1" stroke="none" stroke-width="1" fill="none" fill-rule="evenodd">
        <g id="Jaar-In-Beeld" transform="translate(-750.000000, -5642.000000)">
            <g id="Group-115" transform="translate(750.000000, 5594.000000)"></g>
            <g id="Group-8" transform="translate(750.000000, 5642.000000)">
                <g id="Feiten_en_cijfers_aantal_betaalde_abo" transform="translate(2.000000, 28.000000)">
                    <g id="Group-13">
                        <path d="M17.4129,31.1249766 L17.4129,31.1249766 C27.0319,31.0673 34.8769,38.8183 34.9352346,48.4373 C34.9939,58.0573 27.2429,65.9023 17.6229,65.9606346 C8.0039,66.0193 0.1589,58.2673 0.100565396,48.6473 C0.0419,39.0283 7.7929,31.1833 17.4129,31.1249766" id="Fill-1" fill="#F288AE"></path>
                        <path d="M17.4129,31.1249766 L17.4129,31.1249766 C27.0319,31.0673 34.8769,38.8183 34.9352346,48.4373 C34.9939,58.0573 27.2429,65.9023 17.6229,65.9606346 C8.0039,66.0193 0.1589,58.2673 0.100565396,48.6473 C0.0419,39.0283 7.7929,31.1833 17.4129,31.1249766 Z" id="Stroke-3" stroke="#F41E6B" stroke-width="2.2" stroke-linecap="round" stroke-linejoin="round"></path>
                        <path d="M222.9124,0.100058214 L222.9124,0.100058214 C247.9614,-0.0501 268.3904,20.1329 268.541242,45.1819 C268.6914,70.2309 248.5084,90.6589 223.4604,90.8107418 C198.4114,90.9609 177.9824,70.7779 177.830558,45.7289 C177.6804,20.6809 197.8634,0.2519 222.9124,0.100058214" id="Fill-5" fill="#F288AE"></path>
                        <path d="M222.9124,0.100058214 L222.9124,0.100058214 C247.9614,-0.0501 268.3904,20.1329 268.541242,45.1819 C268.6914,70.2309 248.5084,90.6589 223.4604,90.8107418 C198.4114,90.9609 177.9824,70.7779 177.830558,45.7289 C177.6804,20.6809 197.8634,0.2519 222.9124,0.100058214 Z" id="Stroke-7" stroke="#F41E6B" stroke-width="2.2" stroke-linecap="round" stroke-linejoin="round"></path>
                        <path d="M426.5315,30.7079546 L426.5315,30.7079546 C436.8235,30.6463 445.2175,38.9383 445.278857,49.2293 C445.3415,59.5213 437.0485,67.9153 426.7575,67.9776454 C416.4655,68.0393 408.0715,59.7463 408.010143,49.4553 C407.9475,39.1633 416.2405,30.7703 426.5315,30.7079546" id="Fill-9" fill="#F288AE"></path>
                        <path d="M426.5315,30.7079546 L426.5315,30.7079546 C436.8235,30.6463 445.2175,38.9383 445.278857,49.2293 C445.3415,59.5213 437.0485,67.9153 426.7575,67.9776454 C416.4655,68.0393 408.0715,59.7463 408.010143,49.4553 C407.9475,39.1633 416.2405,30.7703 426.5315,30.7079546 Z" id="Stroke-11" stroke="#F41E6B" stroke-width="2.2" stroke-linecap="round" stroke-linejoin="round"></path>
                    </g>
                </g>
                <rect id="Rectangle" fill-opacity="0" fill="#D8D8D8" x="0" y="0" width="542" height="139"></rect>
            </g>
        </g>
    </g>
</svg>