<?xml version="1.0" encoding="UTF-8"?>
<svg width="542px" height="139px" viewBox="0 0 542 139" version="1.1" xmlns="http://www.w3.org/2000/svg" xmlns:xlink="http://www.w3.org/1999/xlink">
    <!-- Generator: Sketch 62 (91390) - https://sketch.com -->
    <title>Page 1</title>
    <desc>Created with Sketch.</desc>
    <g id="Page-1" stroke="none" stroke-width="1" fill="none" fill-rule="evenodd">
        <g id="Jaar-In-Beeld" transform="translate(-750.000000, -6162.000000)">
            <g id="Group-117" transform="translate(751.000000, 6104.000000)"></g>
            <rect id="Rectangle-Copy-12" fill-opacity="0" fill="#D8D8D8" x="750" y="6162" width="542" height="139"></rect>
            <g id="Feiten_en_cijfers_aantal_nieuwe_ledenleden" transform="translate(751.000000, 6183.000000)">
                <g id="Group-13">
                    <path d="M45.4554,0.0999582136 L45.1824,0.0999582136 C70.2304,-0.0502 90.6594,20.1328 90.8112418,45.1818 C90.9614,70.2308 70.7784,90.6598 45.7294,90.8116308 C20.6804,90.9608 0.2524,70.7788 0.099558255,45.7298 C-0.0506,20.6808 20.1334,0.2518 45.1824,0.0999582136 L45.4554,0.0999582136 Z" id="Fill-1" fill="#F288AE"></path>
                    <path d="M45.4554,0.0999582136 L45.1824,0.0999582136 C70.2304,-0.0502 90.6594,20.1328 90.8112418,45.1818 C90.9614,70.2308 70.7784,90.6598 45.7294,90.8116308 C20.6804,90.9608 0.2524,70.7788 0.099558255,45.7298 C-0.0506,20.6808 20.1334,0.2518 45.1824,0.0999582136 L45.4554,0.0999582136 Z" id="Stroke-3" stroke="#F41E6B" stroke-width="2.2" stroke-linecap="round" stroke-linejoin="round"></path>
                    <path d="M233.6131,33.1981508 L233.5301,33.1981508 C241.0461,33.1534 247.1751,39.2084 247.22036,46.7234 C247.2661,54.2384 241.2101,60.3674 233.6951,60.4136492 C226.1801,60.4584 220.0511,54.4034 220.00584,46.8874 C219.9601,39.3734 226.0151,33.2444 233.5301,33.1981508 L233.6131,33.1981508 Z" id="Fill-5" fill="#F288AE"></path>
                    <path d="M233.6131,33.1981508 L233.5301,33.1981508 C241.0461,33.1534 247.1751,39.2084 247.22036,46.7234 C247.2661,54.2384 241.2101,60.3674 233.6951,60.4136492 C226.1801,60.4584 220.0511,54.4034 220.00584,46.8874 C219.9601,39.3734 226.0151,33.2444 233.5301,33.1981508 L233.6131,33.1981508 Z" id="Stroke-7" stroke="#F41E6B" stroke-width="2.2" stroke-linecap="round" stroke-linejoin="round"></path>
                    <path d="M418.3772,34.4746124 L418.3152,34.4746124 C424.0152,34.4408 428.6642,39.0338 428.698388,44.7348 C428.7322,50.4348 424.1402,55.0828 418.4392,55.1179987 C412.7392,55.1528 408.0902,50.5588 408.056012,44.8588 C408.0222,39.1588 412.6142,34.5088 418.3152,34.4746124 L418.3772,34.4746124 Z" id="Fill-9" fill="#F288AE"></path>
                    <path d="M418.3772,34.4746124 L418.3152,34.4746124 C424.0152,34.4408 428.6642,39.0338 428.698388,44.7348 C428.7322,50.4348 424.1402,55.0828 418.4392,55.1179987 C412.7392,55.1528 408.0902,50.5588 408.056012,44.8588 C408.0222,39.1588 412.6142,34.5088 418.3152,34.4746124 L418.3772,34.4746124 Z" id="Stroke-11" stroke="#F41E6B" stroke-width="2.2" stroke-linecap="round" stroke-linejoin="round"></path>
                </g>
            </g>
        </g>
    </g>
</svg>