<?xml version="1.0" encoding="UTF-8"?>
<svg width="542px" height="248px" viewBox="0 0 542 248" version="1.1" xmlns="http://www.w3.org/2000/svg" xmlns:xlink="http://www.w3.org/1999/xlink">
    <!-- Generator: Sketch 62 (91390) - https://sketch.com -->
    <title>Page 1</title>
    <desc>Created with Sketch.</desc>
    <g id="Page-1" stroke="none" stroke-width="1" fill="none" fill-rule="evenodd">
        <g id="Jaar-In-Beeld" transform="translate(-750.000000, -4407.000000)">
            <g id="Group-3" transform="translate(750.000000, 4407.000000)">
                <g id="Group-56" transform="translate(1.000000, 91.000000)" fill-rule="nonzero">
                    <path d="M4.247,68 L4.247,63.716 L7.137,68 L9.449,68 L6.083,63.41 L9.211,59.551 L6.984,59.551 L4.247,63.172 L4.247,55.59 C3.69166667,55.5673333 3.12216667,55.5673333 2.5385,55.59 C1.95483333,55.6126667 1.425,55.6523333 0.949,55.709 L0.949,55.709 L0.949,56.831 C1.19833333,56.8536667 1.45616667,56.8791667 1.7225,56.9075 C1.98883333,56.9358333 2.224,56.967 2.428,57.001 L2.428,57.001 L2.428,68 L4.247,68 Z M12.441,58.055 C12.7696667,58.055 13.0473333,57.9445 13.274,57.7235 C13.5006667,57.5025 13.614,57.2333333 13.614,56.916 C13.614,56.5986667 13.5006667,56.3295 13.274,56.1085 C13.0473333,55.8875 12.7696667,55.777 12.441,55.777 C12.1236667,55.777 11.8516667,55.8875 11.625,56.1085 C11.3983333,56.3295 11.285,56.5986667 11.285,56.916 C11.285,57.2446667 11.3983333,57.5166667 11.625,57.732 C11.8516667,57.9473333 12.1236667,58.055 12.441,58.055 Z M13.342,68 L13.342,59.551 C12.7866667,59.5283333 12.22,59.5283333 11.642,59.551 C11.064,59.5736667 10.537,59.6133333 10.061,59.67 L10.061,59.67 L10.061,60.792 C10.3103333,60.8146667 10.5681667,60.8401667 10.8345,60.8685 C11.1008333,60.8968333 11.336,60.928 11.54,60.962 L11.54,60.962 L11.54,68 L13.342,68 Z M18.289,68 L18.289,63.937 C18.289,63.5063333 18.3456667,63.1068333 18.459,62.7385 C18.5723333,62.3701667 18.7281667,62.05 18.9265,61.778 C19.1248333,61.506 19.3571667,61.2906667 19.6235,61.132 C19.8898333,60.9733333 20.1816667,60.894 20.499,60.894 C20.9976667,60.894 21.3348333,61.0413333 21.5105,61.336 C21.6861667,61.6306667 21.774,62.0443333 21.774,62.577 L21.774,62.577 L21.774,68 L23.576,68 L23.576,62.084 C23.576,61.71 23.5335,61.3615 23.4485,61.0385 C23.3635,60.7155 23.2246667,60.4293333 23.032,60.18 C22.8393333,59.9306667 22.5786667,59.7351667 22.25,59.5935 C21.9213333,59.4518333 21.519,59.381 21.043,59.381 C20.329,59.381 19.7255,59.551 19.2325,59.891 C18.7395,60.231 18.3683333,60.673 18.119,61.217 L18.119,61.217 L18.085,61.217 C18.1303333,60.9676667 18.1643333,60.6843333 18.187,60.367 C18.2096667,60.0496667 18.221,59.7776667 18.221,59.551 C17.6996667,59.5283333 17.1528333,59.5283333 16.5805,59.551 C16.0081667,59.5736667 15.484,59.6133333 15.008,59.67 L15.008,59.67 L15.008,60.792 C15.2573333,60.8146667 15.5151667,60.8401667 15.7815,60.8685 C16.0478333,60.8968333 16.283,60.928 16.487,60.962 L16.487,60.962 L16.487,68 L18.289,68 Z M28.659,68.17 C29.3163333,68.17 29.883,68.0085 30.359,67.6855 C30.835,67.3625 31.1863333,66.9403333 31.413,66.419 L31.413,66.419 L31.447,66.419 C31.4016667,66.657 31.3705,66.9233333 31.3535,67.218 C31.3365,67.5126667 31.328,67.7733333 31.328,68 C31.838,68.0226667 32.3791667,68.0226667 32.9515,68 C33.5238333,67.9773333 34.048,67.9376667 34.524,67.881 L34.524,67.881 L34.524,66.759 C34.2746667,66.7363333 34.0168333,66.7108333 33.7505,66.6825 C33.4841667,66.6541667 33.249,66.623 33.045,66.589 L33.045,66.589 L33.045,55.59 C32.4896667,55.5673333 31.923,55.5673333 31.345,55.59 C30.767,55.6126667 30.24,55.6523333 29.764,55.709 L29.764,55.709 L29.764,56.831 C30.0133333,56.8536667 30.2711667,56.8791667 30.5375,56.9075 C30.8038333,56.9358333 31.039,56.967 31.243,57.001 L31.243,57.001 L31.243,59.483 C31.0163333,59.4603333 30.7981667,59.4433333 30.5885,59.432 C30.3788333,59.4206667 30.172,59.415 29.968,59.415 C29.288,59.415 28.6731667,59.5283333 28.1235,59.755 C27.5738333,59.9816667 27.1091667,60.3018333 26.7295,60.7155 C26.3498333,61.1291667 26.058,61.6306667 25.854,62.22 C25.65,62.8093333 25.548,63.4666667 25.548,64.192 C25.548,65.4273333 25.8058333,66.3991667 26.3215,67.1075 C26.8371667,67.8158333 27.6163333,68.17 28.659,68.17 Z M29.152,66.674 C28.574,66.674 28.149,66.4445 27.877,65.9855 C27.605,65.5265 27.469,64.872 27.469,64.022 C27.469,62.8773333 27.6928333,62.0641667 28.1405,61.5825 C28.5881667,61.1008333 29.1746667,60.86 29.9,60.86 C30.342,60.86 30.7896667,60.911 31.243,61.013 L31.243,61.013 L31.243,63.631 C31.243,63.9936667 31.1976667,64.3563333 31.107,64.719 C31.0163333,65.0816667 30.8803333,65.4075 30.699,65.6965 C30.5176667,65.9855 30.2995,66.2206667 30.0445,66.402 C29.7895,66.5833333 29.492,66.674 29.152,66.674 Z M39.454,68.17 C39.9866667,68.17 40.508,68.1246667 41.018,68.034 C41.528,67.9433333 42.004,67.8073333 42.446,67.626 L42.446,67.626 L42.208,66.198 C41.8226667,66.368 41.4231667,66.4955 41.0095,66.5805 C40.5958333,66.6655 40.185,66.708 39.777,66.708 C38.927,66.708 38.2923333,66.4841667 37.873,66.0365 C37.4536667,65.5888333 37.2553333,64.8833333 37.278,63.92 L37.278,63.92 L42.667,63.92 C42.701,63.5573333 42.718,63.2626667 42.718,63.036 C42.718,62.5373333 42.6528333,62.0641667 42.5225,61.6165 C42.3921667,61.1688333 42.1853333,60.7806667 41.902,60.452 C41.6186667,60.1233333 41.2588333,59.8626667 40.8225,59.67 C40.3861667,59.4773333 39.8676667,59.381 39.267,59.381 C38.655,59.381 38.1081667,59.4943333 37.6265,59.721 C37.1448333,59.9476667 36.7396667,60.2593333 36.411,60.656 C36.0823333,61.0526667 35.833,61.523 35.663,62.067 C35.493,62.611 35.408,63.2003333 35.408,63.835 C35.408,65.331 35.7565,66.4275 36.4535,67.1245 C37.1505,67.8215 38.1506667,68.17 39.454,68.17 Z M40.899,62.662 L37.312,62.662 C37.3913333,62.0613333 37.5981667,61.5881667 37.9325,61.2425 C38.2668333,60.8968333 38.689,60.724 39.199,60.724 C39.743,60.724 40.168,60.894 40.474,61.234 C40.78,61.574 40.9216667,62.05 40.899,62.662 L40.899,62.662 Z M47.07,68 L47.07,64.566 C47.07,63.2966667 47.2796667,62.373 47.699,61.795 C48.1183333,61.217 48.77,61.013 49.654,61.183 L49.654,61.183 L49.739,59.398 C49.3196667,59.3526667 48.9513333,59.381 48.634,59.483 C48.3166667,59.585 48.0446667,59.7323333 47.818,59.925 C47.5913333,60.1176667 47.3986667,60.3443333 47.24,60.605 C47.0813333,60.8656667 46.9566667,61.1376667 46.866,61.421 L46.866,61.421 L46.832,61.421 C46.8886667,61.0923333 46.9311667,60.758 46.9595,60.418 C46.9878333,60.078 47.002,59.789 47.002,59.551 C46.4806667,59.5283333 45.9338333,59.5283333 45.3615,59.551 C44.7891667,59.5736667 44.265,59.6133333 43.789,59.67 L43.789,59.67 L43.789,60.792 C44.0383333,60.8146667 44.2961667,60.8401667 44.5625,60.8685 C44.8288333,60.8968333 45.064,60.928 45.268,60.962 L45.268,60.962 L45.268,68 L47.07,68 Z M54.72,68.17 C55.2526667,68.17 55.774,68.1246667 56.284,68.034 C56.794,67.9433333 57.27,67.8073333 57.712,67.626 L57.712,67.626 L57.474,66.198 C57.0886667,66.368 56.6891667,66.4955 56.2755,66.5805 C55.8618333,66.6655 55.451,66.708 55.043,66.708 C54.193,66.708 53.5583333,66.4841667 53.139,66.0365 C52.7196667,65.5888333 52.5213333,64.8833333 52.544,63.92 L52.544,63.92 L57.933,63.92 C57.967,63.5573333 57.984,63.2626667 57.984,63.036 C57.984,62.5373333 57.9188333,62.0641667 57.7885,61.6165 C57.6581667,61.1688333 57.4513333,60.7806667 57.168,60.452 C56.8846667,60.1233333 56.5248333,59.8626667 56.0885,59.67 C55.6521667,59.4773333 55.1336667,59.381 54.533,59.381 C53.921,59.381 53.3741667,59.4943333 52.8925,59.721 C52.4108333,59.9476667 52.0056667,60.2593333 51.677,60.656 C51.3483333,61.0526667 51.099,61.523 50.929,62.067 C50.759,62.611 50.674,63.2003333 50.674,63.835 C50.674,65.331 51.0225,66.4275 51.7195,67.1245 C52.4165,67.8215 53.4166667,68.17 54.72,68.17 Z M56.165,62.662 L52.578,62.662 C52.6573333,62.0613333 52.8641667,61.5881667 53.1985,61.2425 C53.5328333,60.8968333 53.955,60.724 54.465,60.724 C55.009,60.724 55.434,60.894 55.74,61.234 C56.046,61.574 56.1876667,62.05 56.165,62.662 L56.165,62.662 Z M62.336,68 L62.336,63.937 C62.336,63.5063333 62.3926667,63.1068333 62.506,62.7385 C62.6193333,62.3701667 62.7751667,62.05 62.9735,61.778 C63.1718333,61.506 63.4041667,61.2906667 63.6705,61.132 C63.9368333,60.9733333 64.2286667,60.894 64.546,60.894 C65.0446667,60.894 65.3818333,61.0413333 65.5575,61.336 C65.7331667,61.6306667 65.821,62.0443333 65.821,62.577 L65.821,62.577 L65.821,68 L67.623,68 L67.623,62.084 C67.623,61.71 67.5805,61.3615 67.4955,61.0385 C67.4105,60.7155 67.2716667,60.4293333 67.079,60.18 C66.8863333,59.9306667 66.6256667,59.7351667 66.297,59.5935 C65.9683333,59.4518333 65.566,59.381 65.09,59.381 C64.376,59.381 63.7725,59.551 63.2795,59.891 C62.7865,60.231 62.4153333,60.673 62.166,61.217 L62.166,61.217 L62.132,61.217 C62.1773333,60.9676667 62.2113333,60.6843333 62.234,60.367 C62.2566667,60.0496667 62.268,59.7776667 62.268,59.551 C61.7466667,59.5283333 61.1998333,59.5283333 60.6275,59.551 C60.0551667,59.5736667 59.531,59.6133333 59.055,59.67 L59.055,59.67 L59.055,60.792 C59.3043333,60.8146667 59.5621667,60.8401667 59.8285,60.8685 C60.0948333,60.8968333 60.33,60.928 60.534,60.962 L60.534,60.962 L60.534,68 L62.336,68 Z M77.347,68.17 C77.8796667,68.17 78.401,68.1246667 78.911,68.034 C79.421,67.9433333 79.897,67.8073333 80.339,67.626 L80.339,67.626 L80.101,66.198 C79.7156667,66.368 79.3161667,66.4955 78.9025,66.5805 C78.4888333,66.6655 78.078,66.708 77.67,66.708 C76.82,66.708 76.1853333,66.4841667 75.766,66.0365 C75.3466667,65.5888333 75.1483333,64.8833333 75.171,63.92 L75.171,63.92 L80.56,63.92 C80.594,63.5573333 80.611,63.2626667 80.611,63.036 C80.611,62.5373333 80.5458333,62.0641667 80.4155,61.6165 C80.2851667,61.1688333 80.0783333,60.7806667 79.795,60.452 C79.5116667,60.1233333 79.1518333,59.8626667 78.7155,59.67 C78.2791667,59.4773333 77.7606667,59.381 77.16,59.381 C76.548,59.381 76.0011667,59.4943333 75.5195,59.721 C75.0378333,59.9476667 74.6326667,60.2593333 74.304,60.656 C73.9753333,61.0526667 73.726,61.523 73.556,62.067 C73.386,62.611 73.301,63.2003333 73.301,63.835 C73.301,65.331 73.6495,66.4275 74.3465,67.1245 C75.0435,67.8215 76.0436667,68.17 77.347,68.17 Z M78.792,62.662 L75.205,62.662 C75.2843333,62.0613333 75.4911667,61.5881667 75.8255,61.2425 C76.1598333,60.8968333 76.582,60.724 77.092,60.724 C77.636,60.724 78.061,60.894 78.367,61.234 C78.673,61.574 78.8146667,62.05 78.792,62.662 L78.792,62.662 Z M84.963,68 L84.963,63.937 C84.963,63.5063333 85.0196667,63.1068333 85.133,62.7385 C85.2463333,62.3701667 85.4021667,62.05 85.6005,61.778 C85.7988333,61.506 86.0311667,61.2906667 86.2975,61.132 C86.5638333,60.9733333 86.8556667,60.894 87.173,60.894 C87.6716667,60.894 88.0088333,61.0413333 88.1845,61.336 C88.3601667,61.6306667 88.448,62.0443333 88.448,62.577 L88.448,62.577 L88.448,68 L90.25,68 L90.25,62.084 C90.25,61.71 90.2075,61.3615 90.1225,61.0385 C90.0375,60.7155 89.8986667,60.4293333 89.706,60.18 C89.5133333,59.9306667 89.2526667,59.7351667 88.924,59.5935 C88.5953333,59.4518333 88.193,59.381 87.717,59.381 C87.003,59.381 86.3995,59.551 85.9065,59.891 C85.4135,60.231 85.0423333,60.673 84.793,61.217 L84.793,61.217 L84.759,61.217 C84.8043333,60.9676667 84.8383333,60.6843333 84.861,60.367 C84.8836667,60.0496667 84.895,59.7776667 84.895,59.551 C84.3736667,59.5283333 83.8268333,59.5283333 83.2545,59.551 C82.6821667,59.5736667 82.158,59.6133333 81.682,59.67 L81.682,59.67 L81.682,60.792 C81.9313333,60.8146667 82.1891667,60.8401667 82.4555,60.8685 C82.7218333,60.8968333 82.957,60.928 83.161,60.962 L83.161,60.962 L83.161,68 L84.963,68 Z M3.754,78.055 C4.08266667,78.055 4.36033333,77.9445 4.587,77.7235 C4.81366667,77.5025 4.927,77.2333333 4.927,76.916 C4.927,76.5986667 4.81366667,76.3295 4.587,76.1085 C4.36033333,75.8875 4.08266667,75.777 3.754,75.777 C3.42533333,75.777 3.1505,75.8875 2.9295,76.1085 C2.7085,76.3295 2.598,76.5986667 2.598,76.916 C2.598,77.2446667 2.7085,77.5166667 2.9295,77.732 C3.1505,77.9473333 3.42533333,78.055 3.754,78.055 Z M1.578,92.267 C2.156,92.267 2.64333333,92.1933333 3.04,92.046 C3.43666667,91.8986667 3.75683333,91.6776667 4.0005,91.383 C4.24416667,91.0883333 4.417,90.7256667 4.519,90.295 C4.621,89.8643333 4.672,89.3656667 4.672,88.799 L4.672,88.799 L4.672,79.551 C4.11666667,79.5283333 3.54716667,79.5283333 2.9635,79.551 C2.37983333,79.5736667 1.85,79.6133333 1.374,79.67 L1.374,79.67 L1.374,80.792 C1.62333333,80.8146667 1.88116667,80.8401667 2.1475,80.8685 C2.41383333,80.8968333 2.649,80.928 2.853,80.962 L2.853,80.962 L2.853,88.969 C2.853,89.649 2.76516667,90.1136667 2.5895,90.363 C2.41383333,90.6123333 2.07666667,90.737 1.578,90.737 C1.204,90.737 0.858333333,90.6746667 0.541,90.55 L0.541,90.55 L0.405,92.114 C0.575,92.1706667 0.764833333,92.2103333 0.9745,92.233 C1.18416667,92.2556667 1.38533333,92.267 1.578,92.267 Z M10.486,88.17 C11.1093333,88.17 11.6788333,88.0538333 12.1945,87.8215 C12.7101667,87.5891667 13.1521667,87.269 13.5205,86.861 C13.8888333,86.453 14.175,85.9713333 14.379,85.416 C14.583,84.8606667 14.685,84.26 14.685,83.614 C14.685,82.866 14.5886667,82.2256667 14.396,81.693 C14.2033333,81.1603333 13.937,80.724 13.597,80.384 C13.257,80.044 12.8518333,79.7918333 12.3815,79.6275 C11.9111667,79.4631667 11.3926667,79.381 10.826,79.381 C10.18,79.381 9.59916667,79.4971667 9.0835,79.7295 C8.56783333,79.9618333 8.12583333,80.2791667 7.7575,80.6815 C7.38916667,81.0838333 7.10583333,81.5598333 6.9075,82.1095 C6.70916667,82.6591667 6.61,83.2513333 6.61,83.886 C6.61,84.634 6.70066667,85.2771667 6.882,85.8155 C7.06333333,86.3538333 7.324,86.7958333 7.664,87.1415 C8.004,87.4871667 8.412,87.745 8.888,87.915 C9.364,88.085 9.89666667,88.17 10.486,88.17 Z M10.656,86.606 C9.942,86.606 9.40366667,86.3623333 9.041,85.875 C8.67833333,85.3876667 8.497,84.6623333 8.497,83.699 C8.497,83.2116667 8.55933333,82.7923333 8.684,82.441 C8.80866667,82.0896667 8.973,81.8006667 9.177,81.574 C9.381,81.3473333 9.61333333,81.1801667 9.874,81.0725 C10.1346667,80.9648333 10.401,80.911 10.673,80.911 C11.3983333,80.911 11.9366667,81.1546667 12.288,81.642 C12.6393333,82.1293333 12.815,82.8263333 12.815,83.733 C12.815,84.2203333 12.7583333,84.6453333 12.645,85.008 C12.5316667,85.3706667 12.3758333,85.671 12.1775,85.909 C11.9791667,86.147 11.7496667,86.3226667 11.489,86.436 C11.2283333,86.5493333 10.9506667,86.606 10.656,86.606 Z M18.952,88 L18.952,83.937 C18.952,83.5063333 19.0086667,83.1068333 19.122,82.7385 C19.2353333,82.3701667 19.3911667,82.05 19.5895,81.778 C19.7878333,81.506 20.0201667,81.2906667 20.2865,81.132 C20.5528333,80.9733333 20.8446667,80.894 21.162,80.894 C21.6606667,80.894 21.9978333,81.0413333 22.1735,81.336 C22.3491667,81.6306667 22.437,82.0443333 22.437,82.577 L22.437,82.577 L22.437,88 L24.239,88 L24.239,82.084 C24.239,81.71 24.1965,81.3615 24.1115,81.0385 C24.0265,80.7155 23.8876667,80.4293333 23.695,80.18 C23.5023333,79.9306667 23.2416667,79.7351667 22.913,79.5935 C22.5843333,79.4518333 22.182,79.381 21.706,79.381 C20.992,79.381 20.3885,79.551 19.8955,79.891 C19.4025,80.231 19.0313333,80.673 18.782,81.217 L18.782,81.217 L18.748,81.217 C18.7933333,80.9676667 18.8273333,80.6843333 18.85,80.367 C18.8726667,80.0496667 18.884,79.7776667 18.884,79.551 C18.3626667,79.5283333 17.8158333,79.5283333 17.2435,79.551 C16.6711667,79.5736667 16.147,79.6133333 15.671,79.67 L15.671,79.67 L15.671,80.792 C15.9203333,80.8146667 16.1781667,80.8401667 16.4445,80.8685 C16.7108333,80.8968333 16.946,80.928 17.15,80.962 L17.15,80.962 L17.15,88 L18.952,88 Z M29.203,92.284 C30.121,92.284 30.8746667,92.1678333 31.464,91.9355 C32.0533333,91.7031667 32.5123333,91.4056667 32.841,91.043 C33.1696667,90.6803333 33.3963333,90.2723333 33.521,89.819 C33.6456667,89.3656667 33.708,88.918 33.708,88.476 L33.708,88.476 L33.708,79.653 C33.266,79.5736667 32.7985,79.5141667 32.3055,79.4745 C31.8125,79.4348333 31.294,79.415 30.75,79.415 C30.036,79.415 29.3956667,79.5283333 28.829,79.755 C28.2623333,79.9816667 27.7863333,80.3018333 27.401,80.7155 C27.0156667,81.1291667 26.721,81.6306667 26.517,82.22 C26.313,82.8093333 26.211,83.4666667 26.211,84.192 C26.211,85.4953333 26.483,86.4813333 27.027,87.15 C27.571,87.8186667 28.3473333,88.153 29.356,88.153 C29.9566667,88.153 30.4893333,88 30.954,87.694 C31.4186667,87.388 31.7643333,86.963 31.991,86.419 L31.991,86.419 L32.025,86.436 C31.9796667,86.6626667 31.9513333,86.8836667 31.94,87.099 C31.9286667,87.3143333 31.923,87.5466667 31.923,87.796 L31.923,87.796 L31.923,88.357 C31.923,89.241 31.702,89.8558333 31.26,90.2015 C30.818,90.5471667 30.172,90.72 29.322,90.72 C28.9253333,90.72 28.5088333,90.6803333 28.0725,90.601 C27.6361667,90.5216667 27.2366667,90.4083333 26.874,90.261 L26.874,90.261 L26.67,91.961 C27.0213333,92.063 27.4123333,92.1423333 27.843,92.199 C28.2736667,92.2556667 28.727,92.284 29.203,92.284 Z M29.798,86.657 C29.22,86.657 28.7978333,86.4303333 28.5315,85.977 C28.2651667,85.5236667 28.132,84.872 28.132,84.022 C28.132,82.8773333 28.3558333,82.0641667 28.8035,81.5825 C29.2511667,81.1008333 29.8376667,80.86 30.563,80.86 C31.0163333,80.86 31.464,80.911 31.906,81.013 L31.906,81.013 L31.906,83.597 C31.906,83.971 31.8606667,84.3393333 31.77,84.702 C31.6793333,85.0646667 31.5433333,85.3905 31.362,85.6795 C31.1806667,85.9685 30.9596667,86.2036667 30.699,86.385 C30.4383333,86.5663333 30.138,86.657 29.798,86.657 Z M39.709,88.17 C40.2416667,88.17 40.763,88.1246667 41.273,88.034 C41.783,87.9433333 42.259,87.8073333 42.701,87.626 L42.701,87.626 L42.463,86.198 C42.0776667,86.368 41.6781667,86.4955 41.2645,86.5805 C40.8508333,86.6655 40.44,86.708 40.032,86.708 C39.182,86.708 38.5473333,86.4841667 38.128,86.0365 C37.7086667,85.5888333 37.5103333,84.8833333 37.533,83.92 L37.533,83.92 L42.922,83.92 C42.956,83.5573333 42.973,83.2626667 42.973,83.036 C42.973,82.5373333 42.9078333,82.0641667 42.7775,81.6165 C42.6471667,81.1688333 42.4403333,80.7806667 42.157,80.452 C41.8736667,80.1233333 41.5138333,79.8626667 41.0775,79.67 C40.6411667,79.4773333 40.1226667,79.381 39.522,79.381 C38.91,79.381 38.3631667,79.4943333 37.8815,79.721 C37.3998333,79.9476667 36.9946667,80.2593333 36.666,80.656 C36.3373333,81.0526667 36.088,81.523 35.918,82.067 C35.748,82.611 35.663,83.2003333 35.663,83.835 C35.663,85.331 36.0115,86.4275 36.7085,87.1245 C37.4055,87.8215 38.4056667,88.17 39.709,88.17 Z M41.154,82.662 L37.567,82.662 C37.6463333,82.0613333 37.8531667,81.5881667 38.1875,81.2425 C38.5218333,80.8968333 38.944,80.724 39.454,80.724 C39.998,80.724 40.423,80.894 40.729,81.234 C41.035,81.574 41.1766667,82.05 41.154,82.662 L41.154,82.662 Z M47.325,88 L47.325,84.566 C47.325,83.2966667 47.5346667,82.373 47.954,81.795 C48.3733333,81.217 49.025,81.013 49.909,81.183 L49.909,81.183 L49.994,79.398 C49.5746667,79.3526667 49.2063333,79.381 48.889,79.483 C48.5716667,79.585 48.2996667,79.7323333 48.073,79.925 C47.8463333,80.1176667 47.6536667,80.3443333 47.495,80.605 C47.3363333,80.8656667 47.2116667,81.1376667 47.121,81.421 L47.121,81.421 L47.087,81.421 C47.1436667,81.0923333 47.1861667,80.758 47.2145,80.418 C47.2428333,80.078 47.257,79.789 47.257,79.551 C46.7356667,79.5283333 46.1888333,79.5283333 45.6165,79.551 C45.0441667,79.5736667 44.52,79.6133333 44.044,79.67 L44.044,79.67 L44.044,80.792 C44.2933333,80.8146667 44.5511667,80.8401667 44.8175,80.8685 C45.0838333,80.8968333 45.319,80.928 45.523,80.962 L45.523,80.962 L45.523,88 L47.325,88 Z M54.975,88.17 C55.5076667,88.17 56.029,88.1246667 56.539,88.034 C57.049,87.9433333 57.525,87.8073333 57.967,87.626 L57.967,87.626 L57.729,86.198 C57.3436667,86.368 56.9441667,86.4955 56.5305,86.5805 C56.1168333,86.6655 55.706,86.708 55.298,86.708 C54.448,86.708 53.8133333,86.4841667 53.394,86.0365 C52.9746667,85.5888333 52.7763333,84.8833333 52.799,83.92 L52.799,83.92 L58.188,83.92 C58.222,83.5573333 58.239,83.2626667 58.239,83.036 C58.239,82.5373333 58.1738333,82.0641667 58.0435,81.6165 C57.9131667,81.1688333 57.7063333,80.7806667 57.423,80.452 C57.1396667,80.1233333 56.7798333,79.8626667 56.3435,79.67 C55.9071667,79.4773333 55.3886667,79.381 54.788,79.381 C54.176,79.381 53.6291667,79.4943333 53.1475,79.721 C52.6658333,79.9476667 52.2606667,80.2593333 51.932,80.656 C51.6033333,81.0526667 51.354,81.523 51.184,82.067 C51.014,82.611 50.929,83.2003333 50.929,83.835 C50.929,85.331 51.2775,86.4275 51.9745,87.1245 C52.6715,87.8215 53.6716667,88.17 54.975,88.17 Z M56.42,82.662 L52.833,82.662 C52.9123333,82.0613333 53.1191667,81.5881667 53.4535,81.2425 C53.7878333,80.8968333 54.21,80.724 54.72,80.724 C55.264,80.724 55.689,80.894 55.995,81.234 C56.301,81.574 56.4426667,82.05 56.42,82.662 L56.42,82.662 Z M62.591,88 L62.591,83.937 C62.591,83.5063333 62.6476667,83.1068333 62.761,82.7385 C62.8743333,82.3701667 63.0301667,82.05 63.2285,81.778 C63.4268333,81.506 63.6591667,81.2906667 63.9255,81.132 C64.1918333,80.9733333 64.4836667,80.894 64.801,80.894 C65.2996667,80.894 65.6368333,81.0413333 65.8125,81.336 C65.9881667,81.6306667 66.076,82.0443333 66.076,82.577 L66.076,82.577 L66.076,88 L67.878,88 L67.878,82.084 C67.878,81.71 67.8355,81.3615 67.7505,81.0385 C67.6655,80.7155 67.5266667,80.4293333 67.334,80.18 C67.1413333,79.9306667 66.8806667,79.7351667 66.552,79.5935 C66.2233333,79.4518333 65.821,79.381 65.345,79.381 C64.631,79.381 64.0275,79.551 63.5345,79.891 C63.0415,80.231 62.6703333,80.673 62.421,81.217 L62.421,81.217 L62.387,81.217 C62.4323333,80.9676667 62.4663333,80.6843333 62.489,80.367 C62.5116667,80.0496667 62.523,79.7776667 62.523,79.551 C62.0016667,79.5283333 61.4548333,79.5283333 60.8825,79.551 C60.3101667,79.5736667 59.786,79.6133333 59.31,79.67 L59.31,79.67 L59.31,80.792 C59.5593333,80.8146667 59.8171667,80.8401667 60.0835,80.8685 C60.3498333,80.8968333 60.585,80.928 60.789,80.962 L60.789,80.962 L60.789,88 L62.591,88 Z M5.573,108.17 C6.09433333,108.17 6.59866667,108.062333 7.086,107.847 C7.57333333,107.631667 8.004,107.291667 8.378,106.827 C8.752,106.362333 9.05233333,105.7645 9.279,105.0335 C9.50566667,104.3025 9.619,103.415667 9.619,102.373 C9.619,101.319 9.52833333,100.432167 9.347,99.7125 C9.16566667,98.9928333 8.90783333,98.4176667 8.5735,97.987 C8.23916667,97.5563333 7.834,97.2475 7.358,97.0605 C6.882,96.8735 6.355,96.78 5.777,96.78 C5.18766667,96.78 4.64366667,96.8933333 4.145,97.12 C3.64633333,97.3466667 3.21566667,97.6923333 2.853,98.157 C2.49033333,98.6216667 2.20983333,99.2081667 2.0115,99.9165 C1.81316667,100.624833 1.714,101.460667 1.714,102.424 C1.714,103.512 1.799,104.4215 1.969,105.1525 C2.139,105.8835 2.39116667,106.472833 2.7255,106.9205 C3.05983333,107.368167 3.465,107.688333 3.941,107.881 C4.417,108.073667 4.961,108.17 5.573,108.17 Z M5.658,106.623 C5.29533333,106.623 4.9865,106.5465 4.7315,106.3935 C4.4765,106.2405 4.26966667,105.994 4.111,105.654 C3.95233333,105.314 3.839,104.872 3.771,104.328 C3.703,103.784 3.669,103.121 3.669,102.339 C3.669,101.568333 3.72,100.928 3.822,100.418 C3.924,99.908 4.06283333,99.4943333 4.2385,99.177 C4.41416667,98.8596667 4.62383333,98.6358333 4.8675,98.5055 C5.11116667,98.3751667 5.37466667,98.31 5.658,98.31 C5.998,98.31 6.29266667,98.3751667 6.542,98.5055 C6.79133333,98.6358333 7.001,98.8596667 7.171,99.177 C7.341,99.4943333 7.46566667,99.9193333 7.545,100.452 C7.62433333,100.984667 7.664,101.653333 7.664,102.458 C7.664,103.931333 7.48833333,104.993833 7.137,105.6455 C6.78566667,106.297167 6.29266667,106.623 5.658,106.623 Z M18.918,103.92 L18.918,102.458 L14.838,102.458 L14.838,103.92 L18.918,103.92 Z M31.889,108 L31.889,106.368 L29.373,106.368 L29.373,96.95 L27.945,96.95 L24.579,98.123 L24.885,99.84 L27.486,98.82 L27.486,106.368 L24.613,106.368 L24.613,108 L31.889,108 Z M37.329,108.17 C37.873,108.17 38.3858333,108.099167 38.8675,107.9575 C39.3491667,107.815833 39.7685,107.614667 40.1255,107.354 C40.4825,107.093333 40.7658333,106.770333 40.9755,106.385 C41.1851667,105.999667 41.29,105.563333 41.29,105.076 C41.29,104.702 41.2276667,104.367667 41.103,104.073 C40.9783333,103.778333 40.8111667,103.517667 40.6015,103.291 C40.3918333,103.064333 40.1538333,102.860333 39.8875,102.679 C39.6211667,102.497667 39.3406667,102.333333 39.046,102.186 C39.3066667,102.016 39.556,101.840333 39.794,101.659 C40.032,101.477667 40.2416667,101.279333 40.423,101.064 C40.6043333,100.848667 40.7488333,100.610667 40.8565,100.35 C40.9641667,100.089333 41.018,99.806 41.018,99.5 C41.018,99.1033333 40.9386667,98.7378333 40.78,98.4035 C40.6213333,98.0691667 40.3946667,97.783 40.1,97.545 C39.8053333,97.307 39.4398333,97.12 39.0035,96.984 C38.5671667,96.848 38.077,96.78 37.533,96.78 C36.989,96.78 36.4903333,96.8536667 36.037,97.001 C35.5836667,97.1483333 35.1955,97.3551667 34.8725,97.6215 C34.5495,97.8878333 34.2973333,98.2023333 34.116,98.565 C33.9346667,98.9276667 33.844,99.33 33.844,99.772 C33.844,100.418 34.0168333,100.945 34.3625,101.353 C34.7081667,101.761 35.1813333,102.129333 35.782,102.458 C35.4873333,102.628 35.2068333,102.809333 34.9405,103.002 C34.6741667,103.194667 34.439,103.41 34.235,103.648 C34.031,103.886 33.8695,104.143833 33.7505,104.4215 C33.6315,104.699167 33.572,105.008 33.572,105.348 C33.572,106.220667 33.9091667,106.909167 34.5835,107.4135 C35.2578333,107.917833 36.173,108.17 37.329,108.17 Z M37.516,101.506 C36.904,101.211333 36.4478333,100.930833 36.1475,100.6645 C35.8471667,100.398167 35.697,100.049667 35.697,99.619 C35.697,99.2336667 35.8443333,98.9021667 36.139,98.6245 C36.4336667,98.3468333 36.853,98.208 37.397,98.208 C37.9523333,98.208 38.3858333,98.3383333 38.6975,98.599 C39.0091667,98.8596667 39.165,99.211 39.165,99.653 C39.165,100.061 39.0035,100.406667 38.6805,100.69 C38.3575,100.973333 37.9693333,101.245333 37.516,101.506 Z M37.482,106.708 C36.8246667,106.708 36.3231667,106.566333 35.9775,106.283 C35.6318333,105.999667 35.459,105.642667 35.459,105.212 C35.459,104.974 35.51,104.758667 35.612,104.566 C35.714,104.373333 35.8471667,104.194833 36.0115,104.0305 C36.1758333,103.866167 36.3685,103.713167 36.5895,103.5715 C36.8105,103.429833 37.04,103.291 37.278,103.155 C37.5613333,103.279667 37.8305,103.407167 38.0855,103.5375 C38.3405,103.667833 38.5643333,103.815167 38.757,103.9795 C38.9496667,104.143833 39.1026667,104.328 39.216,104.532 C39.3293333,104.736 39.386,104.974 39.386,105.246 C39.386,105.710667 39.2046667,106.0705 38.842,106.3255 C38.4793333,106.5805 38.026,106.708 37.482,106.708 Z M48.566,98.055 C48.8946667,98.055 49.1723333,97.9445 49.399,97.7235 C49.6256667,97.5025 49.739,97.2333333 49.739,96.916 C49.739,96.5986667 49.6256667,96.3295 49.399,96.1085 C49.1723333,95.8875 48.8946667,95.777 48.566,95.777 C48.2373333,95.777 47.9625,95.8875 47.7415,96.1085 C47.5205,96.3295 47.41,96.5986667 47.41,96.916 C47.41,97.2446667 47.5205,97.5166667 47.7415,97.732 C47.9625,97.9473333 48.2373333,98.055 48.566,98.055 Z M46.39,112.267 C46.968,112.267 47.4553333,112.193333 47.852,112.046 C48.2486667,111.898667 48.5688333,111.677667 48.8125,111.383 C49.0561667,111.088333 49.229,110.725667 49.331,110.295 C49.433,109.864333 49.484,109.365667 49.484,108.799 L49.484,108.799 L49.484,99.551 C48.9286667,99.5283333 48.3591667,99.5283333 47.7755,99.551 C47.1918333,99.5736667 46.662,99.6133333 46.186,99.67 L46.186,99.67 L46.186,100.792 C46.4353333,100.814667 46.6931667,100.840167 46.9595,100.8685 C47.2258333,100.896833 47.461,100.928 47.665,100.962 L47.665,100.962 L47.665,108.969 C47.665,109.649 47.5771667,110.113667 47.4015,110.363 C47.2258333,110.612333 46.8886667,110.737 46.39,110.737 C46.016,110.737 45.6703333,110.674667 45.353,110.55 L45.353,110.55 L45.217,112.114 C45.387,112.170667 45.5768333,112.210333 45.7865,112.233 C45.9961667,112.255667 46.1973333,112.267 46.39,112.267 Z M53.904,108.17 C54.584,108.17 55.1705,108.005667 55.6635,107.677 C56.1565,107.348333 56.505,106.929 56.709,106.419 L56.709,106.419 L56.726,106.436 C56.692,106.662667 56.6693333,106.912 56.658,107.184 C56.6466667,107.456 56.641,107.728 56.641,108 C57.1396667,108.022667 57.6751667,108.022667 58.2475,108 C58.8198333,107.977333 59.344,107.937667 59.82,107.881 L59.82,107.881 L59.82,106.759 C59.5706667,106.736333 59.3128333,106.710833 59.0465,106.6825 C58.7801667,106.654167 58.545,106.623 58.341,106.589 L58.341,106.589 L58.341,102.237 C58.341,101.806333 58.29,101.415333 58.188,101.064 C58.086,100.712667 57.9103333,100.412333 57.661,100.163 C57.4116667,99.9136667 57.0716667,99.721 56.641,99.585 C56.2103333,99.449 55.672,99.381 55.026,99.381 C54.4933333,99.381 53.9663333,99.432 53.445,99.534 C52.9236667,99.636 52.4533333,99.7663333 52.034,99.925 L52.034,99.925 L52.289,101.421 C52.629,101.239667 53.0256667,101.092333 53.479,100.979 C53.9323333,100.865667 54.3573333,100.809 54.754,100.809 C55.4226667,100.809 55.8845,100.942167 56.1395,101.2085 C56.3945,101.474833 56.522,101.874333 56.522,102.407 L56.522,102.407 L56.522,102.883 C55.7626667,102.883 55.077,102.951 54.465,103.087 C53.853,103.223 53.3288333,103.4185 52.8925,103.6735 C52.4561667,103.9285 52.1218333,104.243 51.8895,104.617 C51.6571667,104.991 51.541,105.416 51.541,105.892 C51.541,106.583333 51.7535,107.135833 52.1785,107.5495 C52.6035,107.963167 53.1786667,108.17 53.904,108.17 Z M54.448,106.742 C54.0853333,106.742 53.802,106.634333 53.598,106.419 C53.394,106.203667 53.292,105.931667 53.292,105.603 C53.292,105.410333 53.3401667,105.223333 53.4365,105.042 C53.5328333,104.860667 53.7056667,104.702 53.955,104.566 C54.2043333,104.43 54.5358333,104.3195 54.9495,104.2345 C55.3631667,104.1495 55.8873333,104.107 56.522,104.107 L56.522,104.107 L56.522,104.345 C56.522,104.651 56.471,104.945667 56.369,105.229 C56.267,105.512333 56.1253333,105.767333 55.944,105.994 C55.7626667,106.220667 55.5445,106.402 55.2895,106.538 C55.0345,106.674 54.754,106.742 54.448,106.742 Z M63.169,108.17 C63.849,108.17 64.4355,108.005667 64.9285,107.677 C65.4215,107.348333 65.77,106.929 65.974,106.419 L65.974,106.419 L65.991,106.436 C65.957,106.662667 65.9343333,106.912 65.923,107.184 C65.9116667,107.456 65.906,107.728 65.906,108 C66.4046667,108.022667 66.9401667,108.022667 67.5125,108 C68.0848333,107.977333 68.609,107.937667 69.085,107.881 L69.085,107.881 L69.085,106.759 C68.8356667,106.736333 68.5778333,106.710833 68.3115,106.6825 C68.0451667,106.654167 67.81,106.623 67.606,106.589 L67.606,106.589 L67.606,102.237 C67.606,101.806333 67.555,101.415333 67.453,101.064 C67.351,100.712667 67.1753333,100.412333 66.926,100.163 C66.6766667,99.9136667 66.3366667,99.721 65.906,99.585 C65.4753333,99.449 64.937,99.381 64.291,99.381 C63.7583333,99.381 63.2313333,99.432 62.71,99.534 C62.1886667,99.636 61.7183333,99.7663333 61.299,99.925 L61.299,99.925 L61.554,101.421 C61.894,101.239667 62.2906667,101.092333 62.744,100.979 C63.1973333,100.865667 63.6223333,100.809 64.019,100.809 C64.6876667,100.809 65.1495,100.942167 65.4045,101.2085 C65.6595,101.474833 65.787,101.874333 65.787,102.407 L65.787,102.407 L65.787,102.883 C65.0276667,102.883 64.342,102.951 63.73,103.087 C63.118,103.223 62.5938333,103.4185 62.1575,103.6735 C61.7211667,103.9285 61.3868333,104.243 61.1545,104.617 C60.9221667,104.991 60.806,105.416 60.806,105.892 C60.806,106.583333 61.0185,107.135833 61.4435,107.5495 C61.8685,107.963167 62.4436667,108.17 63.169,108.17 Z M63.713,106.742 C63.3503333,106.742 63.067,106.634333 62.863,106.419 C62.659,106.203667 62.557,105.931667 62.557,105.603 C62.557,105.410333 62.6051667,105.223333 62.7015,105.042 C62.7978333,104.860667 62.9706667,104.702 63.22,104.566 C63.4693333,104.43 63.8008333,104.3195 64.2145,104.2345 C64.6281667,104.1495 65.1523333,104.107 65.787,104.107 L65.787,104.107 L65.787,104.345 C65.787,104.651 65.736,104.945667 65.634,105.229 C65.532,105.512333 65.3903333,105.767333 65.209,105.994 C65.0276667,106.220667 64.8095,106.402 64.5545,106.538 C64.2995,106.674 64.019,106.742 63.713,106.742 Z M72.961,108 L72.961,104.566 C72.961,103.296667 73.1706667,102.373 73.59,101.795 C74.0093333,101.217 74.661,101.013 75.545,101.183 L75.545,101.183 L75.63,99.398 C75.2106667,99.3526667 74.8423333,99.381 74.525,99.483 C74.2076667,99.585 73.9356667,99.7323333 73.709,99.925 C73.4823333,100.117667 73.2896667,100.344333 73.131,100.605 C72.9723333,100.865667 72.8476667,101.137667 72.757,101.421 L72.757,101.421 L72.723,101.421 C72.7796667,101.092333 72.8221667,100.758 72.8505,100.418 C72.8788333,100.078 72.893,99.789 72.893,99.551 C72.3716667,99.5283333 71.8248333,99.5283333 71.2525,99.551 C70.6801667,99.5736667 70.156,99.6133333 69.68,99.67 L69.68,99.67 L69.68,100.792 C69.9293333,100.814667 70.1871667,100.840167 70.4535,100.8685 C70.7198333,100.896833 70.955,100.928 71.159,100.962 L71.159,100.962 L71.159,108 L72.961,108 Z" id="kinderenenjongeren0-18jaar" fill="#FAFAFA"></path>
                    <path d="M11.92,38 C12.3733333,36.48 12.8933333,34.8533333 13.48,33.12 C14.0666667,31.3866667 14.7066667,29.62 15.4,27.82 C16.0933333,26.02 16.8333333,24.22 17.62,22.42 C18.4066667,20.62 19.2266667,18.8933333 20.08,17.24 L20.08,17.24 L20.08,12 L1.84,12 L1.84,18 L5.6464,17.9992 C6.1968,17.9970667 6.78133333,17.9906667 7.4,17.98 C8.17333333,17.9666667 8.92,17.9533333 9.64,17.94 C10.36,17.9266667 11.0133333,17.9133333 11.6,17.9 C12.1866667,17.8866667 12.64,17.88 12.96,17.88 C12.32,19.1066667 11.64,20.5266667 10.92,22.14 C10.2,23.7533333 9.48,25.4533333 8.76,27.24 C8.04,29.0266667 7.35333333,30.84 6.7,32.68 C6.04666667,34.52 5.46666667,36.2933333 4.96,38 L4.96,38 L11.92,38 Z M27.52,38.48 C28.56,38.48 29.4533333,38.1133333 30.2,37.38 C30.9466667,36.6466667 31.32,35.76 31.32,34.72 C31.32,34.1866667 31.22,33.6933333 31.02,33.24 C30.82,32.7866667 30.5466667,32.3866667 30.2,32.04 C29.8533333,31.6933333 29.4533333,31.42 29,31.22 C28.5466667,31.02 28.0533333,30.92 27.52,30.92 C27.0133333,30.92 26.5333333,31.02 26.08,31.22 C25.6266667,31.42 25.2266667,31.6933333 24.88,32.04 C24.5333333,32.3866667 24.26,32.7866667 24.06,33.24 C23.86,33.6933333 23.76,34.1866667 23.76,34.72 C23.76,35.2266667 23.86,35.7133333 24.06,36.18 C24.26,36.6466667 24.5333333,37.0466667 24.88,37.38 C25.2266667,37.7133333 25.6266667,37.98 26.08,38.18 C26.5333333,38.38 27.0133333,38.48 27.52,38.48 Z M45,38 C45.4533333,36.48 45.9733333,34.8533333 46.56,33.12 C47.1466667,31.3866667 47.7866667,29.62 48.48,27.82 C49.1733333,26.02 49.9133333,24.22 50.7,22.42 C51.4866667,20.62 52.3066667,18.8933333 53.16,17.24 L53.16,17.24 L53.16,12 L34.92,12 L34.92,18 L38.7264,17.9992 C39.2768,17.9970667 39.8613333,17.9906667 40.48,17.98 C41.2533333,17.9666667 42,17.9533333 42.72,17.94 C43.44,17.9266667 44.0933333,17.9133333 44.68,17.9 C45.2666667,17.8866667 45.72,17.88 46.04,17.88 C45.4,19.1066667 44.72,20.5266667 44,22.14 C43.28,23.7533333 42.56,25.4533333 41.84,27.24 C41.12,29.0266667 40.4333333,30.84 39.78,32.68 C39.1266667,34.52 38.5466667,36.2933333 38.04,38 L38.04,38 L45,38 Z M66.2,38.52 C67.64,38.52 68.96,38.3066667 70.16,37.88 C71.36,37.4533333 72.3933333,36.8333333 73.26,36.02 C74.1266667,35.2066667 74.7933333,34.2066667 75.26,33.02 C75.7266667,31.8333333 75.96,30.4933333 75.96,29 C75.96,27.9333333 75.7866667,26.9333333 75.44,26 C75.0933333,25.0666667 74.5733333,24.2533333 73.88,23.56 C73.1866667,22.8666667 72.3266667,22.32 71.3,21.92 C70.2733333,21.52 69.0933333,21.32 67.76,21.32 C65.52,21.32 63.7866667,21.96 62.56,23.24 L62.56,23.24 L62.52,23.24 C62.5733333,22.9466667 62.6333333,22.6933333 62.7,22.48 C62.7666667,22.2666667 62.8266667,22.0666667 62.88,21.88 C63.4133333,20.2266667 64.2466667,18.9466667 65.38,18.04 C66.5133333,17.1333333 68.0533333,16.68 70,16.68 C71.2266667,16.68 72.44,16.8 73.64,17.04 L73.64,17.04 L73.64,11.76 C73.1066667,11.7066667 72.54,11.6666667 71.94,11.64 C71.34,11.6133333 70.76,11.6 70.2,11.6 C68.0666667,11.6 66.1466667,11.9333333 64.44,12.6 C62.7333333,13.2666667 61.28,14.24 60.08,15.52 C58.88,16.8 57.9533333,18.3933333 57.3,20.3 C56.6466667,22.2066667 56.32,24.4 56.32,26.88 C56.32,28.9066667 56.5533333,30.6533333 57.02,32.12 C57.4866667,33.5866667 58.1533333,34.7933333 59.02,35.74 C59.8866667,36.6866667 60.9266667,37.3866667 62.14,37.84 C63.3533333,38.2933333 64.7066667,38.52 66.2,38.52 Z M66.44,33.56 C65.1866667,33.56 64.2533333,33.1866667 63.64,32.44 C63.0266667,31.6933333 62.72,30.7466667 62.72,29.6 C62.72,28.7733333 63.02,28.0133333 63.62,27.32 C64.22,26.6266667 65.0933333,26.28 66.24,26.28 C67.4133333,26.28 68.3,26.5933333 68.9,27.22 C69.5,27.8466667 69.8,28.7333333 69.8,29.88 C69.8,30.9466667 69.5066667,31.8266667 68.92,32.52 C68.3333333,33.2133333 67.5066667,33.56 66.44,33.56 Z M87.88,38.52 C89.24,38.52 90.5333333,38.2466667 91.76,37.7 C92.9866667,37.1533333 94.06,36.32 94.98,35.2 C95.9,34.08 96.6266667,32.66 97.16,30.94 C97.6933333,29.22 97.96,27.1866667 97.96,24.84 C97.96,22.44 97.7533333,20.3933333 97.34,18.7 C96.9266667,17.0066667 96.32,15.6266667 95.52,14.56 C94.72,13.4933333 93.7133333,12.7133333 92.5,12.22 C91.2866667,11.7266667 89.88,11.48 88.28,11.48 C86.7866667,11.48 85.42,11.7533333 84.18,12.3 C82.94,12.8466667 81.8733333,13.68 80.98,14.8 C80.0866667,15.92 79.3933333,17.32 78.9,19 C78.4066667,20.68 78.16,22.6533333 78.16,24.92 C78.16,27.5866667 78.3866667,29.7933333 78.84,31.54 C79.2933333,33.2866667 79.9466667,34.68 80.8,35.72 C81.6533333,36.76 82.68,37.4866667 83.88,37.9 C85.08,38.3133333 86.4133333,38.52 87.88,38.52 Z M88.08,33.24 C87.4933333,33.24 86.9933333,33.1333333 86.58,32.92 C86.1666667,32.7066667 85.82,32.2933333 85.54,31.68 C85.26,31.0666667 85.0533333,30.2066667 84.92,29.1 C84.7866667,27.9933333 84.72,26.5466667 84.72,24.76 C84.72,23.1333333 84.8,21.7933333 84.96,20.74 C85.12,19.6866667 85.3466667,18.86 85.64,18.26 C85.9333333,17.66 86.28,17.2466667 86.68,17.02 C87.08,16.7933333 87.5333333,16.68 88.04,16.68 C88.6,16.68 89.0933333,16.78 89.52,16.98 C89.9466667,17.18 90.3,17.58 90.58,18.18 C90.86,18.78 91.0666667,19.62 91.2,20.7 C91.3333333,21.78 91.4,23.2 91.4,24.96 C91.4,26.5866667 91.3266667,27.94 91.18,29.02 C91.0333333,30.1 90.82,30.9466667 90.54,31.56 C90.26,32.1733333 89.9133333,32.6066667 89.5,32.86 C89.0866667,33.1133333 88.6133333,33.24 88.08,33.24 Z" id="7.760" fill="#FEFEFE"></path>
                </g>
                <g id="Group-57" transform="translate(423.000000, 102.000000)" fill-rule="nonzero">
                    <path d="M5.117,57 L8.313,48.551 L6.358,48.551 L4.743,53.09 C4.65233333,53.362 4.5645,53.6425 4.4795,53.9315 C4.3945,54.2205 4.318,54.4953333 4.25,54.756 L4.25,54.756 L4.233,54.756 C4.07433333,54.1893333 3.893,53.6113333 3.689,53.022 L3.689,53.022 L2.108,48.551 L0.102,48.551 L3.264,57 L5.117,57 Z M12.903,57.17 C13.5263333,57.17 14.0958333,57.0538333 14.6115,56.8215 C15.1271667,56.5891667 15.5691667,56.269 15.9375,55.861 C16.3058333,55.453 16.592,54.9713333 16.796,54.416 C17,53.8606667 17.102,53.26 17.102,52.614 C17.102,51.866 17.0056667,51.2256667 16.813,50.693 C16.6203333,50.1603333 16.354,49.724 16.014,49.384 C15.674,49.044 15.2688333,48.7918333 14.7985,48.6275 C14.3281667,48.4631667 13.8096667,48.381 13.243,48.381 C12.597,48.381 12.0161667,48.4971667 11.5005,48.7295 C10.9848333,48.9618333 10.5428333,49.2791667 10.1745,49.6815 C9.80616667,50.0838333 9.52283333,50.5598333 9.3245,51.1095 C9.12616667,51.6591667 9.027,52.2513333 9.027,52.886 C9.027,53.634 9.11766667,54.2771667 9.299,54.8155 C9.48033333,55.3538333 9.741,55.7958333 10.081,56.1415 C10.421,56.4871667 10.829,56.745 11.305,56.915 C11.781,57.085 12.3136667,57.17 12.903,57.17 Z M13.073,55.606 C12.359,55.606 11.8206667,55.3623333 11.458,54.875 C11.0953333,54.3876667 10.914,53.6623333 10.914,52.699 C10.914,52.2116667 10.9763333,51.7923333 11.101,51.441 C11.2256667,51.0896667 11.39,50.8006667 11.594,50.574 C11.798,50.3473333 12.0303333,50.1801667 12.291,50.0725 C12.5516667,49.9648333 12.818,49.911 13.09,49.911 C13.8153333,49.911 14.3536667,50.1546667 14.705,50.642 C15.0563333,51.1293333 15.232,51.8263333 15.232,52.733 C15.232,53.2203333 15.1753333,53.6453333 15.062,54.008 C14.9486667,54.3706667 14.7928333,54.671 14.5945,54.909 C14.3961667,55.147 14.1666667,55.3226667 13.906,55.436 C13.6453333,55.5493333 13.3676667,55.606 13.073,55.606 Z M20.995,57 L20.995,44.59 C20.4396667,44.5673333 19.8701667,44.5673333 19.2865,44.59 C18.7028333,44.6126667 18.173,44.6523333 17.697,44.709 L17.697,44.709 L17.697,45.831 C17.9463333,45.8536667 18.2041667,45.8791667 18.4705,45.9075 C18.7368333,45.9358333 18.972,45.967 19.176,46.001 L19.176,46.001 L19.176,57 L20.995,57 Z M27.064,57 L28.339,52.92 C28.4523333,52.5573333 28.5543333,52.206 28.645,51.866 C28.7356667,51.526 28.8263333,51.169 28.917,50.795 L28.917,50.795 L28.934,50.795 C29.0133333,51.1236667 29.0926667,51.4325 29.172,51.7215 C29.2513333,52.0105 29.3363333,52.2966667 29.427,52.58 L29.427,52.58 L30.889,57 L32.895,57 L35.598,48.551 L33.711,48.551 L32.538,52.546 C32.4133333,52.9653333 32.3056667,53.3535 32.215,53.7105 C32.1243333,54.0675 32.0336667,54.4443333 31.943,54.841 L31.943,54.841 L31.926,54.841 C31.8353333,54.4783333 31.7418333,54.1185 31.6455,53.7615 C31.5491667,53.4045 31.4216667,52.971 31.263,52.461 L31.263,52.461 L29.988,48.551 L28.152,48.551 L26.894,52.529 C26.7806667,52.8916667 26.6758333,53.2628333 26.5795,53.6425 C26.4831667,54.0221667 26.3896667,54.4216667 26.299,54.841 L26.299,54.841 L26.282,54.841 C26.1913333,54.4556667 26.0921667,54.0646667 25.9845,53.668 C25.8768333,53.2713333 25.7663333,52.8746667 25.653,52.478 L25.653,52.478 L24.531,48.551 L22.542,48.551 L25.143,57 L27.064,57 Z M38.913,57.17 C39.593,57.17 40.1795,57.0056667 40.6725,56.677 C41.1655,56.3483333 41.514,55.929 41.718,55.419 L41.718,55.419 L41.735,55.436 C41.701,55.6626667 41.6783333,55.912 41.667,56.184 C41.6556667,56.456 41.65,56.728 41.65,57 C42.1486667,57.0226667 42.6841667,57.0226667 43.2565,57 C43.8288333,56.9773333 44.353,56.9376667 44.829,56.881 L44.829,56.881 L44.829,55.759 C44.5796667,55.7363333 44.3218333,55.7108333 44.0555,55.6825 C43.7891667,55.6541667 43.554,55.623 43.35,55.589 L43.35,55.589 L43.35,51.237 C43.35,50.8063333 43.299,50.4153333 43.197,50.064 C43.095,49.7126667 42.9193333,49.4123333 42.67,49.163 C42.4206667,48.9136667 42.0806667,48.721 41.65,48.585 C41.2193333,48.449 40.681,48.381 40.035,48.381 C39.5023333,48.381 38.9753333,48.432 38.454,48.534 C37.9326667,48.636 37.4623333,48.7663333 37.043,48.925 L37.043,48.925 L37.298,50.421 C37.638,50.2396667 38.0346667,50.0923333 38.488,49.979 C38.9413333,49.8656667 39.3663333,49.809 39.763,49.809 C40.4316667,49.809 40.8935,49.9421667 41.1485,50.2085 C41.4035,50.4748333 41.531,50.8743333 41.531,51.407 L41.531,51.407 L41.531,51.883 C40.7716667,51.883 40.086,51.951 39.474,52.087 C38.862,52.223 38.3378333,52.4185 37.9015,52.6735 C37.4651667,52.9285 37.1308333,53.243 36.8985,53.617 C36.6661667,53.991 36.55,54.416 36.55,54.892 C36.55,55.5833333 36.7625,56.1358333 37.1875,56.5495 C37.6125,56.9631667 38.1876667,57.17 38.913,57.17 Z M39.457,55.742 C39.0943333,55.742 38.811,55.6343333 38.607,55.419 C38.403,55.2036667 38.301,54.9316667 38.301,54.603 C38.301,54.4103333 38.3491667,54.2233333 38.4455,54.042 C38.5418333,53.8606667 38.7146667,53.702 38.964,53.566 C39.2133333,53.43 39.5448333,53.3195 39.9585,53.2345 C40.3721667,53.1495 40.8963333,53.107 41.531,53.107 L41.531,53.107 L41.531,53.345 C41.531,53.651 41.48,53.9456667 41.378,54.229 C41.276,54.5123333 41.1343333,54.7673333 40.953,54.994 C40.7716667,55.2206667 40.5535,55.402 40.2985,55.538 C40.0435,55.674 39.763,55.742 39.457,55.742 Z M47.838,57.17 C48.4046667,57.17 48.9118333,57.102 49.3595,56.966 C49.8071667,56.83 50.1868333,56.6401667 50.4985,56.3965 C50.8101667,56.1528333 51.051,55.861 51.221,55.521 C51.391,55.181 51.476,54.8126667 51.476,54.416 C51.476,53.94 51.3825,53.5603333 51.1955,53.277 C51.0085,52.9936667 50.779,52.767 50.507,52.597 C50.235,52.427 49.9346667,52.291 49.606,52.189 C49.2773333,52.087 48.977,51.9821667 48.705,51.8745 C48.433,51.7668333 48.2035,51.6336667 48.0165,51.475 C47.8295,51.3163333 47.736,51.101 47.736,50.829 C47.736,50.5003333 47.855,50.2425 48.093,50.0555 C48.331,49.8685 48.705,49.775 49.215,49.775 C49.7703333,49.775 50.303,49.8543333 50.813,50.013 L50.813,50.013 L50.915,48.551 C50.6656667,48.4943333 50.4021667,48.4518333 50.1245,48.4235 C49.8468333,48.3951667 49.5776667,48.381 49.317,48.381 C48.739,48.381 48.2318333,48.449 47.7955,48.585 C47.3591667,48.721 46.9993333,48.9051667 46.716,49.1375 C46.4326667,49.3698333 46.2201667,49.6446667 46.0785,49.962 C45.9368333,50.2793333 45.866,50.625 45.866,50.999 C45.866,51.4863333 45.9566667,51.8745 46.138,52.1635 C46.3193333,52.4525 46.5488333,52.682 46.8265,52.852 C47.1041667,53.022 47.4016667,53.1551667 47.719,53.2515 C48.0363333,53.3478333 48.3338333,53.447 48.6115,53.549 C48.8891667,53.651 49.1186667,53.7785 49.3,53.9315 C49.4813333,54.0845 49.572,54.3083333 49.572,54.603 C49.572,54.943 49.4218333,55.2121667 49.1215,55.4105 C48.8211667,55.6088333 48.433,55.708 47.957,55.708 C47.6283333,55.708 47.3025,55.6796667 46.9795,55.623 C46.6565,55.5663333 46.3646667,55.487 46.104,55.385 L46.104,55.385 L45.968,56.932 C46.2286667,57.0113333 46.5233333,57.0708333 46.852,57.1105 C47.1806667,57.1501667 47.5093333,57.17 47.838,57.17 Z M54.995,57.17 C55.5616667,57.17 56.0688333,57.102 56.5165,56.966 C56.9641667,56.83 57.3438333,56.6401667 57.6555,56.3965 C57.9671667,56.1528333 58.208,55.861 58.378,55.521 C58.548,55.181 58.633,54.8126667 58.633,54.416 C58.633,53.94 58.5395,53.5603333 58.3525,53.277 C58.1655,52.9936667 57.936,52.767 57.664,52.597 C57.392,52.427 57.0916667,52.291 56.763,52.189 C56.4343333,52.087 56.134,51.9821667 55.862,51.8745 C55.59,51.7668333 55.3605,51.6336667 55.1735,51.475 C54.9865,51.3163333 54.893,51.101 54.893,50.829 C54.893,50.5003333 55.012,50.2425 55.25,50.0555 C55.488,49.8685 55.862,49.775 56.372,49.775 C56.9273333,49.775 57.46,49.8543333 57.97,50.013 L57.97,50.013 L58.072,48.551 C57.8226667,48.4943333 57.5591667,48.4518333 57.2815,48.4235 C57.0038333,48.3951667 56.7346667,48.381 56.474,48.381 C55.896,48.381 55.3888333,48.449 54.9525,48.585 C54.5161667,48.721 54.1563333,48.9051667 53.873,49.1375 C53.5896667,49.3698333 53.3771667,49.6446667 53.2355,49.962 C53.0938333,50.2793333 53.023,50.625 53.023,50.999 C53.023,51.4863333 53.1136667,51.8745 53.295,52.1635 C53.4763333,52.4525 53.7058333,52.682 53.9835,52.852 C54.2611667,53.022 54.5586667,53.1551667 54.876,53.2515 C55.1933333,53.3478333 55.4908333,53.447 55.7685,53.549 C56.0461667,53.651 56.2756667,53.7785 56.457,53.9315 C56.6383333,54.0845 56.729,54.3083333 56.729,54.603 C56.729,54.943 56.5788333,55.2121667 56.2785,55.4105 C55.9781667,55.6088333 55.59,55.708 55.114,55.708 C54.7853333,55.708 54.4595,55.6796667 54.1365,55.623 C53.8135,55.5663333 53.5216667,55.487 53.261,55.385 L53.261,55.385 L53.125,56.932 C53.3856667,57.0113333 53.6803333,57.0708333 54.009,57.1105 C54.3376667,57.1501667 54.6663333,57.17 54.995,57.17 Z M64.09,57.17 C64.6226667,57.17 65.144,57.1246667 65.654,57.034 C66.164,56.9433333 66.64,56.8073333 67.082,56.626 L67.082,56.626 L66.844,55.198 C66.4586667,55.368 66.0591667,55.4955 65.6455,55.5805 C65.2318333,55.6655 64.821,55.708 64.413,55.708 C63.563,55.708 62.9283333,55.4841667 62.509,55.0365 C62.0896667,54.5888333 61.8913333,53.8833333 61.914,52.92 L61.914,52.92 L67.303,52.92 C67.337,52.5573333 67.354,52.2626667 67.354,52.036 C67.354,51.5373333 67.2888333,51.0641667 67.1585,50.6165 C67.0281667,50.1688333 66.8213333,49.7806667 66.538,49.452 C66.2546667,49.1233333 65.8948333,48.8626667 65.4585,48.67 C65.0221667,48.4773333 64.5036667,48.381 63.903,48.381 C63.291,48.381 62.7441667,48.4943333 62.2625,48.721 C61.7808333,48.9476667 61.3756667,49.2593333 61.047,49.656 C60.7183333,50.0526667 60.469,50.523 60.299,51.067 C60.129,51.611 60.044,52.2003333 60.044,52.835 C60.044,54.331 60.3925,55.4275 61.0895,56.1245 C61.7865,56.8215 62.7866667,57.17 64.09,57.17 Z M65.535,51.662 L61.948,51.662 C62.0273333,51.0613333 62.2341667,50.5881667 62.5685,50.2425 C62.9028333,49.8968333 63.325,49.724 63.835,49.724 C64.379,49.724 64.804,49.894 65.11,50.234 C65.416,50.574 65.5576667,51.05 65.535,51.662 L65.535,51.662 Z M71.706,57 L71.706,52.937 C71.706,52.5063333 71.7626667,52.1068333 71.876,51.7385 C71.9893333,51.3701667 72.1451667,51.05 72.3435,50.778 C72.5418333,50.506 72.7741667,50.2906667 73.0405,50.132 C73.3068333,49.9733333 73.5986667,49.894 73.916,49.894 C74.4146667,49.894 74.7518333,50.0413333 74.9275,50.336 C75.1031667,50.6306667 75.191,51.0443333 75.191,51.577 L75.191,51.577 L75.191,57 L76.993,57 L76.993,51.084 C76.993,50.71 76.9505,50.3615 76.8655,50.0385 C76.7805,49.7155 76.6416667,49.4293333 76.449,49.18 C76.2563333,48.9306667 75.9956667,48.7351667 75.667,48.5935 C75.3383333,48.4518333 74.936,48.381 74.46,48.381 C73.746,48.381 73.1425,48.551 72.6495,48.891 C72.1565,49.231 71.7853333,49.673 71.536,50.217 L71.536,50.217 L71.502,50.217 C71.5473333,49.9676667 71.5813333,49.6843333 71.604,49.367 C71.6266667,49.0496667 71.638,48.7776667 71.638,48.551 C71.1166667,48.5283333 70.5698333,48.5283333 69.9975,48.551 C69.4251667,48.5736667 68.901,48.6133333 68.425,48.67 L68.425,48.67 L68.425,49.792 C68.6743333,49.8146667 68.9321667,49.8401667 69.1985,49.8685 C69.4648333,49.8968333 69.7,49.928 69.904,49.962 L69.904,49.962 L69.904,57 L71.706,57 Z M83.011,57.17 C83.5436667,57.17 84.065,57.1246667 84.575,57.034 C85.085,56.9433333 85.561,56.8073333 86.003,56.626 L86.003,56.626 L85.765,55.198 C85.3796667,55.368 84.9801667,55.4955 84.5665,55.5805 C84.1528333,55.6655 83.742,55.708 83.334,55.708 C82.484,55.708 81.8493333,55.4841667 81.43,55.0365 C81.0106667,54.5888333 80.8123333,53.8833333 80.835,52.92 L80.835,52.92 L86.224,52.92 C86.258,52.5573333 86.275,52.2626667 86.275,52.036 C86.275,51.5373333 86.2098333,51.0641667 86.0795,50.6165 C85.9491667,50.1688333 85.7423333,49.7806667 85.459,49.452 C85.1756667,49.1233333 84.8158333,48.8626667 84.3795,48.67 C83.9431667,48.4773333 83.4246667,48.381 82.824,48.381 C82.212,48.381 81.6651667,48.4943333 81.1835,48.721 C80.7018333,48.9476667 80.2966667,49.2593333 79.968,49.656 C79.6393333,50.0526667 79.39,50.523 79.22,51.067 C79.05,51.611 78.965,52.2003333 78.965,52.835 C78.965,54.331 79.3135,55.4275 80.0105,56.1245 C80.7075,56.8215 81.7076667,57.17 83.011,57.17 Z M84.456,51.662 L80.869,51.662 C80.9483333,51.0613333 81.1551667,50.5881667 81.4895,50.2425 C81.8238333,49.8968333 82.246,49.724 82.756,49.724 C83.3,49.724 83.725,49.894 84.031,50.234 C84.337,50.574 84.4786667,51.05 84.456,51.662 L84.456,51.662 Z M90.627,57 L90.627,52.937 C90.627,52.5063333 90.6836667,52.1068333 90.797,51.7385 C90.9103333,51.3701667 91.0661667,51.05 91.2645,50.778 C91.4628333,50.506 91.6951667,50.2906667 91.9615,50.132 C92.2278333,49.9733333 92.5196667,49.894 92.837,49.894 C93.3356667,49.894 93.6728333,50.0413333 93.8485,50.336 C94.0241667,50.6306667 94.112,51.0443333 94.112,51.577 L94.112,51.577 L94.112,57 L95.914,57 L95.914,51.084 C95.914,50.71 95.8715,50.3615 95.7865,50.0385 C95.7015,49.7155 95.5626667,49.4293333 95.37,49.18 C95.1773333,48.9306667 94.9166667,48.7351667 94.588,48.5935 C94.2593333,48.4518333 93.857,48.381 93.381,48.381 C92.667,48.381 92.0635,48.551 91.5705,48.891 C91.0775,49.231 90.7063333,49.673 90.457,50.217 L90.457,50.217 L90.423,50.217 C90.4683333,49.9676667 90.5023333,49.6843333 90.525,49.367 C90.5476667,49.0496667 90.559,48.7776667 90.559,48.551 C90.0376667,48.5283333 89.4908333,48.5283333 88.9185,48.551 C88.3461667,48.5736667 87.822,48.6133333 87.346,48.67 L87.346,48.67 L87.346,49.792 C87.5953333,49.8146667 87.8531667,49.8401667 88.1195,49.8685 C88.3858333,49.8968333 88.621,49.928 88.825,49.962 L88.825,49.962 L88.825,57 L90.627,57 Z" id="volwassenen" fill="#FAFAFA"></path>
                    <path d="M19.4,27 L19.4,21.52 L14,21.52 L14,1 L9.36,1 L1.28,3.68 L2.24,9.48 L7.64,7.36 L7.64,21.52 L1.4,21.52 L1.4,27 L19.4,27 Z M31.8,27.52 C33.16,27.52 34.4533333,27.2466667 35.68,26.7 C36.9066667,26.1533333 37.98,25.32 38.9,24.2 C39.82,23.08 40.5466667,21.66 41.08,19.94 C41.6133333,18.22 41.88,16.1866667 41.88,13.84 C41.88,11.44 41.6733333,9.39333333 41.26,7.7 C40.8466667,6.00666667 40.24,4.62666667 39.44,3.56 C38.64,2.49333333 37.6333333,1.71333333 36.42,1.22 C35.2066667,0.726666667 33.8,0.48 32.2,0.48 C30.7066667,0.48 29.34,0.753333333 28.1,1.3 C26.86,1.84666667 25.7933333,2.68 24.9,3.8 C24.0066667,4.92 23.3133333,6.32 22.82,8 C22.3266667,9.68 22.08,11.6533333 22.08,13.92 C22.08,16.5866667 22.3066667,18.7933333 22.76,20.54 C23.2133333,22.2866667 23.8666667,23.68 24.72,24.72 C25.5733333,25.76 26.6,26.4866667 27.8,26.9 C29,27.3133333 30.3333333,27.52 31.8,27.52 Z M32,22.24 C31.4133333,22.24 30.9133333,22.1333333 30.5,21.92 C30.0866667,21.7066667 29.74,21.2933333 29.46,20.68 C29.18,20.0666667 28.9733333,19.2066667 28.84,18.1 C28.7066667,16.9933333 28.64,15.5466667 28.64,13.76 C28.64,12.1333333 28.72,10.7933333 28.88,9.74 C29.04,8.68666667 29.2666667,7.86 29.56,7.26 C29.8533333,6.66 30.2,6.24666667 30.6,6.02 C31,5.79333333 31.4533333,5.68 31.96,5.68 C32.52,5.68 33.0133333,5.78 33.44,5.98 C33.8666667,6.18 34.22,6.58 34.5,7.18 C34.78,7.78 34.9866667,8.62 35.12,9.7 C35.2533333,10.78 35.32,12.2 35.32,13.96 C35.32,15.5866667 35.2466667,16.94 35.1,18.02 C34.9533333,19.1 34.74,19.9466667 34.46,20.56 C34.18,21.1733333 33.8333333,21.6066667 33.42,21.86 C33.0066667,22.1133333 32.5333333,22.24 32,22.24 Z M48.52,27.48 C49.56,27.48 50.4533333,27.1133333 51.2,26.38 C51.9466667,25.6466667 52.32,24.76 52.32,23.72 C52.32,23.1866667 52.22,22.6933333 52.02,22.24 C51.82,21.7866667 51.5466667,21.3866667 51.2,21.04 C50.8533333,20.6933333 50.4533333,20.42 50,20.22 C49.5466667,20.02 49.0533333,19.92 48.52,19.92 C48.0133333,19.92 47.5333333,20.02 47.08,20.22 C46.6266667,20.42 46.2266667,20.6933333 45.88,21.04 C45.5333333,21.3866667 45.26,21.7866667 45.06,22.24 C44.86,22.6933333 44.76,23.1866667 44.76,23.72 C44.76,24.2266667 44.86,24.7133333 45.06,25.18 C45.26,25.6466667 45.5333333,26.0466667 45.88,26.38 C46.2266667,26.7133333 46.6266667,26.98 47.08,27.18 C47.5333333,27.38 48.0133333,27.48 48.52,27.48 Z M74,27 L74,21.08 L71.36,21.08 C70.1333333,21.08 68.94,21.0866667 67.78,21.1 C66.62,21.1133333 65.5333333,21.1466667 64.52,21.2 L64.52,21.2 L64.52,21.12 L66.52,19.24 C67.8,18.04 68.8666667,16.96 69.72,16 C70.5733333,15.04 71.2533333,14.1333333 71.76,13.28 C72.2666667,12.4266667 72.62,11.6 72.82,10.8 C73.02,10 73.12,9.16 73.12,8.28 C73.12,7.29333333 72.9466667,6.33333333 72.6,5.4 C72.2533333,4.46666667 71.7066667,3.64 70.96,2.92 C70.2133333,2.2 69.26,1.62 68.1,1.18 C66.94,0.74 65.5466667,0.52 63.92,0.52 C62.4266667,0.52 61.0066667,0.693333333 59.66,1.04 C58.3133333,1.38666667 57.1333333,1.82666667 56.12,2.36 L56.12,2.36 L57.2,7.84 C57.8933333,7.38666667 58.6933333,7 59.6,6.68 C60.5066667,6.36 61.48,6.2 62.52,6.2 C63.7733333,6.2 64.7133333,6.5 65.34,7.1 C65.9666667,7.7 66.28,8.46666667 66.28,9.4 C66.28,9.85333333 66.1933333,10.3266667 66.02,10.82 C65.8466667,11.3133333 65.4866667,11.9266667 64.94,12.66 C64.3933333,13.3933333 63.62,14.2933333 62.62,15.36 C61.62,16.4266667 60.2933333,17.76 58.64,19.36 L58.64,19.36 L55.92,22 L55.92,27 L74,27 Z M84.16,27.48 C85.92,27.48 87.5266667,27.26 88.98,26.82 C90.4333333,26.38 91.6733333,25.76 92.7,24.96 C93.7266667,24.16 94.5266667,23.1866667 95.1,22.04 C95.6733333,20.8933333 95.96,19.6133333 95.96,18.2 C95.96,15.9333333 95.12,14.1133333 93.44,12.74 C91.76,11.3666667 89.36,10.68 86.24,10.68 L86.24,10.68 L85.12,10.68 L85.12,6.72 L94.8,6.72 L94.8,1 L79.28,1 L79.28,15.76 C79.8933333,15.68 80.5866667,15.6066667 81.36,15.54 C82.1333333,15.4733333 82.96,15.44 83.84,15.44 C85.52,15.44 86.8333333,15.72 87.78,16.28 C88.7266667,16.84 89.2,17.68 89.2,18.8 C89.2,19.8666667 88.7933333,20.7066667 87.98,21.32 C87.1666667,21.9333333 86.0133333,22.24 84.52,22.24 C83.3733333,22.24 82.38,22.1733333 81.54,22.04 C80.7,21.9066667 79.8666667,21.72 79.04,21.48 L79.04,21.48 L79.04,26.92 C79.8133333,27.1066667 80.6133333,27.2466667 81.44,27.34 C82.2666667,27.4333333 83.1733333,27.48 84.16,27.48 Z M109.2,27.52 C110.64,27.52 111.96,27.3066667 113.16,26.88 C114.36,26.4533333 115.393333,25.8333333 116.26,25.02 C117.126667,24.2066667 117.793333,23.2066667 118.26,22.02 C118.726667,20.8333333 118.96,19.4933333 118.96,18 C118.96,16.9333333 118.786667,15.9333333 118.44,15 C118.093333,14.0666667 117.573333,13.2533333 116.88,12.56 C116.186667,11.8666667 115.326667,11.32 114.3,10.92 C113.273333,10.52 112.093333,10.32 110.76,10.32 C108.52,10.32 106.786667,10.96 105.56,12.24 L105.56,12.24 L105.52,12.24 C105.573333,11.9466667 105.633333,11.6933333 105.7,11.48 C105.766667,11.2666667 105.826667,11.0666667 105.88,10.88 C106.413333,9.22666667 107.246667,7.94666667 108.38,7.04 C109.513333,6.13333333 111.053333,5.68 113,5.68 C114.226667,5.68 115.44,5.8 116.64,6.04 L116.64,6.04 L116.64,0.76 C116.106667,0.706666667 115.54,0.666666667 114.94,0.64 C114.34,0.613333333 113.76,0.6 113.2,0.6 C111.066667,0.6 109.146667,0.933333333 107.44,1.6 C105.733333,2.26666667 104.28,3.24 103.08,4.52 C101.88,5.8 100.953333,7.39333333 100.3,9.3 C99.6466667,11.2066667 99.32,13.4 99.32,15.88 C99.32,17.9066667 99.5533333,19.6533333 100.02,21.12 C100.486667,22.5866667 101.153333,23.7933333 102.02,24.74 C102.886667,25.6866667 103.926667,26.3866667 105.14,26.84 C106.353333,27.2933333 107.706667,27.52 109.2,27.52 Z M109.44,22.56 C108.186667,22.56 107.253333,22.1866667 106.64,21.44 C106.026667,20.6933333 105.72,19.7466667 105.72,18.6 C105.72,17.7733333 106.02,17.0133333 106.62,16.32 C107.22,15.6266667 108.093333,15.28 109.24,15.28 C110.413333,15.28 111.3,15.5933333 111.9,16.22 C112.5,16.8466667 112.8,17.7333333 112.8,18.88 C112.8,19.9466667 112.506667,20.8266667 111.92,21.52 C111.333333,22.2133333 110.506667,22.56 109.44,22.56 Z" id="10.256" fill="#FEFEFE"></path>
                </g>
                <g id="Feiten_en_cijfers_aantal_leden_witte_dame" transform="translate(167.000000, 20.000000)">
                    <g id="Group-9">
                        <path d="M205.6798,109.6737 C204.2808,136.7737 192.3798,161.6737 172.1798,179.8737 C152.2808,197.7737 126.6798,206.9737 99.8798,205.8737 L105.1808,104.4737 L105.1808,2.8737 C106.5798,2.8737 108.2808,2.9737 109.4808,2.9737 C136.5798,4.3737 161.4808,16.2737 179.6798,36.4737 C197.8798,56.4737 207.0798,82.5737 205.6798,109.6737 M30.3798,174.3737 C12.4798,155.5727 2.6798,130.6737 2.6798,104.2737 C2.6798,48.5737 47.6808,3.2737 103.2808,2.6737 L103.2808,104.1737 L97.9798,205.5727 C71.9798,204.0727 48.0798,192.9737 30.3798,174.3737 M181.2808,34.9737 C162.7808,14.3737 137.3798,2.2737 109.7808,0.8737 C108.5798,0.7737 106.7808,0.7737 105.3798,0.7737 L104.3798,0.7737 L103.3798,0.7737 C46.7808,1.2737 0.7808,47.5737 0.7808,104.2737 C0.7808,131.1737 10.7808,156.5727 29.0798,175.7737 C47.0798,194.7737 71.4798,206.0727 97.9798,207.6737 L98.9798,207.7737 L99.9798,207.8737 C101.4798,207.9737 102.9798,207.9737 104.4798,207.9737 C130.0798,207.9737 154.4808,198.6737 173.6798,181.3737 C194.2808,162.8737 206.3798,137.4737 207.7808,109.8737 C209.1798,82.0737 199.7808,55.5737 181.2808,34.9737" id="Fill-1" fill="#B45E8B"></path>
                        <path d="M104.443,104.4179 L62.42,198.8029 C10.293,175.5939 -13.151,114.5219 10.058,62.3949 C26.815,24.7589 63.245,1.1009 104.443,1.1009 L104.443,104.4179 Z" id="Stroke-3" stroke="#F41E6B" stroke-width="2.2"></path>
                        <path d="M104.443,104.4179 L104.443,1.1009 C161.504,1.1009 207.761,47.3569 207.761,104.4179 C207.761,161.4789 161.504,207.7349 104.443,207.7349 C88.637,207.7349 76.86,205.2309 62.42,198.8029 L104.443,104.4179 Z" id="Fill-5" fill="#F288AE"></path>
                        <path d="M104.443,104.4179 L104.443,1.1009 C161.504,1.1009 207.761,47.3569 207.761,104.4179 C207.761,161.4789 161.504,207.7349 104.443,207.7349 C88.637,207.7349 76.86,205.2309 62.42,198.8029 L104.443,104.4179 Z" id="Stroke-7" stroke="#F41E6B" stroke-width="2.2"></path>
                    </g>
                </g>
                <rect id="Rectangle-Copy-11" x="0" y="0.5" width="541" height="247"></rect>
            </g>
        </g>
    </g>
</svg>