<?xml version="1.0" encoding="utf-8"?>
<!-- Generator: Adobe Illustrator 23.0.1, SVG Export Plug-In . SVG Version: 6.00 Build 0)  -->
<svg version="1.1" id="Layer_1" xmlns="http://www.w3.org/2000/svg" xmlns:xlink="http://www.w3.org/1999/xlink" x="0px" y="0px"
	 viewBox="0 0 728.7 404" style="enable-background:new 0 0 728.7 404;" xml:space="preserve">
<style type="text/css">
	.st0{fill:#FFFFFF;}
</style>
<g>
	<path class="st0" d="M365.3,28.1c3.4,0,6.2-2.8,6.2-6.2s-2.8-6.2-6.2-6.2s-6.2,2.8-6.2,6.2S361.9,28.1,365.3,28.1z M365.3,19.7
		c1.2,0,2.2,1,2.2,2.2s-1,2.2-2.2,2.2c-1.2,0-2.2-1-2.2-2.2S364.1,19.7,365.3,19.7z"/>
	<path class="st0" d="M723.6,367.5h-71.4V28c0-15.4-12.6-28-28.2-28H104.6C89.1,0,76.4,12.5,76.4,28v339.6H5.1c-2.8,0-5.1,2-5.1,4.5
		v14.2c0,7,23.9,17.7,55.7,17.7H673c36.5,0,55.7-11.2,55.7-17.1v-14.8C728.7,369.6,726.4,367.5,723.6,367.5z M80.4,28
		c0-13,11.1-24,24.2-24H624c13.3,0,24.2,10.7,24.2,24v339.6H80.4V28z M287.8,371.6h153.1v2.1c-0.4,0.4-2.5,1.1-6,1.1H293.9
		c-3.8,0-5.8-0.7-6.2-1.1V371.6z M5.1,371.5h71.3v0h207.3v2.2c0,3.2,3.6,5,10.2,5h140.9c6.3,0,10-1.8,10-5v-2.2h207.3v0h71.4
		c0.7,0,1.1,0.4,1.1,0.5v10.6H4v-10.6C4,371.9,4.4,371.5,5.1,371.5z M673,400H55.7c-29.7,0-49.4-9.7-51.5-13.3h720.5v0.1
		C723.8,389.5,708.3,400,673,400z"/>
	<path class="st0" d="M99.5,350.6h528.7V40.8H99.5V350.6z M103.5,44.8h520.7v301.8H103.5V44.8z"/>
</g>
</svg>
