<?xml version="1.0" encoding="utf-8"?>
<!-- Generator: Adobe Illustrator 23.0.1, SVG Export Plug-In . SVG Version: 6.00 Build 0)  -->
<svg version="1.1" id="Layer_1" xmlns="http://www.w3.org/2000/svg" xmlns:xlink="http://www.w3.org/1999/xlink" x="0px" y="0px"
	 viewBox="0 0 884.4 903.5" style="enable-background:new 0 0 884.4 903.5;" xml:space="preserve">
<style type="text/css">
	.st0{fill:#FFFFFF;}
</style>
<g>
	<path class="st0" d="M277.3,239.2v444.1c0,11.1,9.1,20.2,20.2,20.2h289.5c11.1,0,20.2-9.1,20.2-20.2V239.2
		c0-11.1-9.1-20.2-20.2-20.2H297.5C286.3,219,277.3,228.1,277.3,239.2z M603.2,239.2v444.1c0,8.9-7.3,16.2-16.2,16.2H297.5
		c-8.9,0-16.2-7.3-16.2-16.2V239.2c0-8.9,7.3-16.2,16.2-16.2h289.5C595.9,223,603.2,230.3,603.2,239.2z"/>
	<path class="st0" d="M582.2,267.4h-280v387.5h280V267.4z M578.2,650.9h-272V271.4h272V650.9z"/>
	<path class="st0" d="M442.2,661.7c-7.8,0-14.2,6.4-14.2,14.2c0,7.8,6.4,14.2,14.2,14.2c7.8,0,14.2-6.4,14.2-14.2
		C456.4,668,450,661.7,442.2,661.7z M442.2,686c-5.6,0-10.2-4.6-10.2-10.2c0-5.6,4.6-10.2,10.2-10.2s10.2,4.6,10.2,10.2
		C452.4,681.4,447.8,686,442.2,686z"/>
	<path class="st0" d="M442.2,253.2c3.6,0,6.5-2.9,6.5-6.5c0-3.6-2.9-6.5-6.5-6.5c-3.6,0-6.5,2.9-6.5,6.5
		C435.7,250.3,438.6,253.2,442.2,253.2z M442.2,244.1c1.4,0,2.5,1.1,2.5,2.5c0,1.4-1.1,2.5-2.5,2.5s-2.5-1.1-2.5-2.5
		C439.7,245.3,440.8,244.1,442.2,244.1z"/>
	<path class="st0" d="M849.7,289.2c-22.3-52.7-54.2-100-94.8-140.6l-2.8,2.8c40.2,40.2,71.8,87.1,93.9,139.3
		c22.8,54,34.4,111.4,34.4,170.6c0,59.2-11.6,116.5-34.4,170.6c-22.1,52.2-53.7,99-93.9,139.3c-40.2,40.2-87.1,71.8-139.3,93.9
		c-54,22.9-111.4,34.4-170.6,34.4s-116.5-11.6-170.6-34.4c-52.2-22.1-99-53.7-139.3-93.9c-40.2-40.2-71.8-87.1-93.9-139.3
		C15.6,577.9,4,520.5,4,461.3c0-59.2,11.6-116.5,34.4-170.6c22.1-52.2,53.7-99,93.9-139.3c40.2-40.2,87.1-71.8,139.3-93.9
		c52.5-22.2,108.2-33.8,165.7-34.4l-16,16l2.8,2.8l21-21l-21-21l-2.8,2.8l16.3,16.3c-58.1,0.6-114.4,12.3-167.5,34.7
		c-52.7,22.3-100,54.2-140.6,94.8S57,236.5,34.8,289.2C11.7,343.7,0,401.6,0,461.3s11.7,117.6,34.8,172.1
		c22.3,52.7,54.2,100,94.8,140.6c40.6,40.6,87.9,72.5,140.6,94.8c54.5,23.1,112.4,34.8,172.1,34.8s117.6-11.7,172.1-34.8
		c52.7-22.3,100-54.2,140.6-94.8c40.6-40.6,72.5-87.9,94.8-140.6c23.1-54.5,34.8-112.4,34.8-172.1c0,0,0,0,0,0s0,0,0,0
		C884.4,401.6,872.7,343.7,849.7,289.2z"/>
</g>
</svg>
