<?xml version="1.0" encoding="UTF-8"?>
<svg width="313px" height="198px" viewBox="0 0 313 198" version="1.1" xmlns="http://www.w3.org/2000/svg" xmlns:xlink="http://www.w3.org/1999/xlink">
    <!-- Generator: Sketch 62 (91390) - https://sketch.com -->
    <title>Group</title>
    <desc>Created with Sketch.</desc>
    <g id="Symbols" stroke="none" stroke-width="1" fill="none" fill-rule="evenodd">
        <g id="label-2019-copy">
            <g id="Group">
                <polygon id="Fill-1" fill="#FAFAFA" points="0 198 313 198 313 0 0 0"></polygon>
                <path d="M96.8,107 L96.8,92.2 L90.2,92.2 C87.1333333,92.2 84.15,92.2166667 81.25,92.25 C78.35,92.2833333 75.6333333,92.3666667 73.1,92.5 L73.1,92.5 L73.1,92.3 L78.1,87.6 C81.3,84.6 83.9666667,81.9 86.1,79.5 C88.2333333,77.1 89.9333333,74.8333333 91.2,72.7 C92.4666667,70.5666667 93.35,68.5 93.85,66.5 C94.35,64.5 94.6,62.4 94.6,60.2 C94.6,57.7333333 94.1666667,55.3333333 93.3,53 C92.4333333,50.6666667 91.0666667,48.6 89.2,46.8 C87.3333333,45 84.95,43.55 82.05,42.45 C79.15,41.35 75.6666667,40.8 71.6,40.8 C67.8666667,40.8 64.3166667,41.2333333 60.95,42.1 C57.5833333,42.9666667 54.6333333,44.0666667 52.1,45.4 L52.1,45.4 L54.8,59.1 C56.5333333,57.9666667 58.5333333,57 60.8,56.2 C63.0666667,55.4 65.5,55 68.1,55 C71.2333333,55 73.5833333,55.75 75.15,57.25 C76.7166667,58.75 77.5,60.6666667 77.5,63 C77.5,64.1333333 77.2833333,65.3166667 76.85,66.55 C76.4166667,67.7833333 75.5166667,69.3166667 74.15,71.15 C72.7833333,72.9833333 70.85,75.2333333 68.35,77.9 C65.85,80.5666667 62.5333333,83.9 58.4,87.9 L58.4,87.9 L51.6,94.5 L51.6,107 L96.8,107 Z M129,108.3 C132.4,108.3 135.633333,107.616667 138.7,106.25 C141.766667,104.883333 144.45,102.8 146.75,100 C149.05,97.2 150.866667,93.65 152.2,89.35 C153.533333,85.05 154.2,79.9666667 154.2,74.1 C154.2,68.1 153.683333,62.9833333 152.65,58.75 C151.616667,54.5166667 150.1,51.0666667 148.1,48.4 C146.1,45.7333333 143.583333,43.7833333 140.55,42.55 C137.516667,41.3166667 134,40.7 130,40.7 C126.266667,40.7 122.85,41.3833333 119.75,42.75 C116.65,44.1166667 113.983333,46.2 111.75,49 C109.516667,51.8 107.783333,55.3 106.55,59.5 C105.316667,63.7 104.7,68.6333333 104.7,74.3 C104.7,80.9666667 105.266667,86.4833333 106.4,90.85 C107.533333,95.2166667 109.166667,98.7 111.3,101.3 C113.433333,103.9 116,105.716667 119,106.75 C122,107.783333 125.333333,108.3 129,108.3 Z M129.5,95.1 C128.033333,95.1 126.783333,94.8333333 125.75,94.3 C124.716667,93.7666667 123.85,92.7333333 123.15,91.2 C122.45,89.6666667 121.933333,87.5166667 121.6,84.75 C121.266667,81.9833333 121.1,78.3666667 121.1,73.9 C121.1,69.8333333 121.3,66.4833333 121.7,63.85 C122.1,61.2166667 122.666667,59.15 123.4,57.65 C124.133333,56.15 125,55.1166667 126,54.55 C127,53.9833333 128.133333,53.7 129.4,53.7 C130.8,53.7 132.033333,53.95 133.1,54.45 C134.166667,54.95 135.05,55.95 135.75,57.45 C136.45,58.95 136.966667,61.05 137.3,63.75 C137.633333,66.45 137.8,70 137.8,74.4 C137.8,78.4666667 137.616667,81.85 137.25,84.55 C136.883333,87.25 136.35,89.3666667 135.65,90.9 C134.95,92.4333333 134.083333,93.5166667 133.05,94.15 C132.016667,94.7833333 130.833333,95.1 129.5,95.1 Z M208,107 L208,93.3 L194.5,93.3 L194.5,42 L182.9,42 L162.7,48.7 L165.1,63.2 L178.6,57.9 L178.6,93.3 L163,93.3 L163,107 L208,107 Z M229.2,108 C234.533333,108 239.333333,107.183333 243.6,105.55 C247.866667,103.916667 251.5,101.5 254.5,98.3 C257.5,95.1 259.8,91.1166667 261.4,86.35 C263,81.5833333 263.8,76.0666667 263.8,69.8 C263.8,59.9333333 261.583333,52.6166667 257.15,47.85 C252.716667,43.0833333 246.733333,40.7 239.2,40.7 C235.6,40.7 232.3,41.2333333 229.3,42.3 C226.3,43.3666667 223.716667,44.9333333 221.55,47 C219.383333,49.0666667 217.7,51.55 216.5,54.45 C215.3,57.35 214.7,60.6666667 214.7,64.4 C214.7,67.0666667 215.15,69.5833333 216.05,71.95 C216.95,74.3166667 218.266667,76.3833333 220,78.15 C221.733333,79.9166667 223.866667,81.3 226.4,82.3 C228.933333,83.3 231.866667,83.8 235.2,83.8 C238,83.8 240.466667,83.4 242.6,82.6 C244.733333,81.8 246.566667,80.7 248.1,79.3 L248.1,79.3 L248.2,79.3 C248,80.0333333 247.816667,80.6333333 247.65,81.1 C247.483333,81.5666667 247.333333,82.1 247.2,82.7 C245.933333,86.8333333 243.933333,89.95 241.2,92.05 C238.466667,94.15 234.7,95.2 229.9,95.2 C228.166667,95.2 226.416667,95.1166667 224.65,94.95 C222.883333,94.7833333 221.1,94.4666667 219.3,94 L219.3,94 L219.3,107.3 C220.966667,107.633333 222.666667,107.833333 224.4,107.9 C226.133333,107.966667 227.733333,108 229.2,108 Z M238.7,71.3 C235.833333,71.3 233.65,70.5333333 232.15,69 C230.65,67.4666667 229.9,65.2333333 229.9,62.3 C229.9,59.7666667 230.633333,57.6 232.1,55.8 C233.566667,54 235.6,53.1 238.2,53.1 C241.333333,53.1 243.65,54.0166667 245.15,55.85 C246.65,57.6833333 247.4,60.0333333 247.4,62.9 C247.4,65.2333333 246.65,67.2166667 245.15,68.85 C243.65,70.4833333 241.5,71.3 238.7,71.3 Z" id="2019" fill="#484999" fill-rule="nonzero"></path>
                <path d="M67.675,146 L67.675,138.425 L75.65,138.425 L75.65,146 L78.35,146 L78.35,129.125 L75.65,129.125 L75.65,136.1 L67.675,136.1 L67.675,129.125 L64.95,129.125 L64.95,146 L67.675,146 Z M87.235,146.25 C88.0183333,146.25 88.785,146.183333 89.535,146.05 C90.285,145.916667 90.985,145.716667 91.635,145.45 L91.635,145.45 L91.285,143.35 C90.7183333,143.6 90.1308333,143.7875 89.5225,143.9125 C88.9141667,144.0375 88.31,144.1 87.71,144.1 C86.46,144.1 85.5266667,143.770833 84.91,143.1125 C84.2933333,142.454167 84.0016667,141.416667 84.035,140 L84.035,140 L91.96,140 C92.01,139.466667 92.035,139.033333 92.035,138.7 C92.035,137.966667 91.9391667,137.270833 91.7475,136.6125 C91.5558333,135.954167 91.2516667,135.383333 90.835,134.9 C90.4183333,134.416667 89.8891667,134.033333 89.2475,133.75 C88.6058333,133.466667 87.8433333,133.325 86.96,133.325 C86.06,133.325 85.2558333,133.491667 84.5475,133.825 C83.8391667,134.158333 83.2433333,134.616667 82.76,135.2 C82.2766667,135.783333 81.91,136.475 81.66,137.275 C81.41,138.075 81.285,138.941667 81.285,139.875 C81.285,142.075 81.7975,143.6875 82.8225,144.7125 C83.8475,145.7375 85.3183333,146.25 87.235,146.25 Z M89.36,138.15 L84.085,138.15 C84.2016667,137.266667 84.5058333,136.570833 84.9975,136.0625 C85.4891667,135.554167 86.11,135.3 86.86,135.3 C87.66,135.3 88.285,135.55 88.735,136.05 C89.185,136.55 89.3933333,137.25 89.36,138.15 L89.36,138.15 Z M99.045,146.225 C99.4616667,146.225 99.9033333,146.195833 100.37,146.1375 C100.836667,146.079167 101.261667,146.008333 101.645,145.925 L101.645,145.925 L101.42,143.775 C101.186667,143.825 100.945,143.866667 100.695,143.9 C100.445,143.933333 100.178333,143.95 99.895,143.95 C99.2783333,143.95 98.8533333,143.7875 98.62,143.4625 C98.3866667,143.1375 98.27,142.516667 98.27,141.6 L98.27,141.6 L98.27,135.65 L101.52,135.65 L101.52,133.575 L98.27,133.575 L98.27,128.9 L95.595,129.625 L95.595,133.575 L93.22,133.575 L93.22,135.65 L95.595,135.65 L95.595,142.425 C95.595,143.125 95.6491667,143.716667 95.7575,144.2 C95.8658333,144.683333 96.0533333,145.075 96.32,145.375 C96.5866667,145.675 96.9408333,145.891667 97.3825,146.025 C97.8241667,146.158333 98.3783333,146.225 99.045,146.225 Z M111.965,131.375 C112.448333,131.375 112.856667,131.2125 113.19,130.8875 C113.523333,130.5625 113.69,130.166667 113.69,129.7 C113.69,129.233333 113.523333,128.8375 113.19,128.5125 C112.856667,128.1875 112.448333,128.025 111.965,128.025 C111.481667,128.025 111.0775,128.1875 110.7525,128.5125 C110.4275,128.8375 110.265,129.233333 110.265,129.7 C110.265,130.183333 110.4275,130.583333 110.7525,130.9 C111.0775,131.216667 111.481667,131.375 111.965,131.375 Z M108.765,152.275 C109.615,152.275 110.331667,152.166667 110.915,151.95 C111.498333,151.733333 111.969167,151.408333 112.3275,150.975 C112.685833,150.541667 112.94,150.008333 113.09,149.375 C113.24,148.741667 113.315,148.008333 113.315,147.175 L113.315,147.175 L113.315,133.575 C112.498333,133.541667 111.660833,133.541667 110.8025,133.575 C109.944167,133.608333 109.165,133.666667 108.465,133.75 L108.465,133.75 L108.465,135.4 C108.831667,135.433333 109.210833,135.470833 109.6025,135.5125 C109.994167,135.554167 110.34,135.6 110.64,135.65 L110.64,135.65 L110.64,147.425 C110.64,148.425 110.510833,149.108333 110.2525,149.475 C109.994167,149.841667 109.498333,150.025 108.765,150.025 C108.215,150.025 107.706667,149.933333 107.24,149.75 L107.24,149.75 L107.04,152.05 C107.29,152.133333 107.569167,152.191667 107.8775,152.225 C108.185833,152.258333 108.481667,152.275 108.765,152.275 Z M119.825,146.25 C120.825,146.25 121.6875,146.008333 122.4125,145.525 C123.1375,145.041667 123.65,144.425 123.95,143.675 L123.95,143.675 L123.975,143.7 C123.925,144.033333 123.891667,144.4 123.875,144.8 C123.858333,145.2 123.85,145.6 123.85,146 C124.583333,146.033333 125.370833,146.033333 126.2125,146 C127.054167,145.966667 127.825,145.908333 128.525,145.825 L128.525,145.825 L128.525,144.175 C128.158333,144.141667 127.779167,144.104167 127.3875,144.0625 C126.995833,144.020833 126.65,143.975 126.35,143.925 L126.35,143.925 L126.35,137.525 C126.35,136.891667 126.275,136.316667 126.125,135.8 C125.975,135.283333 125.716667,134.841667 125.35,134.475 C124.983333,134.108333 124.483333,133.825 123.85,133.625 C123.216667,133.425 122.425,133.325 121.475,133.325 C120.691667,133.325 119.916667,133.4 119.15,133.55 C118.383333,133.7 117.691667,133.891667 117.075,134.125 L117.075,134.125 L117.45,136.325 C117.95,136.058333 118.533333,135.841667 119.2,135.675 C119.866667,135.508333 120.491667,135.425 121.075,135.425 C122.058333,135.425 122.7375,135.620833 123.1125,136.0125 C123.4875,136.404167 123.675,136.991667 123.675,137.775 L123.675,137.775 L123.675,138.475 C122.558333,138.475 121.55,138.575 120.65,138.775 C119.75,138.975 118.979167,139.2625 118.3375,139.6375 C117.695833,140.0125 117.204167,140.475 116.8625,141.025 C116.520833,141.575 116.35,142.2 116.35,142.9 C116.35,143.916667 116.6625,144.729167 117.2875,145.3375 C117.9125,145.945833 118.758333,146.25 119.825,146.25 Z M120.625,144.15 C120.091667,144.15 119.675,143.991667 119.375,143.675 C119.075,143.358333 118.925,142.958333 118.925,142.475 C118.925,142.191667 118.995833,141.916667 119.1375,141.65 C119.279167,141.383333 119.533333,141.15 119.9,140.95 C120.266667,140.75 120.754167,140.5875 121.3625,140.4625 C121.970833,140.3375 122.741667,140.275 123.675,140.275 L123.675,140.275 L123.675,140.625 C123.675,141.075 123.6,141.508333 123.45,141.925 C123.3,142.341667 123.091667,142.716667 122.825,143.05 C122.558333,143.383333 122.2375,143.65 121.8625,143.85 C121.4875,144.05 121.075,144.15 120.625,144.15 Z M133.46,146.25 C134.46,146.25 135.3225,146.008333 136.0475,145.525 C136.7725,145.041667 137.285,144.425 137.585,143.675 L137.585,143.675 L137.61,143.7 C137.56,144.033333 137.526667,144.4 137.51,144.8 C137.493333,145.2 137.485,145.6 137.485,146 C138.218333,146.033333 139.005833,146.033333 139.8475,146 C140.689167,145.966667 141.46,145.908333 142.16,145.825 L142.16,145.825 L142.16,144.175 C141.793333,144.141667 141.414167,144.104167 141.0225,144.0625 C140.630833,144.020833 140.285,143.975 139.985,143.925 L139.985,143.925 L139.985,137.525 C139.985,136.891667 139.91,136.316667 139.76,135.8 C139.61,135.283333 139.351667,134.841667 138.985,134.475 C138.618333,134.108333 138.118333,133.825 137.485,133.625 C136.851667,133.425 136.06,133.325 135.11,133.325 C134.326667,133.325 133.551667,133.4 132.785,133.55 C132.018333,133.7 131.326667,133.891667 130.71,134.125 L130.71,134.125 L131.085,136.325 C131.585,136.058333 132.168333,135.841667 132.835,135.675 C133.501667,135.508333 134.126667,135.425 134.71,135.425 C135.693333,135.425 136.3725,135.620833 136.7475,136.0125 C137.1225,136.404167 137.31,136.991667 137.31,137.775 L137.31,137.775 L137.31,138.475 C136.193333,138.475 135.185,138.575 134.285,138.775 C133.385,138.975 132.614167,139.2625 131.9725,139.6375 C131.330833,140.0125 130.839167,140.475 130.4975,141.025 C130.155833,141.575 129.985,142.2 129.985,142.9 C129.985,143.916667 130.2975,144.729167 130.9225,145.3375 C131.5475,145.945833 132.393333,146.25 133.46,146.25 Z M134.26,144.15 C133.726667,144.15 133.31,143.991667 133.01,143.675 C132.71,143.358333 132.56,142.958333 132.56,142.475 C132.56,142.191667 132.630833,141.916667 132.7725,141.65 C132.914167,141.383333 133.168333,141.15 133.535,140.95 C133.901667,140.75 134.389167,140.5875 134.9975,140.4625 C135.605833,140.3375 136.376667,140.275 137.31,140.275 L137.31,140.275 L137.31,140.625 C137.31,141.075 137.235,141.508333 137.085,141.925 C136.935,142.341667 136.726667,142.716667 136.46,143.05 C136.193333,143.383333 135.8725,143.65 135.4975,143.85 C135.1225,144.05 134.71,144.15 134.26,144.15 Z M147.87,146 L147.87,140.95 C147.87,139.083333 148.178333,137.725 148.795,136.875 C149.411667,136.025 150.37,135.725 151.67,135.975 L151.67,135.975 L151.795,133.35 C151.178333,133.283333 150.636667,133.325 150.17,133.475 C149.703333,133.625 149.303333,133.841667 148.97,134.125 C148.636667,134.408333 148.353333,134.741667 148.12,135.125 C147.886667,135.508333 147.703333,135.908333 147.57,136.325 L147.57,136.325 L147.52,136.325 C147.603333,135.841667 147.665833,135.35 147.7075,134.85 C147.749167,134.35 147.77,133.925 147.77,133.575 C147.003333,133.541667 146.199167,133.541667 145.3575,133.575 C144.515833,133.608333 143.745,133.666667 143.045,133.75 L143.045,133.75 L143.045,135.4 C143.411667,135.433333 143.790833,135.470833 144.1825,135.5125 C144.574167,135.554167 144.92,135.6 145.22,135.65 L145.22,135.65 L145.22,146 L147.87,146 Z M161.69,131.375 C162.173333,131.375 162.581667,131.2125 162.915,130.8875 C163.248333,130.5625 163.415,130.166667 163.415,129.7 C163.415,129.233333 163.248333,128.8375 162.915,128.5125 C162.581667,128.1875 162.173333,128.025 161.69,128.025 C161.223333,128.025 160.823333,128.1875 160.49,128.5125 C160.156667,128.8375 159.99,129.233333 159.99,129.7 C159.99,130.183333 160.156667,130.583333 160.49,130.9 C160.823333,131.216667 161.223333,131.375 161.69,131.375 Z M163.015,146 L163.015,133.575 C162.198333,133.541667 161.365,133.541667 160.515,133.575 C159.665,133.608333 158.89,133.666667 158.19,133.75 L158.19,133.75 L158.19,135.4 C158.556667,135.433333 158.935833,135.470833 159.3275,135.5125 C159.719167,135.554167 160.065,135.6 160.365,135.65 L160.365,135.65 L160.365,146 L163.015,146 Z M170.3,146 L170.3,140.025 C170.3,139.391667 170.383333,138.804167 170.55,138.2625 C170.716667,137.720833 170.945833,137.25 171.2375,136.85 C171.529167,136.45 171.870833,136.133333 172.2625,135.9 C172.654167,135.666667 173.083333,135.55 173.55,135.55 C174.283333,135.55 174.779167,135.766667 175.0375,136.2 C175.295833,136.633333 175.425,137.241667 175.425,138.025 L175.425,138.025 L175.425,146 L178.075,146 L178.075,137.3 C178.075,136.75 178.0125,136.2375 177.8875,135.7625 C177.7625,135.2875 177.558333,134.866667 177.275,134.5 C176.991667,134.133333 176.608333,133.845833 176.125,133.6375 C175.641667,133.429167 175.05,133.325 174.35,133.325 C173.3,133.325 172.4125,133.575 171.6875,134.075 C170.9625,134.575 170.416667,135.225 170.05,136.025 L170.05,136.025 L170,136.025 C170.066667,135.658333 170.116667,135.241667 170.15,134.775 C170.183333,134.308333 170.2,133.908333 170.2,133.575 C169.433333,133.541667 168.629167,133.541667 167.7875,133.575 C166.945833,133.608333 166.175,133.666667 165.475,133.75 L165.475,133.75 L165.475,135.4 C165.841667,135.433333 166.220833,135.470833 166.6125,135.5125 C167.004167,135.554167 167.35,135.6 167.65,135.65 L167.65,135.65 L167.65,146 L170.3,146 Z M192.02,146.2 C193.053333,146.2 193.978333,146.0375 194.795,145.7125 C195.611667,145.3875 196.303333,144.916667 196.87,144.3 C197.436667,143.683333 197.87,142.941667 198.17,142.075 C198.47,141.208333 198.62,140.241667 198.62,139.175 C198.62,137.291667 198.228333,135.845833 197.445,134.8375 C196.661667,133.829167 195.528333,133.325 194.045,133.325 C193.128333,133.325 192.324167,133.55 191.6325,134 C190.940833,134.45 190.428333,135.066667 190.095,135.85 L190.095,135.85 L190.07,135.85 C190.136667,135.516667 190.186667,135.129167 190.22,134.6875 C190.253333,134.245833 190.27,133.841667 190.27,133.475 L190.27,133.475 L190.27,127.75 C189.453333,127.716667 188.615833,127.716667 187.7575,127.75 C186.899167,127.783333 186.12,127.841667 185.42,127.925 L185.42,127.925 L185.42,129.575 C185.786667,129.608333 186.165833,129.645833 186.5575,129.6875 C186.949167,129.729167 187.295,129.775 187.595,129.825 L187.595,129.825 L187.595,145.675 C188.295,145.858333 188.986667,145.991667 189.67,146.075 C190.353333,146.158333 191.136667,146.2 192.02,146.2 Z M192.245,144.075 C191.445,144.075 190.786667,143.991667 190.27,143.825 L190.27,143.825 L190.27,139.975 C190.27,139.441667 190.336667,138.9125 190.47,138.3875 C190.603333,137.8625 190.799167,137.391667 191.0575,136.975 C191.315833,136.558333 191.636667,136.216667 192.02,135.95 C192.403333,135.683333 192.845,135.55 193.345,135.55 C194.195,135.55 194.82,135.883333 195.22,136.55 C195.62,137.216667 195.82,138.175 195.82,139.425 C195.82,140.258333 195.7325,140.970833 195.5575,141.5625 C195.3825,142.154167 195.136667,142.6375 194.82,143.0125 C194.503333,143.3875 194.128333,143.658333 193.695,143.825 C193.261667,143.991667 192.778333,144.075 192.245,144.075 Z M206.53,146.25 C207.313333,146.25 208.08,146.183333 208.83,146.05 C209.58,145.916667 210.28,145.716667 210.93,145.45 L210.93,145.45 L210.58,143.35 C210.013333,143.6 209.425833,143.7875 208.8175,143.9125 C208.209167,144.0375 207.605,144.1 207.005,144.1 C205.755,144.1 204.821667,143.770833 204.205,143.1125 C203.588333,142.454167 203.296667,141.416667 203.33,140 L203.33,140 L211.255,140 C211.305,139.466667 211.33,139.033333 211.33,138.7 C211.33,137.966667 211.234167,137.270833 211.0425,136.6125 C210.850833,135.954167 210.546667,135.383333 210.13,134.9 C209.713333,134.416667 209.184167,134.033333 208.5425,133.75 C207.900833,133.466667 207.138333,133.325 206.255,133.325 C205.355,133.325 204.550833,133.491667 203.8425,133.825 C203.134167,134.158333 202.538333,134.616667 202.055,135.2 C201.571667,135.783333 201.205,136.475 200.955,137.275 C200.705,138.075 200.58,138.941667 200.58,139.875 C200.58,142.075 201.0925,143.6875 202.1175,144.7125 C203.1425,145.7375 204.613333,146.25 206.53,146.25 Z M208.655,138.15 L203.38,138.15 C203.496667,137.266667 203.800833,136.570833 204.2925,136.0625 C204.784167,135.554167 205.405,135.3 206.155,135.3 C206.955,135.3 207.58,135.55 208.03,136.05 C208.48,136.55 208.688333,137.25 208.655,138.15 L208.655,138.15 Z M219.315,146.25 C220.098333,146.25 220.865,146.183333 221.615,146.05 C222.365,145.916667 223.065,145.716667 223.715,145.45 L223.715,145.45 L223.365,143.35 C222.798333,143.6 222.210833,143.7875 221.6025,143.9125 C220.994167,144.0375 220.39,144.1 219.79,144.1 C218.54,144.1 217.606667,143.770833 216.99,143.1125 C216.373333,142.454167 216.081667,141.416667 216.115,140 L216.115,140 L224.04,140 C224.09,139.466667 224.115,139.033333 224.115,138.7 C224.115,137.966667 224.019167,137.270833 223.8275,136.6125 C223.635833,135.954167 223.331667,135.383333 222.915,134.9 C222.498333,134.416667 221.969167,134.033333 221.3275,133.75 C220.685833,133.466667 219.923333,133.325 219.04,133.325 C218.14,133.325 217.335833,133.491667 216.6275,133.825 C215.919167,134.158333 215.323333,134.616667 214.84,135.2 C214.356667,135.783333 213.99,136.475 213.74,137.275 C213.49,138.075 213.365,138.941667 213.365,139.875 C213.365,142.075 213.8775,143.6875 214.9025,144.7125 C215.9275,145.7375 217.398333,146.25 219.315,146.25 Z M221.44,138.15 L216.165,138.15 C216.281667,137.266667 216.585833,136.570833 217.0775,136.0625 C217.569167,135.554167 218.19,135.3 218.94,135.3 C219.74,135.3 220.365,135.55 220.815,136.05 C221.265,136.55 221.473333,137.25 221.44,138.15 L221.44,138.15 Z M229.975,146 L229.975,127.75 C229.158333,127.716667 228.320833,127.716667 227.4625,127.75 C226.604167,127.783333 225.825,127.841667 225.125,127.925 L225.125,127.925 L225.125,129.575 C225.491667,129.608333 225.870833,129.645833 226.2625,129.6875 C226.654167,129.729167 227,129.775 227.3,129.825 L227.3,129.825 L227.3,146 L229.975,146 Z M237.46,146.25 C238.426667,146.25 239.26,146.0125 239.96,145.5375 C240.66,145.0625 241.176667,144.441667 241.51,143.675 L241.51,143.675 L241.56,143.675 C241.493333,144.025 241.4475,144.416667 241.4225,144.85 C241.3975,145.283333 241.385,145.666667 241.385,146 C242.135,146.033333 242.930833,146.033333 243.7725,146 C244.614167,145.966667 245.385,145.908333 246.085,145.825 L246.085,145.825 L246.085,144.175 C245.718333,144.141667 245.339167,144.104167 244.9475,144.0625 C244.555833,144.020833 244.21,143.975 243.91,143.925 L243.91,143.925 L243.91,127.75 C243.093333,127.716667 242.26,127.716667 241.41,127.75 C240.56,127.783333 239.785,127.841667 239.085,127.925 L239.085,127.925 L239.085,129.575 C239.451667,129.608333 239.830833,129.645833 240.2225,129.6875 C240.614167,129.729167 240.96,129.775 241.26,129.825 L241.26,129.825 L241.26,133.475 C240.926667,133.441667 240.605833,133.416667 240.2975,133.4 C239.989167,133.383333 239.685,133.375 239.385,133.375 C238.385,133.375 237.480833,133.541667 236.6725,133.875 C235.864167,134.208333 235.180833,134.679167 234.6225,135.2875 C234.064167,135.895833 233.635,136.633333 233.335,137.5 C233.035,138.366667 232.885,139.333333 232.885,140.4 C232.885,142.216667 233.264167,143.645833 234.0225,144.6875 C234.780833,145.729167 235.926667,146.25 237.46,146.25 Z M238.185,144.05 C237.335,144.05 236.71,143.7125 236.31,143.0375 C235.91,142.3625 235.71,141.4 235.71,140.15 C235.71,138.466667 236.039167,137.270833 236.6975,136.5625 C237.355833,135.854167 238.218333,135.5 239.285,135.5 C239.935,135.5 240.593333,135.575 241.26,135.725 L241.26,135.725 L241.26,139.575 C241.26,140.108333 241.193333,140.641667 241.06,141.175 C240.926667,141.708333 240.726667,142.1875 240.46,142.6125 C240.193333,143.0375 239.8725,143.383333 239.4975,143.65 C239.1225,143.916667 238.685,144.05 238.185,144.05 Z" id="Hetjaarinbeeld" fill="#484999" fill-rule="nonzero"></path>
            </g>
        </g>
    </g>
</svg>