<?xml version="1.0" encoding="UTF-8"?>
<svg width="540px" height="157px" viewBox="0 0 540 157" version="1.1" xmlns="http://www.w3.org/2000/svg" xmlns:xlink="http://www.w3.org/1999/xlink">
    <!-- Generator: Sketch 62 (91390) - https://sketch.com -->
    <title>Page 1</title>
    <desc>Created with Sketch.</desc>
    <g id="Page-1" stroke="none" stroke-width="1" fill="none" fill-rule="evenodd">
        <g id="Jaar-In-Beeld" transform="translate(-751.000000, -18328.000000)">
            <g id="Group-180" transform="translate(751.000000, 18289.000000)">
                <text id="de-Bibliotheek-Waalr" font-family="TheMix-B6SemiBold, TheMix" font-size="17" font-weight="500" fill="#1619BE">
                    <tspan x="379" y="16">de Bibliotheek </tspan>
                    <tspan x="379" y="36">Waalre</tspan>
                </text>
                <text id="557" font-family="TheMix-B8ExtraBold, TheMix" font-size="60" font-weight="600" fill="#FEFEFE">
                    <tspan x="54" y="252">557</tspan>
                </text>
                <text id="67" font-family="TheMix-B8ExtraBold, TheMix" font-size="60" font-weight="600" fill="#FEFEFE">
                    <tspan x="242" y="252">67</tspan>
                </text>
                <text id="216" font-family="TheMix-B8ExtraBold, TheMix" font-size="60" font-weight="600" fill="#FEFEFE">
                    <tspan x="386" y="252">216</tspan>
                </text>
                <g id="Group-179" transform="translate(0.000000, 39.500000)">
                    <path d="M89.8997658,27.9957658 L90.4247658,27.0027658 C118.534766,27.2927658 141.086766,50.3147658 140.796766,78.4247658 C140.506766,106.533766 117.483766,129.086766 89.3747658,128.796766 C61.2647658,128.506766 38.7127658,105.483766 39.0027658,77.3737658 C39.2927658,49.2647658 62.3157658,26.7127658 90.4247658,27.0027658 L89.8997658,27.9957658 Z" id="Fill-1" fill="#52549F"></path>
                    <path d="M89.8997658,27.9957658 L90.4247658,27.0027658 C118.534766,27.2927658 141.086766,50.3147658 140.796766,78.4247658 C140.506766,106.533766 117.483766,129.086766 89.3747658,128.796766 C61.2647658,128.506766 38.7127658,105.483766 39.0027658,77.3737658 C39.2927658,49.2647658 62.3157658,26.7127658 90.4247658,27.0027658 L89.8997658,27.9957658 Z" id="Stroke-3" stroke="#181BBE" stroke-width="2.2" stroke-linecap="round" stroke-linejoin="round"></path>
                    <rect id="Rectangle" fill-opacity="0" fill="#D8D8D8" x="0" y="0.5" width="540" height="155"></rect>
                    <path d="M268.652967,60.0009672 L268.835967,60.0009672 C278.584967,60.1019672 286.405967,68.0859672 286.304967,77.8349672 C286.204967,87.5839672 278.219967,95.4059672 268.470967,95.3059672 C258.721967,95.2049672 250.899967,87.2199672 251.000967,77.4709672 C251.100967,67.7219672 259.085967,59.8999672 268.835967,60.0009672 L268.652967,60.0009672 Z" id="Fill-5" fill="#52549F"></path>
                    <path d="M268.652967,60.0009672 L268.835967,60.0009672 C278.584967,60.1019672 286.405967,68.0859672 286.304967,77.8349672 C286.204967,87.5839672 278.219967,95.4059672 268.470967,95.3059672 C258.721967,95.2049672 250.899967,87.2199672 251.000967,77.4709672 C251.100967,67.7219672 259.085967,59.8999672 268.835967,60.0009672 L268.652967,60.0009672 Z" id="Stroke-7" stroke="#181BBE" stroke-width="2.2" stroke-linecap="round" stroke-linejoin="round"></path>
                    <path d="M449.69673,46.1607301 L450.02373,46.0017301 C467.52773,46.1817301 481.57173,60.5187301 481.39073,78.0237301 C481.21073,95.5287301 466.87473,109.57273 449.36973,109.39173 C431.86473,109.21173 417.82073,94.8747301 418.00173,77.3697301 C418.18173,59.8647301 432.51873,45.8207301 450.02373,46.0017301 L449.69673,46.1607301 Z" id="Fill-9" fill="#52549F"></path>
                    <path d="M449.69673,46.1607301 L450.02373,46.0017301 C467.52773,46.1817301 481.57173,60.5187301 481.39073,78.0237301 C481.21073,95.5287301 466.87473,109.57273 449.36973,109.39173 C431.86473,109.21173 417.82073,94.8747301 418.00173,77.3697301 C418.18173,59.8647301 432.51873,45.8207301 450.02373,46.0017301 L449.69673,46.1607301 Z" id="Stroke-11" stroke="#181BBE" stroke-width="2.2" stroke-linecap="round" stroke-linejoin="round"></path>
                </g>
                <g id="Group-198" transform="translate(251.000000, 99.500000)"></g>
                <g id="Group-199" transform="translate(418.000000, 85.500000)"></g>
            </g>
        </g>
    </g>
</svg>